<ttFont>
    <TTGlyph name="A" xMin="4" yMin="0" xMax="801" yMax="700">
      <contour>
        <pt x="4" y="62" on="1"/>
        <pt x="4" y="133" on="0"/>
        <pt x="20" y="136" on="1"/>
        <pt x="20" y="144" on="0"/>
        <pt x="51" y="144" on="1"/>
        <pt x="77" y="144" on="0"/>
        <pt x="82" y="136" on="1"/>
        <pt x="89" y="180" on="0"/>
        <pt x="269" y="694" on="0"/>
        <pt x="279" y="695" on="1"/>
        <pt x="336" y="700" on="0"/>
        <pt x="416" y="700" on="1"/>
        <pt x="465" y="700" on="0"/>
        <pt x="526" y="695" on="1"/>
        <pt x="536" y="694" on="0"/>
        <pt x="716" y="181" on="0"/>
        <pt x="723" y="136" on="1"/>
        <pt x="731" y="144" on="0"/>
        <pt x="754" y="144" on="1"/>
        <pt x="785" y="144" on="0"/>
        <pt x="785" y="136" on="1"/>
        <pt x="801" y="133" on="0"/>
        <pt x="801" y="62" on="1"/>
        <pt x="801" y="16" on="0"/>
        <pt x="790" y="12" on="1"/>
        <pt x="777" y="0" on="0"/>
        <pt x="634" y="0" on="1"/>
        <pt x="573" y="0" on="0"/>
        <pt x="461" y="7" on="0"/>
        <pt x="461" y="11" on="1"/>
        <pt x="439" y="25" on="0"/>
        <pt x="439" y="91" on="1"/>
        <pt x="439" y="110" on="0"/>
        <pt x="442" y="119" on="1"/>
        <pt x="442" y="125" on="0"/>
        <pt x="457" y="135" on="0"/>
        <pt x="468" y="135" on="1"/>
        <pt x="497" y="135" on="0"/>
        <pt x="497" y="131" on="1"/>
        <pt x="501" y="131" on="0"/>
        <pt x="501" y="142" on="1"/>
        <pt x="501" y="159" on="0"/>
        <pt x="491" y="216" on="1"/>
        <pt x="467" y="211" on="0"/>
        <pt x="404" y="211" on="1"/>
        <pt x="338" y="211" on="0"/>
        <pt x="314" y="216" on="1"/>
        <pt x="304" y="167" on="0"/>
        <pt x="304" y="142" on="1"/>
        <pt x="304" y="131" on="0"/>
        <pt x="308" y="131" on="1"/>
        <pt x="308" y="135" on="0"/>
        <pt x="337" y="135" on="1"/>
        <pt x="348" y="135" on="0"/>
        <pt x="363" y="125" on="0"/>
        <pt x="363" y="119" on="1"/>
        <pt x="366" y="110" on="0"/>
        <pt x="366" y="91" on="1"/>
        <pt x="366" y="25" on="0"/>
        <pt x="344" y="11" on="1"/>
        <pt x="344" y="7" on="0"/>
        <pt x="232" y="0" on="0"/>
        <pt x="171" y="0" on="1"/>
        <pt x="28" y="0" on="0"/>
        <pt x="15" y="12" on="1"/>
        <pt x="4" y="16" on="0"/>
      </contour>
      <contour>
        <pt x="339" y="330" on="1"/>
        <pt x="367" y="334" on="0"/>
        <pt x="398" y="334" on="1"/>
        <pt x="435" y="334" on="0"/>
        <pt x="465" y="329" on="1"/>
        <pt x="435" y="450" on="0"/>
        <pt x="402" y="536" on="1"/>
        <pt x="369" y="451" on="0"/>
      </contour>
    </TTGlyph>
    <TTGlyph name="AE" xMin="-12" yMin="-1" xMax="982" yMax="721">
      <contour>
        <pt x="-12" y="62" on="1"/>
        <pt x="-12" y="133" on="0"/>
        <pt x="4" y="136" on="1"/>
        <pt x="7" y="144" on="0"/>
        <pt x="33" y="144" on="1"/>
        <pt x="66" y="144" on="0"/>
        <pt x="66" y="136" on="1"/>
        <pt x="72" y="174" on="0"/>
        <pt x="381" y="694" on="0"/>
        <pt x="393" y="695" on="1"/>
        <pt x="452" y="721" on="0"/>
        <pt x="631" y="721" on="1"/>
        <pt x="729" y="721" on="0"/>
        <pt x="923" y="707" on="0"/>
        <pt x="962" y="699" on="1"/>
        <pt x="972" y="669" on="0"/>
        <pt x="972" y="643" on="1"/>
        <pt x="972" y="601" on="0"/>
        <pt x="949" y="525" on="1"/>
        <pt x="925" y="519" on="0"/>
        <pt x="902" y="519" on="1"/>
        <pt x="844" y="519" on="0"/>
        <pt x="794" y="552" on="1"/>
        <pt x="797" y="585" on="1"/>
        <pt x="787" y="587" on="0"/>
        <pt x="777" y="587" on="1"/>
        <pt x="744" y="587" on="0"/>
        <pt x="640" y="560" on="0"/>
        <pt x="638" y="549" on="1"/>
        <pt x="644" y="504" on="0"/>
        <pt x="644" y="459" on="1"/>
        <pt x="644" y="429" on="0"/>
        <pt x="639" y="424" on="1"/>
        <pt x="697" y="424" on="0"/>
        <pt x="698" y="427" on="1"/>
        <pt x="697" y="430" on="0"/>
        <pt x="697" y="436" on="1"/>
        <pt x="697" y="447" on="0"/>
        <pt x="706" y="463" on="1"/>
        <pt x="715" y="470" on="0"/>
        <pt x="744" y="470" on="1"/>
        <pt x="768" y="470" on="0"/>
        <pt x="809" y="458" on="0"/>
        <pt x="811" y="447" on="1"/>
        <pt x="819" y="433" on="0"/>
        <pt x="819" y="397" on="1"/>
        <pt x="819" y="364" on="0"/>
        <pt x="806" y="299" on="0"/>
        <pt x="796" y="289" on="1"/>
        <pt x="788" y="282" on="0"/>
        <pt x="710" y="282" on="0"/>
        <pt x="704" y="289" on="1"/>
        <pt x="695" y="301" on="0"/>
        <pt x="695" y="319" on="1"/>
        <pt x="634" y="314" on="1"/>
        <pt x="634" y="300" on="0"/>
        <pt x="638" y="222" on="0"/>
        <pt x="638" y="203" on="1"/>
        <pt x="638" y="176" on="0"/>
        <pt x="635" y="152" on="1"/>
        <pt x="675" y="142" on="0"/>
        <pt x="716" y="142" on="1"/>
        <pt x="767" y="142" on="0"/>
        <pt x="807" y="159" on="1"/>
        <pt x="804" y="192" on="1"/>
        <pt x="854" y="225" on="0"/>
        <pt x="912" y="225" on="1"/>
        <pt x="935" y="225" on="0"/>
        <pt x="959" y="219" on="1"/>
        <pt x="982" y="143" on="0"/>
        <pt x="982" y="101" on="1"/>
        <pt x="982" y="45" on="0"/>
        <pt x="972" y="15" on="1"/>
        <pt x="973" y="6" on="0"/>
        <pt x="861" y="-1" on="0"/>
        <pt x="769" y="-1" on="1"/>
        <pt x="654" y="-1" on="0"/>
        <pt x="447" y="7" on="0"/>
        <pt x="445" y="11" on="1"/>
        <pt x="423" y="25" on="0"/>
        <pt x="423" y="91" on="1"/>
        <pt x="423" y="110" on="0"/>
        <pt x="426" y="119" on="1"/>
        <pt x="426" y="125" on="0"/>
        <pt x="441" y="135" on="0"/>
        <pt x="452" y="135" on="1"/>
        <pt x="481" y="135" on="0"/>
        <pt x="481" y="131" on="1"/>
        <pt x="482" y="139" on="0"/>
        <pt x="482" y="167" on="1"/>
        <pt x="482" y="208" on="0"/>
        <pt x="481" y="216" on="1"/>
        <pt x="457" y="211" on="0"/>
        <pt x="389" y="211" on="1"/>
        <pt x="312" y="211" on="0"/>
        <pt x="288" y="216" on="1"/>
        <pt x="261" y="174" on="0"/>
        <pt x="261" y="150" on="1"/>
        <pt x="261" y="138" on="0"/>
        <pt x="262" y="131" on="1"/>
        <pt x="262" y="135" on="0"/>
        <pt x="301" y="135" on="1"/>
        <pt x="312" y="135" on="0"/>
        <pt x="327" y="125" on="0"/>
        <pt x="327" y="119" on="1"/>
        <pt x="330" y="110" on="0"/>
        <pt x="330" y="91" on="1"/>
        <pt x="330" y="25" on="0"/>
        <pt x="308" y="11" on="1"/>
        <pt x="308" y="0" on="0"/>
        <pt x="155" y="0" on="1"/>
        <pt x="12" y="0" on="0"/>
        <pt x="-1" y="12" on="1"/>
        <pt x="-12" y="16" on="0"/>
      </contour>
      <contour>
        <pt x="343" y="330" on="1"/>
        <pt x="367" y="334" on="0"/>
        <pt x="382" y="334" on="1"/>
        <pt x="449" y="334" on="0"/>
        <pt x="479" y="329" on="1"/>
        <pt x="480" y="400" on="0"/>
        <pt x="480" y="532" on="1"/>
        <pt x="463" y="511" on="0"/>
        <pt x="418" y="444" on="0"/>
        <pt x="360" y="355" on="0"/>
      </contour>
    </TTGlyph>
    <TTGlyph name="Aacute" xMin="4" yMin="0" xMax="801" yMax="948">
      <contour>
        <pt x="4" y="62" on="1"/>
        <pt x="4" y="133" on="0"/>
        <pt x="20" y="136" on="1"/>
        <pt x="20" y="144" on="0"/>
        <pt x="51" y="144" on="1"/>
        <pt x="77" y="144" on="0"/>
        <pt x="82" y="136" on="1"/>
        <pt x="89" y="180" on="0"/>
        <pt x="269" y="694" on="0"/>
        <pt x="279" y="695" on="1"/>
        <pt x="336" y="700" on="0"/>
        <pt x="416" y="700" on="1"/>
        <pt x="465" y="700" on="0"/>
        <pt x="526" y="695" on="1"/>
        <pt x="536" y="694" on="0"/>
        <pt x="716" y="181" on="0"/>
        <pt x="723" y="136" on="1"/>
        <pt x="731" y="144" on="0"/>
        <pt x="754" y="144" on="1"/>
        <pt x="785" y="144" on="0"/>
        <pt x="785" y="136" on="1"/>
        <pt x="801" y="133" on="0"/>
        <pt x="801" y="62" on="1"/>
        <pt x="801" y="16" on="0"/>
        <pt x="790" y="12" on="1"/>
        <pt x="777" y="0" on="0"/>
        <pt x="634" y="0" on="1"/>
        <pt x="573" y="0" on="0"/>
        <pt x="461" y="7" on="0"/>
        <pt x="461" y="11" on="1"/>
        <pt x="439" y="25" on="0"/>
        <pt x="439" y="91" on="1"/>
        <pt x="439" y="110" on="0"/>
        <pt x="442" y="119" on="1"/>
        <pt x="442" y="125" on="0"/>
        <pt x="457" y="135" on="0"/>
        <pt x="468" y="135" on="1"/>
        <pt x="497" y="135" on="0"/>
        <pt x="497" y="131" on="1"/>
        <pt x="501" y="131" on="0"/>
        <pt x="501" y="142" on="1"/>
        <pt x="501" y="159" on="0"/>
        <pt x="491" y="216" on="1"/>
        <pt x="467" y="211" on="0"/>
        <pt x="404" y="211" on="1"/>
        <pt x="338" y="211" on="0"/>
        <pt x="314" y="216" on="1"/>
        <pt x="304" y="167" on="0"/>
        <pt x="304" y="142" on="1"/>
        <pt x="304" y="131" on="0"/>
        <pt x="308" y="131" on="1"/>
        <pt x="308" y="135" on="0"/>
        <pt x="337" y="135" on="1"/>
        <pt x="348" y="135" on="0"/>
        <pt x="363" y="125" on="0"/>
        <pt x="363" y="119" on="1"/>
        <pt x="366" y="110" on="0"/>
        <pt x="366" y="91" on="1"/>
        <pt x="366" y="25" on="0"/>
        <pt x="344" y="11" on="1"/>
        <pt x="344" y="7" on="0"/>
        <pt x="232" y="0" on="0"/>
        <pt x="171" y="0" on="1"/>
        <pt x="28" y="0" on="0"/>
        <pt x="15" y="12" on="1"/>
        <pt x="4" y="16" on="0"/>
      </contour>
      <contour>
        <pt x="339" y="330" on="1"/>
        <pt x="367" y="334" on="0"/>
        <pt x="398" y="334" on="1"/>
        <pt x="435" y="334" on="0"/>
        <pt x="465" y="329" on="1"/>
        <pt x="435" y="450" on="0"/>
        <pt x="402" y="536" on="1"/>
        <pt x="369" y="451" on="0"/>
      </contour>
      <contour>
        <pt x="360" y="795" on="1"/>
        <pt x="401" y="899" on="0"/>
        <pt x="445" y="946" on="1"/>
        <pt x="463" y="948" on="0"/>
        <pt x="473" y="948" on="1"/>
        <pt x="517" y="948" on="0"/>
        <pt x="554" y="922" on="1"/>
        <pt x="513" y="852" on="0"/>
        <pt x="420" y="795" on="1"/>
        <pt x="396" y="787" on="0"/>
        <pt x="385" y="787" on="1"/>
        <pt x="371" y="787" on="0"/>
      </contour>
    </TTGlyph>
    <TTGlyph name="Acircumflex" xMin="4" yMin="0" xMax="801" yMax="949">
      <contour>
        <pt x="4" y="62" on="1"/>
        <pt x="4" y="133" on="0"/>
        <pt x="20" y="136" on="1"/>
        <pt x="20" y="144" on="0"/>
        <pt x="51" y="144" on="1"/>
        <pt x="77" y="144" on="0"/>
        <pt x="82" y="136" on="1"/>
        <pt x="89" y="180" on="0"/>
        <pt x="269" y="694" on="0"/>
        <pt x="279" y="695" on="1"/>
        <pt x="336" y="700" on="0"/>
        <pt x="416" y="700" on="1"/>
        <pt x="465" y="700" on="0"/>
        <pt x="526" y="695" on="1"/>
        <pt x="536" y="694" on="0"/>
        <pt x="716" y="181" on="0"/>
        <pt x="723" y="136" on="1"/>
        <pt x="731" y="144" on="0"/>
        <pt x="754" y="144" on="1"/>
        <pt x="785" y="144" on="0"/>
        <pt x="785" y="136" on="1"/>
        <pt x="801" y="133" on="0"/>
        <pt x="801" y="62" on="1"/>
        <pt x="801" y="16" on="0"/>
        <pt x="790" y="12" on="1"/>
        <pt x="777" y="0" on="0"/>
        <pt x="634" y="0" on="1"/>
        <pt x="573" y="0" on="0"/>
        <pt x="461" y="7" on="0"/>
        <pt x="461" y="11" on="1"/>
        <pt x="439" y="25" on="0"/>
        <pt x="439" y="91" on="1"/>
        <pt x="439" y="110" on="0"/>
        <pt x="442" y="119" on="1"/>
        <pt x="442" y="125" on="0"/>
        <pt x="457" y="135" on="0"/>
        <pt x="468" y="135" on="1"/>
        <pt x="497" y="135" on="0"/>
        <pt x="497" y="131" on="1"/>
        <pt x="501" y="131" on="0"/>
        <pt x="501" y="142" on="1"/>
        <pt x="501" y="159" on="0"/>
        <pt x="491" y="216" on="1"/>
        <pt x="467" y="211" on="0"/>
        <pt x="404" y="211" on="1"/>
        <pt x="338" y="211" on="0"/>
        <pt x="314" y="216" on="1"/>
        <pt x="304" y="167" on="0"/>
        <pt x="304" y="142" on="1"/>
        <pt x="304" y="131" on="0"/>
        <pt x="308" y="131" on="1"/>
        <pt x="308" y="135" on="0"/>
        <pt x="337" y="135" on="1"/>
        <pt x="348" y="135" on="0"/>
        <pt x="363" y="125" on="0"/>
        <pt x="363" y="119" on="1"/>
        <pt x="366" y="110" on="0"/>
        <pt x="366" y="91" on="1"/>
        <pt x="366" y="25" on="0"/>
        <pt x="344" y="11" on="1"/>
        <pt x="344" y="7" on="0"/>
        <pt x="232" y="0" on="0"/>
        <pt x="171" y="0" on="1"/>
        <pt x="28" y="0" on="0"/>
        <pt x="15" y="12" on="1"/>
        <pt x="4" y="16" on="0"/>
      </contour>
      <contour>
        <pt x="274" y="793" on="1"/>
        <pt x="277" y="798" on="0"/>
        <pt x="297" y="834" on="0"/>
        <pt x="305" y="848" on="0"/>
        <pt x="325" y="878" on="0"/>
        <pt x="339" y="897" on="0"/>
        <pt x="361" y="923" on="0"/>
        <pt x="373" y="934" on="1"/>
        <pt x="392" y="949" on="0"/>
        <pt x="412" y="949" on="1"/>
        <pt x="432" y="949" on="0"/>
        <pt x="457" y="934" on="1"/>
        <pt x="512" y="882" on="0"/>
        <pt x="556" y="793" on="1"/>
        <pt x="542" y="785" on="0"/>
        <pt x="516" y="785" on="0"/>
        <pt x="500" y="793" on="1"/>
        <pt x="442" y="823" on="0"/>
        <pt x="415" y="864" on="1"/>
        <pt x="374" y="813" on="0"/>
        <pt x="330" y="793" on="1"/>
        <pt x="315" y="787" on="0"/>
        <pt x="302" y="787" on="1"/>
        <pt x="288" y="787" on="0"/>
      </contour>
      <contour>
        <pt x="339" y="330" on="1"/>
        <pt x="367" y="334" on="0"/>
        <pt x="398" y="334" on="1"/>
        <pt x="435" y="334" on="0"/>
        <pt x="465" y="329" on="1"/>
        <pt x="435" y="450" on="0"/>
        <pt x="402" y="536" on="1"/>
        <pt x="369" y="451" on="0"/>
      </contour>
    </TTGlyph>
    <TTGlyph name="Adieresis" xMin="4" yMin="0" xMax="801" yMax="942">
      <contour>
        <pt x="4" y="62" on="1"/>
        <pt x="4" y="133" on="0"/>
        <pt x="20" y="136" on="1"/>
        <pt x="20" y="144" on="0"/>
        <pt x="51" y="144" on="1"/>
        <pt x="77" y="144" on="0"/>
        <pt x="82" y="136" on="1"/>
        <pt x="89" y="180" on="0"/>
        <pt x="269" y="694" on="0"/>
        <pt x="279" y="695" on="1"/>
        <pt x="336" y="700" on="0"/>
        <pt x="416" y="700" on="1"/>
        <pt x="465" y="700" on="0"/>
        <pt x="526" y="695" on="1"/>
        <pt x="536" y="694" on="0"/>
        <pt x="716" y="181" on="0"/>
        <pt x="723" y="136" on="1"/>
        <pt x="731" y="144" on="0"/>
        <pt x="754" y="144" on="1"/>
        <pt x="785" y="144" on="0"/>
        <pt x="785" y="136" on="1"/>
        <pt x="801" y="133" on="0"/>
        <pt x="801" y="62" on="1"/>
        <pt x="801" y="16" on="0"/>
        <pt x="790" y="12" on="1"/>
        <pt x="777" y="0" on="0"/>
        <pt x="634" y="0" on="1"/>
        <pt x="573" y="0" on="0"/>
        <pt x="461" y="7" on="0"/>
        <pt x="461" y="11" on="1"/>
        <pt x="439" y="25" on="0"/>
        <pt x="439" y="91" on="1"/>
        <pt x="439" y="110" on="0"/>
        <pt x="442" y="119" on="1"/>
        <pt x="442" y="125" on="0"/>
        <pt x="457" y="135" on="0"/>
        <pt x="468" y="135" on="1"/>
        <pt x="497" y="135" on="0"/>
        <pt x="497" y="131" on="1"/>
        <pt x="501" y="131" on="0"/>
        <pt x="501" y="142" on="1"/>
        <pt x="501" y="159" on="0"/>
        <pt x="491" y="216" on="1"/>
        <pt x="467" y="211" on="0"/>
        <pt x="404" y="211" on="1"/>
        <pt x="338" y="211" on="0"/>
        <pt x="314" y="216" on="1"/>
        <pt x="304" y="167" on="0"/>
        <pt x="304" y="142" on="1"/>
        <pt x="304" y="131" on="0"/>
        <pt x="308" y="131" on="1"/>
        <pt x="308" y="135" on="0"/>
        <pt x="337" y="135" on="1"/>
        <pt x="348" y="135" on="0"/>
        <pt x="363" y="125" on="0"/>
        <pt x="363" y="119" on="1"/>
        <pt x="366" y="110" on="0"/>
        <pt x="366" y="91" on="1"/>
        <pt x="366" y="25" on="0"/>
        <pt x="344" y="11" on="1"/>
        <pt x="344" y="7" on="0"/>
        <pt x="232" y="0" on="0"/>
        <pt x="171" y="0" on="1"/>
        <pt x="28" y="0" on="0"/>
        <pt x="15" y="12" on="1"/>
        <pt x="4" y="16" on="0"/>
      </contour>
      <contour>
        <pt x="261" y="870" on="1"/>
        <pt x="261" y="899" on="0"/>
        <pt x="279" y="925" on="1"/>
        <pt x="302" y="942" on="0"/>
        <pt x="352" y="942" on="0"/>
        <pt x="378" y="925" on="1"/>
        <pt x="395" y="898" on="0"/>
        <pt x="395" y="838" on="0"/>
        <pt x="378" y="806" on="1"/>
        <pt x="349" y="787" on="0"/>
        <pt x="301" y="787" on="0"/>
        <pt x="279" y="806" on="1"/>
        <pt x="261" y="840" on="0"/>
      </contour>
      <contour>
        <pt x="339" y="330" on="1"/>
        <pt x="367" y="334" on="0"/>
        <pt x="398" y="334" on="1"/>
        <pt x="435" y="334" on="0"/>
        <pt x="465" y="329" on="1"/>
        <pt x="435" y="450" on="0"/>
        <pt x="402" y="536" on="1"/>
        <pt x="369" y="451" on="0"/>
      </contour>
      <contour>
        <pt x="451" y="870" on="1"/>
        <pt x="451" y="899" on="0"/>
        <pt x="469" y="925" on="1"/>
        <pt x="492" y="942" on="0"/>
        <pt x="542" y="942" on="0"/>
        <pt x="568" y="925" on="1"/>
        <pt x="585" y="898" on="0"/>
        <pt x="585" y="838" on="0"/>
        <pt x="568" y="806" on="1"/>
        <pt x="539" y="787" on="0"/>
        <pt x="491" y="787" on="0"/>
        <pt x="469" y="806" on="1"/>
        <pt x="451" y="840" on="0"/>
      </contour>
    </TTGlyph>
    <TTGlyph name="Agrave" xMin="4" yMin="0" xMax="801" yMax="947">
      <contour>
        <pt x="4" y="62" on="1"/>
        <pt x="4" y="133" on="0"/>
        <pt x="20" y="136" on="1"/>
        <pt x="20" y="144" on="0"/>
        <pt x="51" y="144" on="1"/>
        <pt x="77" y="144" on="0"/>
        <pt x="82" y="136" on="1"/>
        <pt x="89" y="180" on="0"/>
        <pt x="269" y="694" on="0"/>
        <pt x="279" y="695" on="1"/>
        <pt x="336" y="700" on="0"/>
        <pt x="416" y="700" on="1"/>
        <pt x="465" y="700" on="0"/>
        <pt x="526" y="695" on="1"/>
        <pt x="536" y="694" on="0"/>
        <pt x="716" y="181" on="0"/>
        <pt x="723" y="136" on="1"/>
        <pt x="731" y="144" on="0"/>
        <pt x="754" y="144" on="1"/>
        <pt x="785" y="144" on="0"/>
        <pt x="785" y="136" on="1"/>
        <pt x="801" y="133" on="0"/>
        <pt x="801" y="62" on="1"/>
        <pt x="801" y="16" on="0"/>
        <pt x="790" y="12" on="1"/>
        <pt x="777" y="0" on="0"/>
        <pt x="634" y="0" on="1"/>
        <pt x="573" y="0" on="0"/>
        <pt x="461" y="7" on="0"/>
        <pt x="461" y="11" on="1"/>
        <pt x="439" y="25" on="0"/>
        <pt x="439" y="91" on="1"/>
        <pt x="439" y="110" on="0"/>
        <pt x="442" y="119" on="1"/>
        <pt x="442" y="125" on="0"/>
        <pt x="457" y="135" on="0"/>
        <pt x="468" y="135" on="1"/>
        <pt x="497" y="135" on="0"/>
        <pt x="497" y="131" on="1"/>
        <pt x="501" y="131" on="0"/>
        <pt x="501" y="142" on="1"/>
        <pt x="501" y="159" on="0"/>
        <pt x="491" y="216" on="1"/>
        <pt x="467" y="211" on="0"/>
        <pt x="404" y="211" on="1"/>
        <pt x="338" y="211" on="0"/>
        <pt x="314" y="216" on="1"/>
        <pt x="304" y="167" on="0"/>
        <pt x="304" y="142" on="1"/>
        <pt x="304" y="131" on="0"/>
        <pt x="308" y="131" on="1"/>
        <pt x="308" y="135" on="0"/>
        <pt x="337" y="135" on="1"/>
        <pt x="348" y="135" on="0"/>
        <pt x="363" y="125" on="0"/>
        <pt x="363" y="119" on="1"/>
        <pt x="366" y="110" on="0"/>
        <pt x="366" y="91" on="1"/>
        <pt x="366" y="25" on="0"/>
        <pt x="344" y="11" on="1"/>
        <pt x="344" y="7" on="0"/>
        <pt x="232" y="0" on="0"/>
        <pt x="171" y="0" on="1"/>
        <pt x="28" y="0" on="0"/>
        <pt x="15" y="12" on="1"/>
        <pt x="4" y="16" on="0"/>
      </contour>
      <contour>
        <pt x="223" y="921" on="1"/>
        <pt x="260" y="947" on="0"/>
        <pt x="304" y="947" on="1"/>
        <pt x="323" y="947" on="0"/>
        <pt x="331" y="945" on="1"/>
        <pt x="376" y="896" on="0"/>
        <pt x="417" y="794" on="1"/>
        <pt x="406" y="786" on="0"/>
        <pt x="392" y="786" on="1"/>
        <pt x="381" y="786" on="0"/>
        <pt x="357" y="794" on="1"/>
        <pt x="264" y="851" on="0"/>
      </contour>
      <contour>
        <pt x="339" y="330" on="1"/>
        <pt x="367" y="334" on="0"/>
        <pt x="398" y="334" on="1"/>
        <pt x="435" y="334" on="0"/>
        <pt x="465" y="329" on="1"/>
        <pt x="435" y="450" on="0"/>
        <pt x="402" y="536" on="1"/>
        <pt x="369" y="451" on="0"/>
      </contour>
    </TTGlyph>
    <TTGlyph name="Aring" xMin="4" yMin="0" xMax="801" yMax="926">
      <contour>
        <pt x="4" y="62" on="1"/>
        <pt x="4" y="133" on="0"/>
        <pt x="20" y="136" on="1"/>
        <pt x="20" y="144" on="0"/>
        <pt x="51" y="144" on="1"/>
        <pt x="77" y="144" on="0"/>
        <pt x="82" y="136" on="1"/>
        <pt x="89" y="180" on="0"/>
        <pt x="269" y="694" on="0"/>
        <pt x="279" y="695" on="1"/>
        <pt x="336" y="700" on="0"/>
        <pt x="416" y="700" on="1"/>
        <pt x="465" y="700" on="0"/>
        <pt x="526" y="695" on="1"/>
        <pt x="536" y="694" on="0"/>
        <pt x="716" y="181" on="0"/>
        <pt x="723" y="136" on="1"/>
        <pt x="731" y="144" on="0"/>
        <pt x="754" y="144" on="1"/>
        <pt x="785" y="144" on="0"/>
        <pt x="785" y="136" on="1"/>
        <pt x="801" y="133" on="0"/>
        <pt x="801" y="62" on="1"/>
        <pt x="801" y="16" on="0"/>
        <pt x="790" y="12" on="1"/>
        <pt x="777" y="0" on="0"/>
        <pt x="634" y="0" on="1"/>
        <pt x="573" y="0" on="0"/>
        <pt x="461" y="7" on="0"/>
        <pt x="461" y="11" on="1"/>
        <pt x="439" y="25" on="0"/>
        <pt x="439" y="91" on="1"/>
        <pt x="439" y="110" on="0"/>
        <pt x="442" y="119" on="1"/>
        <pt x="442" y="125" on="0"/>
        <pt x="457" y="135" on="0"/>
        <pt x="468" y="135" on="1"/>
        <pt x="497" y="135" on="0"/>
        <pt x="497" y="131" on="1"/>
        <pt x="501" y="131" on="0"/>
        <pt x="501" y="142" on="1"/>
        <pt x="501" y="159" on="0"/>
        <pt x="491" y="216" on="1"/>
        <pt x="467" y="211" on="0"/>
        <pt x="404" y="211" on="1"/>
        <pt x="338" y="211" on="0"/>
        <pt x="314" y="216" on="1"/>
        <pt x="304" y="167" on="0"/>
        <pt x="304" y="142" on="1"/>
        <pt x="304" y="131" on="0"/>
        <pt x="308" y="131" on="1"/>
        <pt x="308" y="135" on="0"/>
        <pt x="337" y="135" on="1"/>
        <pt x="348" y="135" on="0"/>
        <pt x="363" y="125" on="0"/>
        <pt x="363" y="119" on="1"/>
        <pt x="366" y="110" on="0"/>
        <pt x="366" y="91" on="1"/>
        <pt x="366" y="25" on="0"/>
        <pt x="344" y="11" on="1"/>
        <pt x="344" y="7" on="0"/>
        <pt x="232" y="0" on="0"/>
        <pt x="171" y="0" on="1"/>
        <pt x="28" y="0" on="0"/>
        <pt x="15" y="12" on="1"/>
        <pt x="4" y="16" on="0"/>
      </contour>
      <contour>
        <pt x="273" y="775" on="1"/>
        <pt x="273" y="830" on="0"/>
        <pt x="357" y="926" on="0"/>
        <pt x="418" y="926" on="1"/>
        <pt x="468" y="926" on="0"/>
        <pt x="522" y="857" on="0"/>
        <pt x="522" y="807" on="1"/>
        <pt x="522" y="744" on="0"/>
        <pt x="442" y="674" on="0"/>
        <pt x="383" y="674" on="1"/>
        <pt x="329" y="674" on="0"/>
        <pt x="273" y="732" on="0"/>
      </contour>
      <contour>
        <pt x="339" y="330" on="1"/>
        <pt x="367" y="334" on="0"/>
        <pt x="398" y="334" on="1"/>
        <pt x="435" y="334" on="0"/>
        <pt x="465" y="329" on="1"/>
        <pt x="435" y="450" on="0"/>
        <pt x="402" y="536" on="1"/>
        <pt x="369" y="451" on="0"/>
      </contour>
      <contour>
        <pt x="339" y="781" on="1"/>
        <pt x="339" y="757" on="0"/>
        <pt x="369" y="722" on="0"/>
        <pt x="393" y="722" on="1"/>
        <pt x="424" y="722" on="0"/>
        <pt x="479" y="779" on="0"/>
        <pt x="479" y="814" on="1"/>
        <pt x="479" y="840" on="0"/>
        <pt x="448" y="876" on="0"/>
        <pt x="423" y="876" on="1"/>
        <pt x="389" y="876" on="0"/>
        <pt x="339" y="814" on="0"/>
      </contour>
    </TTGlyph>
    <TTGlyph name="Atilde" xMin="4" yMin="0" xMax="801" yMax="944">
      <contour>
        <pt x="4" y="62" on="1"/>
        <pt x="4" y="133" on="0"/>
        <pt x="20" y="136" on="1"/>
        <pt x="20" y="144" on="0"/>
        <pt x="51" y="144" on="1"/>
        <pt x="77" y="144" on="0"/>
        <pt x="82" y="136" on="1"/>
        <pt x="89" y="180" on="0"/>
        <pt x="269" y="694" on="0"/>
        <pt x="279" y="695" on="1"/>
        <pt x="336" y="700" on="0"/>
        <pt x="416" y="700" on="1"/>
        <pt x="465" y="700" on="0"/>
        <pt x="526" y="695" on="1"/>
        <pt x="536" y="694" on="0"/>
        <pt x="716" y="181" on="0"/>
        <pt x="723" y="136" on="1"/>
        <pt x="731" y="144" on="0"/>
        <pt x="754" y="144" on="1"/>
        <pt x="785" y="144" on="0"/>
        <pt x="785" y="136" on="1"/>
        <pt x="801" y="133" on="0"/>
        <pt x="801" y="62" on="1"/>
        <pt x="801" y="16" on="0"/>
        <pt x="790" y="12" on="1"/>
        <pt x="777" y="0" on="0"/>
        <pt x="634" y="0" on="1"/>
        <pt x="573" y="0" on="0"/>
        <pt x="461" y="7" on="0"/>
        <pt x="461" y="11" on="1"/>
        <pt x="439" y="25" on="0"/>
        <pt x="439" y="91" on="1"/>
        <pt x="439" y="110" on="0"/>
        <pt x="442" y="119" on="1"/>
        <pt x="442" y="125" on="0"/>
        <pt x="457" y="135" on="0"/>
        <pt x="468" y="135" on="1"/>
        <pt x="497" y="135" on="0"/>
        <pt x="497" y="131" on="1"/>
        <pt x="501" y="131" on="0"/>
        <pt x="501" y="142" on="1"/>
        <pt x="501" y="159" on="0"/>
        <pt x="491" y="216" on="1"/>
        <pt x="467" y="211" on="0"/>
        <pt x="404" y="211" on="1"/>
        <pt x="338" y="211" on="0"/>
        <pt x="314" y="216" on="1"/>
        <pt x="304" y="167" on="0"/>
        <pt x="304" y="142" on="1"/>
        <pt x="304" y="131" on="0"/>
        <pt x="308" y="131" on="1"/>
        <pt x="308" y="135" on="0"/>
        <pt x="337" y="135" on="1"/>
        <pt x="348" y="135" on="0"/>
        <pt x="363" y="125" on="0"/>
        <pt x="363" y="119" on="1"/>
        <pt x="366" y="110" on="0"/>
        <pt x="366" y="91" on="1"/>
        <pt x="366" y="25" on="0"/>
        <pt x="344" y="11" on="1"/>
        <pt x="344" y="7" on="0"/>
        <pt x="232" y="0" on="0"/>
        <pt x="171" y="0" on="1"/>
        <pt x="28" y="0" on="0"/>
        <pt x="15" y="12" on="1"/>
        <pt x="4" y="16" on="0"/>
      </contour>
      <contour>
        <pt x="211" y="824" on="1"/>
        <pt x="220" y="889" on="0"/>
        <pt x="261" y="938" on="0"/>
        <pt x="304" y="938" on="1"/>
        <pt x="343" y="938" on="0"/>
        <pt x="439" y="890" on="0"/>
        <pt x="471" y="890" on="1"/>
        <pt x="490" y="890" on="0"/>
        <pt x="504" y="908" on="0"/>
        <pt x="512" y="942" on="1"/>
        <pt x="515" y="944" on="0"/>
        <pt x="523" y="944" on="1"/>
        <pt x="539" y="944" on="0"/>
        <pt x="578" y="915" on="0"/>
        <pt x="590" y="899" on="1"/>
        <pt x="581" y="834" on="0"/>
        <pt x="539" y="785" on="0"/>
        <pt x="498" y="785" on="1"/>
        <pt x="462" y="785" on="0"/>
        <pt x="363" y="833" on="0"/>
        <pt x="327" y="833" on="1"/>
        <pt x="310" y="833" on="0"/>
        <pt x="296" y="816" on="0"/>
        <pt x="289" y="782" on="1"/>
        <pt x="281" y="777" on="0"/>
        <pt x="273" y="777" on="1"/>
        <pt x="257" y="777" on="0"/>
        <pt x="219" y="805" on="0"/>
      </contour>
      <contour>
        <pt x="339" y="330" on="1"/>
        <pt x="367" y="334" on="0"/>
        <pt x="398" y="334" on="1"/>
        <pt x="435" y="334" on="0"/>
        <pt x="465" y="329" on="1"/>
        <pt x="435" y="450" on="0"/>
        <pt x="402" y="536" on="1"/>
        <pt x="369" y="451" on="0"/>
      </contour>
    </TTGlyph>
    <TTGlyph name="B" xMin="38" yMin="-10" xMax="606" yMax="707">
      <contour>
        <pt x="38" y="66" on="1"/>
        <pt x="38" y="92" on="0"/>
        <pt x="45" y="116" on="1"/>
        <pt x="54" y="131" on="0"/>
        <pt x="87" y="131" on="1"/>
        <pt x="92" y="131" on="0"/>
        <pt x="102" y="129" on="1"/>
        <pt x="94" y="222" on="0"/>
        <pt x="94" y="306" on="1"/>
        <pt x="94" y="458" on="0"/>
        <pt x="107" y="559" on="1"/>
        <pt x="85" y="559" on="0"/>
        <pt x="52" y="564" on="1"/>
        <pt x="46" y="572" on="0"/>
        <pt x="46" y="676" on="0"/>
        <pt x="49" y="683" on="1"/>
        <pt x="53" y="691" on="0"/>
        <pt x="112" y="706" on="0"/>
        <pt x="155" y="706" on="1"/>
        <pt x="227" y="706" on="0"/>
        <pt x="239" y="704" on="1"/>
        <pt x="243" y="691" on="0"/>
        <pt x="243" y="664" on="1"/>
        <pt x="271" y="681" on="0"/>
        <pt x="361" y="707" on="0"/>
        <pt x="396" y="707" on="1"/>
        <pt x="473" y="707" on="0"/>
        <pt x="577" y="582" on="0"/>
        <pt x="577" y="503" on="1"/>
        <pt x="577" y="410" on="0"/>
        <pt x="504" y="344" on="1"/>
        <pt x="606" y="286" on="0"/>
        <pt x="606" y="178" on="1"/>
        <pt x="606" y="102" on="0"/>
        <pt x="502" y="-10" on="0"/>
        <pt x="417" y="-10" on="1"/>
        <pt x="345" y="-10" on="0"/>
        <pt x="300" y="31" on="1"/>
        <pt x="300" y="9" on="0"/>
        <pt x="292" y="3" on="1"/>
        <pt x="235" y="-9" on="0"/>
        <pt x="157" y="-9" on="1"/>
        <pt x="103" y="-9" on="0"/>
        <pt x="45" y="6" on="1"/>
        <pt x="38" y="39" on="0"/>
      </contour>
      <contour>
        <pt x="277" y="231" on="1"/>
        <pt x="277" y="192" on="0"/>
        <pt x="337" y="130" on="0"/>
        <pt x="371" y="130" on="1"/>
        <pt x="397" y="130" on="0"/>
        <pt x="425" y="165" on="0"/>
        <pt x="425" y="191" on="1"/>
        <pt x="425" y="228" on="0"/>
        <pt x="372" y="294" on="0"/>
        <pt x="336" y="294" on="1"/>
        <pt x="311" y="294" on="0"/>
        <pt x="277" y="260" on="0"/>
      </contour>
      <contour>
        <pt x="280" y="520" on="1"/>
        <pt x="280" y="484" on="0"/>
        <pt x="335" y="426" on="0"/>
        <pt x="368" y="426" on="1"/>
        <pt x="392" y="426" on="0"/>
        <pt x="425" y="458" on="0"/>
        <pt x="425" y="484" on="1"/>
        <pt x="425" y="519" on="0"/>
        <pt x="374" y="582" on="0"/>
        <pt x="339" y="582" on="1"/>
        <pt x="314" y="582" on="0"/>
        <pt x="280" y="547" on="0"/>
      </contour>
    </TTGlyph>
    <TTGlyph name="C" xMin="31" yMin="-16" xMax="626" yMax="711">
      <contour>
        <pt x="31" y="344" on="1"/>
        <pt x="31" y="497" on="0"/>
        <pt x="188" y="707" on="0"/>
        <pt x="318" y="707" on="1"/>
        <pt x="413" y="707" on="0"/>
        <pt x="458" y="663" on="1"/>
        <pt x="460" y="693" on="0"/>
        <pt x="479" y="700" on="1"/>
        <pt x="504" y="711" on="0"/>
        <pt x="540" y="711" on="1"/>
        <pt x="587" y="711" on="0"/>
        <pt x="614" y="691" on="1"/>
        <pt x="626" y="621" on="0"/>
        <pt x="626" y="573" on="1"/>
        <pt x="626" y="487" on="0"/>
        <pt x="590" y="435" on="1"/>
        <pt x="537" y="415" on="0"/>
        <pt x="497" y="415" on="1"/>
        <pt x="459" y="415" on="0"/>
        <pt x="416" y="435" on="1"/>
        <pt x="415" y="437" on="0"/>
        <pt x="415" y="444" on="1"/>
        <pt x="415" y="456" on="0"/>
        <pt x="418" y="460" on="1"/>
        <pt x="418" y="498" on="0"/>
        <pt x="354" y="543" on="0"/>
        <pt x="326" y="543" on="1"/>
        <pt x="285" y="543" on="0"/>
        <pt x="227" y="417" on="0"/>
        <pt x="227" y="341" on="1"/>
        <pt x="227" y="269" on="0"/>
        <pt x="283" y="188" on="0"/>
        <pt x="325" y="188" on="1"/>
        <pt x="373" y="188" on="0"/>
        <pt x="416" y="241" on="1"/>
        <pt x="413" y="259" on="0"/>
        <pt x="413" y="263" on="0"/>
        <pt x="414" y="267" on="0"/>
        <pt x="414" y="268" on="1"/>
        <pt x="451" y="285" on="0"/>
        <pt x="494" y="285" on="1"/>
        <pt x="539" y="285" on="0"/>
        <pt x="591" y="265" on="1"/>
        <pt x="626" y="212" on="0"/>
        <pt x="626" y="128" on="1"/>
        <pt x="626" y="81" on="0"/>
        <pt x="614" y="9" on="1"/>
        <pt x="583" y="-16" on="0"/>
        <pt x="534" y="-16" on="1"/>
        <pt x="498" y="-16" on="0"/>
        <pt x="479" y="0" on="1"/>
        <pt x="458" y="8" on="0"/>
        <pt x="458" y="39" on="1"/>
        <pt x="392" y="-6" on="0"/>
        <pt x="324" y="-6" on="1"/>
        <pt x="271" y="-6" on="0"/>
        <pt x="169" y="38" on="0"/>
        <pt x="83" y="122" on="0"/>
        <pt x="31" y="259" on="0"/>
      </contour>
    </TTGlyph>
    <TTGlyph name="Ccedilla" xMin="31" yMin="-249" xMax="626" yMax="711">
      <contour>
        <pt x="31" y="344" on="1"/>
        <pt x="31" y="497" on="0"/>
        <pt x="188" y="707" on="0"/>
        <pt x="318" y="707" on="1"/>
        <pt x="413" y="707" on="0"/>
        <pt x="458" y="663" on="1"/>
        <pt x="460" y="693" on="0"/>
        <pt x="479" y="700" on="1"/>
        <pt x="504" y="711" on="0"/>
        <pt x="540" y="711" on="1"/>
        <pt x="587" y="711" on="0"/>
        <pt x="614" y="691" on="1"/>
        <pt x="626" y="621" on="0"/>
        <pt x="626" y="573" on="1"/>
        <pt x="626" y="487" on="0"/>
        <pt x="590" y="435" on="1"/>
        <pt x="537" y="415" on="0"/>
        <pt x="497" y="415" on="1"/>
        <pt x="459" y="415" on="0"/>
        <pt x="416" y="435" on="1"/>
        <pt x="415" y="437" on="0"/>
        <pt x="415" y="444" on="1"/>
        <pt x="415" y="456" on="0"/>
        <pt x="418" y="460" on="1"/>
        <pt x="418" y="498" on="0"/>
        <pt x="354" y="543" on="0"/>
        <pt x="326" y="543" on="1"/>
        <pt x="285" y="543" on="0"/>
        <pt x="227" y="417" on="0"/>
        <pt x="227" y="341" on="1"/>
        <pt x="227" y="269" on="0"/>
        <pt x="283" y="188" on="0"/>
        <pt x="325" y="188" on="1"/>
        <pt x="373" y="188" on="0"/>
        <pt x="416" y="241" on="1"/>
        <pt x="413" y="259" on="0"/>
        <pt x="413" y="263" on="0"/>
        <pt x="414" y="267" on="0"/>
        <pt x="414" y="268" on="1"/>
        <pt x="451" y="285" on="0"/>
        <pt x="494" y="285" on="1"/>
        <pt x="539" y="285" on="0"/>
        <pt x="591" y="265" on="1"/>
        <pt x="626" y="212" on="0"/>
        <pt x="626" y="128" on="1"/>
        <pt x="626" y="81" on="0"/>
        <pt x="614" y="9" on="1"/>
        <pt x="583" y="-16" on="0"/>
        <pt x="534" y="-16" on="1"/>
        <pt x="498" y="-16" on="0"/>
        <pt x="479" y="0" on="1"/>
        <pt x="458" y="8" on="0"/>
        <pt x="458" y="39" on="1"/>
        <pt x="392" y="-6" on="0"/>
        <pt x="324" y="-6" on="1"/>
        <pt x="271" y="-6" on="0"/>
        <pt x="169" y="38" on="0"/>
        <pt x="83" y="122" on="0"/>
        <pt x="31" y="259" on="0"/>
      </contour>
      <contour>
        <pt x="255" y="-202" on="1"/>
        <pt x="255" y="-172" on="0"/>
        <pt x="265" y="-156" on="1"/>
        <pt x="277" y="-153" on="0"/>
        <pt x="289" y="-153" on="1"/>
        <pt x="300" y="-153" on="0"/>
        <pt x="312" y="-156" on="1"/>
        <pt x="313" y="-158" on="0"/>
        <pt x="313" y="-159" on="1"/>
        <pt x="313" y="-162" on="0"/>
        <pt x="312" y="-164" on="1"/>
        <pt x="334" y="-177" on="0"/>
        <pt x="356" y="-177" on="1"/>
        <pt x="392" y="-177" on="0"/>
        <pt x="392" y="-136" on="1"/>
        <pt x="392" y="-117" on="0"/>
        <pt x="375" y="-85" on="0"/>
        <pt x="355" y="-85" on="0"/>
        <pt x="342" y="-105" on="1"/>
        <pt x="343" y="-106" on="0"/>
        <pt x="343" y="-108" on="1"/>
        <pt x="343" y="-111" on="0"/>
        <pt x="342" y="-112" on="1"/>
        <pt x="332" y="-117" on="0"/>
        <pt x="321" y="-117" on="1"/>
        <pt x="307" y="-117" on="0"/>
        <pt x="295" y="-112" on="1"/>
        <pt x="286" y="-98" on="0"/>
        <pt x="286" y="-66" on="1"/>
        <pt x="286" y="-26" on="0"/>
        <pt x="290" y="6" on="1"/>
        <pt x="293" y="9" on="0"/>
        <pt x="332" y="9" on="1"/>
        <pt x="334" y="9" on="0"/>
        <pt x="336" y="-18" on="0"/>
        <pt x="337" y="-44" on="0"/>
        <pt x="338" y="-44" on="1"/>
        <pt x="365" y="-21" on="0"/>
        <pt x="393" y="-21" on="1"/>
        <pt x="429" y="-21" on="0"/>
        <pt x="471" y="-86" on="0"/>
        <pt x="471" y="-130" on="1"/>
        <pt x="471" y="-178" on="0"/>
        <pt x="422" y="-249" on="0"/>
        <pt x="378" y="-249" on="1"/>
        <pt x="344" y="-249" on="0"/>
        <pt x="308" y="-225" on="1"/>
        <pt x="308" y="-246" on="0"/>
        <pt x="302" y="-248" on="1"/>
        <pt x="298" y="-248" on="0"/>
        <pt x="284" y="-249" on="0"/>
        <pt x="281" y="-249" on="1"/>
        <pt x="270" y="-249" on="0"/>
        <pt x="260" y="-246" on="1"/>
        <pt x="255" y="-224" on="0"/>
      </contour>
    </TTGlyph>
    <TTGlyph name="D" xMin="38" yMin="-10" xMax="664" yMax="701">
      <contour>
        <pt x="38" y="583" on="1"/>
        <pt x="38" y="644" on="0"/>
        <pt x="51" y="647" on="1"/>
        <pt x="146" y="701" on="0"/>
        <pt x="261" y="701" on="1"/>
        <pt x="366" y="701" on="0"/>
        <pt x="523" y="645" on="0"/>
        <pt x="618" y="541" on="0"/>
        <pt x="664" y="406" on="0"/>
        <pt x="664" y="322" on="1"/>
        <pt x="664" y="156" on="0"/>
        <pt x="480" y="-10" on="0"/>
        <pt x="282" y="-10" on="1"/>
        <pt x="165" y="-10" on="0"/>
        <pt x="58" y="32" on="1"/>
        <pt x="44" y="62" on="0"/>
        <pt x="44" y="120" on="1"/>
        <pt x="44" y="171" on="0"/>
        <pt x="51" y="184" on="1"/>
        <pt x="54" y="199" on="0"/>
        <pt x="93" y="199" on="1"/>
        <pt x="104" y="199" on="0"/>
        <pt x="118" y="197" on="1"/>
        <pt x="108" y="267" on="0"/>
        <pt x="108" y="343" on="1"/>
        <pt x="108" y="406" on="0"/>
        <pt x="120" y="493" on="1"/>
        <pt x="110" y="490" on="0"/>
        <pt x="93" y="490" on="1"/>
        <pt x="54" y="490" on="0"/>
        <pt x="51" y="505" on="1"/>
        <pt x="47" y="512" on="0"/>
        <pt x="38" y="566" on="0"/>
      </contour>
      <contour>
        <pt x="291" y="183" on="1"/>
        <pt x="316" y="177" on="0"/>
        <pt x="341" y="177" on="1"/>
        <pt x="402" y="177" on="0"/>
        <pt x="478" y="254" on="0"/>
        <pt x="478" y="331" on="1"/>
        <pt x="478" y="410" on="0"/>
        <pt x="401" y="533" on="0"/>
        <pt x="334" y="533" on="1"/>
        <pt x="312" y="533" on="0"/>
        <pt x="291" y="526" on="1"/>
        <pt x="300" y="436" on="0"/>
        <pt x="300" y="351" on="1"/>
        <pt x="300" y="264" on="0"/>
      </contour>
    </TTGlyph>
    <TTGlyph name="E" xMin="45" yMin="-13" xMax="641" yMax="712">
      <contour>
        <pt x="45" y="71" on="1"/>
        <pt x="45" y="149" on="0"/>
        <pt x="72" y="163" on="1"/>
        <pt x="86" y="172" on="0"/>
        <pt x="100" y="172" on="1"/>
        <pt x="103" y="172" on="0"/>
        <pt x="105" y="171" on="1"/>
        <pt x="93" y="260" on="0"/>
        <pt x="93" y="342" on="1"/>
        <pt x="93" y="447" on="0"/>
        <pt x="114" y="534" on="1"/>
        <pt x="104" y="532" on="0"/>
        <pt x="100" y="532" on="1"/>
        <pt x="86" y="532" on="0"/>
        <pt x="72" y="541" on="1"/>
        <pt x="45" y="555" on="0"/>
        <pt x="45" y="633" on="1"/>
        <pt x="45" y="668" on="0"/>
        <pt x="54" y="680" on="1"/>
        <pt x="86" y="695" on="0"/>
        <pt x="256" y="712" on="0"/>
        <pt x="335" y="712" on="1"/>
        <pt x="519" y="712" on="0"/>
        <pt x="631" y="674" on="1"/>
        <pt x="641" y="644" on="0"/>
        <pt x="641" y="588" on="1"/>
        <pt x="641" y="546" on="0"/>
        <pt x="618" y="470" on="1"/>
        <pt x="594" y="464" on="0"/>
        <pt x="571" y="464" on="1"/>
        <pt x="513" y="464" on="0"/>
        <pt x="463" y="497" on="1"/>
        <pt x="466" y="530" on="1"/>
        <pt x="446" y="543" on="0"/>
        <pt x="392" y="543" on="1"/>
        <pt x="331" y="543" on="0"/>
        <pt x="327" y="534" on="1"/>
        <pt x="331" y="498" on="0"/>
        <pt x="331" y="481" on="1"/>
        <pt x="331" y="442" on="0"/>
        <pt x="318" y="409" on="1"/>
        <pt x="356" y="409" on="0"/>
        <pt x="357" y="412" on="1"/>
        <pt x="356" y="415" on="0"/>
        <pt x="356" y="421" on="1"/>
        <pt x="356" y="432" on="0"/>
        <pt x="365" y="448" on="1"/>
        <pt x="371" y="453" on="0"/>
        <pt x="398" y="453" on="1"/>
        <pt x="440" y="453" on="0"/>
        <pt x="456" y="446" on="1"/>
        <pt x="476" y="413" on="0"/>
        <pt x="476" y="351" on="1"/>
        <pt x="476" y="295" on="0"/>
        <pt x="455" y="274" on="1"/>
        <pt x="447" y="267" on="0"/>
        <pt x="369" y="267" on="0"/>
        <pt x="363" y="274" on="1"/>
        <pt x="354" y="286" on="0"/>
        <pt x="354" y="304" on="1"/>
        <pt x="313" y="299" on="1"/>
        <pt x="313" y="290" on="0"/>
        <pt x="302" y="185" on="1"/>
        <pt x="337" y="156" on="0"/>
        <pt x="388" y="156" on="1"/>
        <pt x="432" y="156" on="0"/>
        <pt x="466" y="174" on="1"/>
        <pt x="463" y="207" on="1"/>
        <pt x="513" y="240" on="0"/>
        <pt x="571" y="240" on="1"/>
        <pt x="594" y="240" on="0"/>
        <pt x="618" y="234" on="1"/>
        <pt x="641" y="158" on="0"/>
        <pt x="641" y="116" on="1"/>
        <pt x="641" y="60" on="0"/>
        <pt x="631" y="30" on="1"/>
        <pt x="556" y="-13" on="0"/>
        <pt x="359" y="-13" on="1"/>
        <pt x="263" y="-13" on="0"/>
        <pt x="89" y="8" on="0"/>
        <pt x="54" y="24" on="1"/>
        <pt x="45" y="36" on="0"/>
      </contour>
    </TTGlyph>
    <TTGlyph name="Eacute" xMin="45" yMin="-13" xMax="641" yMax="948">
      <contour>
        <pt x="45" y="71" on="1"/>
        <pt x="45" y="149" on="0"/>
        <pt x="72" y="163" on="1"/>
        <pt x="86" y="172" on="0"/>
        <pt x="100" y="172" on="1"/>
        <pt x="103" y="172" on="0"/>
        <pt x="105" y="171" on="1"/>
        <pt x="93" y="260" on="0"/>
        <pt x="93" y="342" on="1"/>
        <pt x="93" y="447" on="0"/>
        <pt x="114" y="534" on="1"/>
        <pt x="104" y="532" on="0"/>
        <pt x="100" y="532" on="1"/>
        <pt x="86" y="532" on="0"/>
        <pt x="72" y="541" on="1"/>
        <pt x="45" y="555" on="0"/>
        <pt x="45" y="633" on="1"/>
        <pt x="45" y="668" on="0"/>
        <pt x="54" y="680" on="1"/>
        <pt x="86" y="695" on="0"/>
        <pt x="256" y="712" on="0"/>
        <pt x="335" y="712" on="1"/>
        <pt x="519" y="712" on="0"/>
        <pt x="631" y="674" on="1"/>
        <pt x="641" y="644" on="0"/>
        <pt x="641" y="588" on="1"/>
        <pt x="641" y="546" on="0"/>
        <pt x="618" y="470" on="1"/>
        <pt x="594" y="464" on="0"/>
        <pt x="571" y="464" on="1"/>
        <pt x="513" y="464" on="0"/>
        <pt x="463" y="497" on="1"/>
        <pt x="466" y="530" on="1"/>
        <pt x="446" y="543" on="0"/>
        <pt x="392" y="543" on="1"/>
        <pt x="331" y="543" on="0"/>
        <pt x="327" y="534" on="1"/>
        <pt x="331" y="498" on="0"/>
        <pt x="331" y="481" on="1"/>
        <pt x="331" y="442" on="0"/>
        <pt x="318" y="409" on="1"/>
        <pt x="356" y="409" on="0"/>
        <pt x="357" y="412" on="1"/>
        <pt x="356" y="415" on="0"/>
        <pt x="356" y="421" on="1"/>
        <pt x="356" y="432" on="0"/>
        <pt x="365" y="448" on="1"/>
        <pt x="371" y="453" on="0"/>
        <pt x="398" y="453" on="1"/>
        <pt x="440" y="453" on="0"/>
        <pt x="456" y="446" on="1"/>
        <pt x="476" y="413" on="0"/>
        <pt x="476" y="351" on="1"/>
        <pt x="476" y="295" on="0"/>
        <pt x="455" y="274" on="1"/>
        <pt x="447" y="267" on="0"/>
        <pt x="369" y="267" on="0"/>
        <pt x="363" y="274" on="1"/>
        <pt x="354" y="286" on="0"/>
        <pt x="354" y="304" on="1"/>
        <pt x="313" y="299" on="1"/>
        <pt x="313" y="290" on="0"/>
        <pt x="302" y="185" on="1"/>
        <pt x="337" y="156" on="0"/>
        <pt x="388" y="156" on="1"/>
        <pt x="432" y="156" on="0"/>
        <pt x="466" y="174" on="1"/>
        <pt x="463" y="207" on="1"/>
        <pt x="513" y="240" on="0"/>
        <pt x="571" y="240" on="1"/>
        <pt x="594" y="240" on="0"/>
        <pt x="618" y="234" on="1"/>
        <pt x="641" y="158" on="0"/>
        <pt x="641" y="116" on="1"/>
        <pt x="641" y="60" on="0"/>
        <pt x="631" y="30" on="1"/>
        <pt x="556" y="-13" on="0"/>
        <pt x="359" y="-13" on="1"/>
        <pt x="263" y="-13" on="0"/>
        <pt x="89" y="8" on="0"/>
        <pt x="54" y="24" on="1"/>
        <pt x="45" y="36" on="0"/>
      </contour>
      <contour>
        <pt x="299" y="795" on="1"/>
        <pt x="340" y="899" on="0"/>
        <pt x="384" y="946" on="1"/>
        <pt x="402" y="948" on="0"/>
        <pt x="412" y="948" on="1"/>
        <pt x="456" y="948" on="0"/>
        <pt x="493" y="922" on="1"/>
        <pt x="452" y="852" on="0"/>
        <pt x="359" y="795" on="1"/>
        <pt x="335" y="787" on="0"/>
        <pt x="324" y="787" on="1"/>
        <pt x="310" y="787" on="0"/>
      </contour>
    </TTGlyph>
    <TTGlyph name="Ecircumflex" xMin="45" yMin="-13" xMax="641" yMax="949">
      <contour>
        <pt x="45" y="71" on="1"/>
        <pt x="45" y="149" on="0"/>
        <pt x="72" y="163" on="1"/>
        <pt x="86" y="172" on="0"/>
        <pt x="100" y="172" on="1"/>
        <pt x="103" y="172" on="0"/>
        <pt x="105" y="171" on="1"/>
        <pt x="93" y="260" on="0"/>
        <pt x="93" y="342" on="1"/>
        <pt x="93" y="447" on="0"/>
        <pt x="114" y="534" on="1"/>
        <pt x="104" y="532" on="0"/>
        <pt x="100" y="532" on="1"/>
        <pt x="86" y="532" on="0"/>
        <pt x="72" y="541" on="1"/>
        <pt x="45" y="555" on="0"/>
        <pt x="45" y="633" on="1"/>
        <pt x="45" y="668" on="0"/>
        <pt x="54" y="680" on="1"/>
        <pt x="86" y="695" on="0"/>
        <pt x="256" y="712" on="0"/>
        <pt x="335" y="712" on="1"/>
        <pt x="519" y="712" on="0"/>
        <pt x="631" y="674" on="1"/>
        <pt x="641" y="644" on="0"/>
        <pt x="641" y="588" on="1"/>
        <pt x="641" y="546" on="0"/>
        <pt x="618" y="470" on="1"/>
        <pt x="594" y="464" on="0"/>
        <pt x="571" y="464" on="1"/>
        <pt x="513" y="464" on="0"/>
        <pt x="463" y="497" on="1"/>
        <pt x="466" y="530" on="1"/>
        <pt x="446" y="543" on="0"/>
        <pt x="392" y="543" on="1"/>
        <pt x="331" y="543" on="0"/>
        <pt x="327" y="534" on="1"/>
        <pt x="331" y="498" on="0"/>
        <pt x="331" y="481" on="1"/>
        <pt x="331" y="442" on="0"/>
        <pt x="318" y="409" on="1"/>
        <pt x="356" y="409" on="0"/>
        <pt x="357" y="412" on="1"/>
        <pt x="356" y="415" on="0"/>
        <pt x="356" y="421" on="1"/>
        <pt x="356" y="432" on="0"/>
        <pt x="365" y="448" on="1"/>
        <pt x="371" y="453" on="0"/>
        <pt x="398" y="453" on="1"/>
        <pt x="440" y="453" on="0"/>
        <pt x="456" y="446" on="1"/>
        <pt x="476" y="413" on="0"/>
        <pt x="476" y="351" on="1"/>
        <pt x="476" y="295" on="0"/>
        <pt x="455" y="274" on="1"/>
        <pt x="447" y="267" on="0"/>
        <pt x="369" y="267" on="0"/>
        <pt x="363" y="274" on="1"/>
        <pt x="354" y="286" on="0"/>
        <pt x="354" y="304" on="1"/>
        <pt x="313" y="299" on="1"/>
        <pt x="313" y="290" on="0"/>
        <pt x="302" y="185" on="1"/>
        <pt x="337" y="156" on="0"/>
        <pt x="388" y="156" on="1"/>
        <pt x="432" y="156" on="0"/>
        <pt x="466" y="174" on="1"/>
        <pt x="463" y="207" on="1"/>
        <pt x="513" y="240" on="0"/>
        <pt x="571" y="240" on="1"/>
        <pt x="594" y="240" on="0"/>
        <pt x="618" y="234" on="1"/>
        <pt x="641" y="158" on="0"/>
        <pt x="641" y="116" on="1"/>
        <pt x="641" y="60" on="0"/>
        <pt x="631" y="30" on="1"/>
        <pt x="556" y="-13" on="0"/>
        <pt x="359" y="-13" on="1"/>
        <pt x="263" y="-13" on="0"/>
        <pt x="89" y="8" on="0"/>
        <pt x="54" y="24" on="1"/>
        <pt x="45" y="36" on="0"/>
      </contour>
      <contour>
        <pt x="208" y="793" on="1"/>
        <pt x="211" y="798" on="0"/>
        <pt x="231" y="834" on="0"/>
        <pt x="239" y="848" on="0"/>
        <pt x="259" y="878" on="0"/>
        <pt x="273" y="897" on="0"/>
        <pt x="295" y="923" on="0"/>
        <pt x="307" y="934" on="1"/>
        <pt x="326" y="949" on="0"/>
        <pt x="346" y="949" on="1"/>
        <pt x="366" y="949" on="0"/>
        <pt x="391" y="934" on="1"/>
        <pt x="446" y="882" on="0"/>
        <pt x="490" y="793" on="1"/>
        <pt x="476" y="785" on="0"/>
        <pt x="450" y="785" on="0"/>
        <pt x="434" y="793" on="1"/>
        <pt x="376" y="823" on="0"/>
        <pt x="349" y="864" on="1"/>
        <pt x="308" y="813" on="0"/>
        <pt x="264" y="793" on="1"/>
        <pt x="249" y="787" on="0"/>
        <pt x="236" y="787" on="1"/>
        <pt x="222" y="787" on="0"/>
      </contour>
    </TTGlyph>
    <TTGlyph name="Edieresis" xMin="42" yMin="-13" xMax="638" yMax="943">
      <contour>
        <pt x="42" y="57" on="1"/>
        <pt x="42" y="149" on="0"/>
        <pt x="69" y="163" on="1"/>
        <pt x="82" y="172" on="0"/>
        <pt x="97" y="172" on="1"/>
        <pt x="100" y="172" on="0"/>
        <pt x="102" y="171" on="1"/>
        <pt x="99" y="222" on="0"/>
        <pt x="99" y="272" on="1"/>
        <pt x="99" y="360" on="0"/>
        <pt x="111" y="534" on="1"/>
        <pt x="101" y="532" on="0"/>
        <pt x="97" y="532" on="1"/>
        <pt x="82" y="532" on="0"/>
        <pt x="69" y="541" on="1"/>
        <pt x="42" y="555" on="0"/>
        <pt x="42" y="633" on="1"/>
        <pt x="42" y="668" on="0"/>
        <pt x="51" y="680" on="1"/>
        <pt x="83" y="695" on="0"/>
        <pt x="253" y="712" on="0"/>
        <pt x="332" y="712" on="1"/>
        <pt x="516" y="712" on="0"/>
        <pt x="628" y="674" on="1"/>
        <pt x="638" y="644" on="0"/>
        <pt x="638" y="588" on="1"/>
        <pt x="638" y="546" on="0"/>
        <pt x="615" y="470" on="1"/>
        <pt x="591" y="464" on="0"/>
        <pt x="568" y="464" on="1"/>
        <pt x="510" y="464" on="0"/>
        <pt x="460" y="497" on="1"/>
        <pt x="463" y="530" on="1"/>
        <pt x="444" y="543" on="0"/>
        <pt x="389" y="543" on="1"/>
        <pt x="328" y="543" on="0"/>
        <pt x="324" y="534" on="1"/>
        <pt x="328" y="498" on="0"/>
        <pt x="328" y="481" on="1"/>
        <pt x="328" y="442" on="0"/>
        <pt x="315" y="409" on="1"/>
        <pt x="353" y="409" on="0"/>
        <pt x="354" y="412" on="1"/>
        <pt x="353" y="415" on="0"/>
        <pt x="353" y="421" on="1"/>
        <pt x="353" y="432" on="0"/>
        <pt x="362" y="448" on="1"/>
        <pt x="368" y="453" on="0"/>
        <pt x="391" y="453" on="1"/>
        <pt x="418" y="453" on="0"/>
        <pt x="466" y="441" on="0"/>
        <pt x="467" y="432" on="1"/>
        <pt x="475" y="418" on="0"/>
        <pt x="475" y="382" on="1"/>
        <pt x="475" y="349" on="0"/>
        <pt x="462" y="284" on="0"/>
        <pt x="452" y="274" on="1"/>
        <pt x="444" y="267" on="0"/>
        <pt x="366" y="267" on="0"/>
        <pt x="360" y="274" on="1"/>
        <pt x="351" y="286" on="0"/>
        <pt x="351" y="304" on="1"/>
        <pt x="310" y="299" on="1"/>
        <pt x="310" y="290" on="0"/>
        <pt x="299" y="185" on="1"/>
        <pt x="334" y="156" on="0"/>
        <pt x="385" y="156" on="1"/>
        <pt x="429" y="156" on="0"/>
        <pt x="463" y="174" on="1"/>
        <pt x="460" y="207" on="1"/>
        <pt x="510" y="240" on="0"/>
        <pt x="568" y="240" on="1"/>
        <pt x="591" y="240" on="0"/>
        <pt x="615" y="234" on="1"/>
        <pt x="638" y="158" on="0"/>
        <pt x="638" y="116" on="1"/>
        <pt x="638" y="60" on="0"/>
        <pt x="628" y="30" on="1"/>
        <pt x="553" y="-13" on="0"/>
        <pt x="356" y="-13" on="1"/>
        <pt x="260" y="-13" on="0"/>
        <pt x="86" y="8" on="0"/>
        <pt x="51" y="24" on="1"/>
        <pt x="42" y="36" on="0"/>
      </contour>
      <contour>
        <pt x="180" y="871" on="1"/>
        <pt x="180" y="900" on="0"/>
        <pt x="198" y="926" on="1"/>
        <pt x="221" y="943" on="0"/>
        <pt x="271" y="943" on="0"/>
        <pt x="297" y="926" on="1"/>
        <pt x="314" y="899" on="0"/>
        <pt x="314" y="839" on="0"/>
        <pt x="297" y="807" on="1"/>
        <pt x="268" y="788" on="0"/>
        <pt x="220" y="788" on="0"/>
        <pt x="198" y="807" on="1"/>
        <pt x="180" y="841" on="0"/>
      </contour>
      <contour>
        <pt x="370" y="871" on="1"/>
        <pt x="370" y="900" on="0"/>
        <pt x="388" y="926" on="1"/>
        <pt x="411" y="943" on="0"/>
        <pt x="438" y="943" on="1"/>
        <pt x="470" y="943" on="0"/>
        <pt x="504" y="909" on="0"/>
        <pt x="504" y="875" on="1"/>
        <pt x="504" y="839" on="0"/>
        <pt x="487" y="807" on="1"/>
        <pt x="458" y="788" on="0"/>
        <pt x="410" y="788" on="0"/>
        <pt x="388" y="807" on="1"/>
        <pt x="370" y="841" on="0"/>
      </contour>
    </TTGlyph>
    <TTGlyph name="Egrave" xMin="45" yMin="-13" xMax="641" yMax="947">
      <contour>
        <pt x="45" y="71" on="1"/>
        <pt x="45" y="149" on="0"/>
        <pt x="72" y="163" on="1"/>
        <pt x="86" y="172" on="0"/>
        <pt x="100" y="172" on="1"/>
        <pt x="103" y="172" on="0"/>
        <pt x="105" y="171" on="1"/>
        <pt x="93" y="260" on="0"/>
        <pt x="93" y="342" on="1"/>
        <pt x="93" y="447" on="0"/>
        <pt x="114" y="534" on="1"/>
        <pt x="104" y="532" on="0"/>
        <pt x="100" y="532" on="1"/>
        <pt x="86" y="532" on="0"/>
        <pt x="72" y="541" on="1"/>
        <pt x="45" y="555" on="0"/>
        <pt x="45" y="633" on="1"/>
        <pt x="45" y="668" on="0"/>
        <pt x="54" y="680" on="1"/>
        <pt x="86" y="695" on="0"/>
        <pt x="256" y="712" on="0"/>
        <pt x="335" y="712" on="1"/>
        <pt x="519" y="712" on="0"/>
        <pt x="631" y="674" on="1"/>
        <pt x="641" y="644" on="0"/>
        <pt x="641" y="588" on="1"/>
        <pt x="641" y="546" on="0"/>
        <pt x="618" y="470" on="1"/>
        <pt x="594" y="464" on="0"/>
        <pt x="571" y="464" on="1"/>
        <pt x="513" y="464" on="0"/>
        <pt x="463" y="497" on="1"/>
        <pt x="466" y="530" on="1"/>
        <pt x="446" y="543" on="0"/>
        <pt x="392" y="543" on="1"/>
        <pt x="331" y="543" on="0"/>
        <pt x="327" y="534" on="1"/>
        <pt x="331" y="498" on="0"/>
        <pt x="331" y="481" on="1"/>
        <pt x="331" y="442" on="0"/>
        <pt x="318" y="409" on="1"/>
        <pt x="356" y="409" on="0"/>
        <pt x="357" y="412" on="1"/>
        <pt x="356" y="415" on="0"/>
        <pt x="356" y="421" on="1"/>
        <pt x="356" y="432" on="0"/>
        <pt x="365" y="448" on="1"/>
        <pt x="371" y="453" on="0"/>
        <pt x="398" y="453" on="1"/>
        <pt x="440" y="453" on="0"/>
        <pt x="456" y="446" on="1"/>
        <pt x="476" y="413" on="0"/>
        <pt x="476" y="351" on="1"/>
        <pt x="476" y="295" on="0"/>
        <pt x="455" y="274" on="1"/>
        <pt x="447" y="267" on="0"/>
        <pt x="369" y="267" on="0"/>
        <pt x="363" y="274" on="1"/>
        <pt x="354" y="286" on="0"/>
        <pt x="354" y="304" on="1"/>
        <pt x="313" y="299" on="1"/>
        <pt x="313" y="290" on="0"/>
        <pt x="302" y="185" on="1"/>
        <pt x="337" y="156" on="0"/>
        <pt x="388" y="156" on="1"/>
        <pt x="432" y="156" on="0"/>
        <pt x="466" y="174" on="1"/>
        <pt x="463" y="207" on="1"/>
        <pt x="513" y="240" on="0"/>
        <pt x="571" y="240" on="1"/>
        <pt x="594" y="240" on="0"/>
        <pt x="618" y="234" on="1"/>
        <pt x="641" y="158" on="0"/>
        <pt x="641" y="116" on="1"/>
        <pt x="641" y="60" on="0"/>
        <pt x="631" y="30" on="1"/>
        <pt x="556" y="-13" on="0"/>
        <pt x="359" y="-13" on="1"/>
        <pt x="263" y="-13" on="0"/>
        <pt x="89" y="8" on="0"/>
        <pt x="54" y="24" on="1"/>
        <pt x="45" y="36" on="0"/>
      </contour>
      <contour>
        <pt x="206" y="921" on="1"/>
        <pt x="243" y="947" on="0"/>
        <pt x="287" y="947" on="1"/>
        <pt x="306" y="947" on="0"/>
        <pt x="314" y="945" on="1"/>
        <pt x="359" y="896" on="0"/>
        <pt x="400" y="794" on="1"/>
        <pt x="389" y="786" on="0"/>
        <pt x="375" y="786" on="1"/>
        <pt x="364" y="786" on="0"/>
        <pt x="340" y="794" on="1"/>
        <pt x="247" y="851" on="0"/>
      </contour>
    </TTGlyph>
    <TTGlyph name="Eth" xMin="40" yMin="-10" xMax="686" yMax="701">
      <contour>
        <pt x="40" y="583" on="1"/>
        <pt x="40" y="644" on="0"/>
        <pt x="53" y="647" on="1"/>
        <pt x="146" y="701" on="0"/>
        <pt x="272" y="701" on="1"/>
        <pt x="382" y="701" on="0"/>
        <pt x="570" y="606" on="0"/>
        <pt x="686" y="429" on="0"/>
        <pt x="686" y="320" on="1"/>
        <pt x="686" y="164" on="0"/>
        <pt x="459" y="-10" on="0"/>
        <pt x="293" y="-10" on="1"/>
        <pt x="166" y="-10" on="0"/>
        <pt x="60" y="32" on="1"/>
        <pt x="46" y="59" on="0"/>
        <pt x="46" y="123" on="1"/>
        <pt x="46" y="171" on="0"/>
        <pt x="53" y="184" on="1"/>
        <pt x="56" y="199" on="0"/>
        <pt x="95" y="199" on="1"/>
        <pt x="106" y="199" on="0"/>
        <pt x="120" y="197" on="1"/>
        <pt x="114" y="220" on="0"/>
        <pt x="114" y="243" on="1"/>
        <pt x="114" y="267" on="0"/>
        <pt x="122" y="284" on="1"/>
        <pt x="84" y="289" on="0"/>
        <pt x="72" y="291" on="1"/>
        <pt x="59" y="317" on="0"/>
        <pt x="59" y="339" on="1"/>
        <pt x="59" y="359" on="0"/>
        <pt x="72" y="378" on="1"/>
        <pt x="119" y="384" on="1"/>
        <pt x="112" y="412" on="0"/>
        <pt x="112" y="443" on="1"/>
        <pt x="112" y="480" on="0"/>
        <pt x="122" y="513" on="1"/>
        <pt x="112" y="510" on="0"/>
        <pt x="95" y="510" on="1"/>
        <pt x="56" y="510" on="0"/>
        <pt x="53" y="525" on="1"/>
        <pt x="40" y="548" on="0"/>
      </contour>
      <contour>
        <pt x="313" y="183" on="1"/>
        <pt x="327" y="170" on="0"/>
        <pt x="382" y="170" on="1"/>
        <pt x="435" y="170" on="0"/>
        <pt x="500" y="260" on="0"/>
        <pt x="500" y="335" on="1"/>
        <pt x="500" y="420" on="0"/>
        <pt x="418" y="534" on="0"/>
        <pt x="350" y="534" on="1"/>
        <pt x="339" y="534" on="0"/>
        <pt x="313" y="526" on="1"/>
        <pt x="313" y="384" on="1"/>
        <pt x="361" y="384" on="0"/>
        <pt x="378" y="378" on="1"/>
        <pt x="393" y="360" on="0"/>
        <pt x="393" y="318" on="0"/>
        <pt x="378" y="291" on="1"/>
        <pt x="374" y="290" on="0"/>
        <pt x="313" y="283" on="1"/>
      </contour>
    </TTGlyph>
    <TTGlyph name="Euro" xMin="37" yMin="-16" xMax="719" yMax="711">
      <contour>
        <pt x="37" y="286" on="1"/>
        <pt x="37" y="301" on="0"/>
        <pt x="51" y="317" on="1"/>
        <pt x="125" y="326" on="0"/>
        <pt x="244" y="326" on="1"/>
        <pt x="370" y="326" on="0"/>
        <pt x="421" y="317" on="1"/>
        <pt x="436" y="303" on="0"/>
        <pt x="436" y="271" on="0"/>
        <pt x="421" y="249" on="1"/>
        <pt x="386" y="240" on="0"/>
        <pt x="244" y="240" on="1"/>
        <pt x="128" y="240" on="0"/>
        <pt x="51" y="249" on="1"/>
        <pt x="37" y="272" on="0"/>
      </contour>
      <contour>
        <pt x="37" y="438" on="1"/>
        <pt x="37" y="454" on="0"/>
        <pt x="51" y="468" on="1"/>
        <pt x="112" y="477" on="0"/>
        <pt x="243" y="477" on="1"/>
        <pt x="392" y="477" on="0"/>
        <pt x="421" y="468" on="1"/>
        <pt x="436" y="456" on="0"/>
        <pt x="436" y="438" on="1"/>
        <pt x="436" y="423" on="0"/>
        <pt x="421" y="401" on="1"/>
        <pt x="417" y="397" on="0"/>
        <pt x="274" y="391" on="0"/>
        <pt x="238" y="391" on="1"/>
        <pt x="137" y="391" on="0"/>
        <pt x="51" y="401" on="1"/>
        <pt x="37" y="424" on="0"/>
      </contour>
      <contour>
        <pt x="124" y="344" on="1"/>
        <pt x="124" y="497" on="0"/>
        <pt x="281" y="707" on="0"/>
        <pt x="411" y="707" on="1"/>
        <pt x="506" y="707" on="0"/>
        <pt x="551" y="663" on="1"/>
        <pt x="553" y="693" on="0"/>
        <pt x="572" y="700" on="1"/>
        <pt x="597" y="711" on="0"/>
        <pt x="633" y="711" on="1"/>
        <pt x="680" y="711" on="0"/>
        <pt x="707" y="691" on="1"/>
        <pt x="719" y="621" on="0"/>
        <pt x="719" y="573" on="1"/>
        <pt x="719" y="487" on="0"/>
        <pt x="683" y="435" on="1"/>
        <pt x="630" y="415" on="0"/>
        <pt x="590" y="415" on="1"/>
        <pt x="552" y="415" on="0"/>
        <pt x="509" y="435" on="1"/>
        <pt x="508" y="437" on="0"/>
        <pt x="508" y="444" on="1"/>
        <pt x="508" y="456" on="0"/>
        <pt x="511" y="460" on="1"/>
        <pt x="511" y="498" on="0"/>
        <pt x="447" y="543" on="0"/>
        <pt x="419" y="543" on="1"/>
        <pt x="378" y="543" on="0"/>
        <pt x="320" y="417" on="0"/>
        <pt x="320" y="341" on="1"/>
        <pt x="320" y="269" on="0"/>
        <pt x="376" y="188" on="0"/>
        <pt x="418" y="188" on="1"/>
        <pt x="466" y="188" on="0"/>
        <pt x="509" y="241" on="1"/>
        <pt x="506" y="259" on="0"/>
        <pt x="506" y="263" on="0"/>
        <pt x="507" y="267" on="0"/>
        <pt x="507" y="268" on="1"/>
        <pt x="544" y="285" on="0"/>
        <pt x="587" y="285" on="1"/>
        <pt x="632" y="285" on="0"/>
        <pt x="684" y="265" on="1"/>
        <pt x="719" y="212" on="0"/>
        <pt x="719" y="128" on="1"/>
        <pt x="719" y="81" on="0"/>
        <pt x="707" y="9" on="1"/>
        <pt x="676" y="-16" on="0"/>
        <pt x="627" y="-16" on="1"/>
        <pt x="591" y="-16" on="0"/>
        <pt x="572" y="0" on="1"/>
        <pt x="551" y="8" on="0"/>
        <pt x="551" y="39" on="1"/>
        <pt x="485" y="-6" on="0"/>
        <pt x="417" y="-6" on="1"/>
        <pt x="364" y="-6" on="0"/>
        <pt x="262" y="38" on="0"/>
        <pt x="176" y="122" on="0"/>
        <pt x="124" y="259" on="0"/>
      </contour>
    </TTGlyph>
    <TTGlyph name="F" xMin="37" yMin="-14" xMax="641" yMax="710">
      <contour>
        <pt x="37" y="109" on="1"/>
        <pt x="37" y="130" on="0"/>
        <pt x="41" y="134" on="1"/>
        <pt x="69" y="138" on="0"/>
        <pt x="86" y="138" on="1"/>
        <pt x="89" y="138" on="0"/>
        <pt x="104" y="137" on="0"/>
        <pt x="108" y="137" on="1"/>
        <pt x="101" y="227" on="0"/>
        <pt x="101" y="294" on="1"/>
        <pt x="101" y="354" on="0"/>
        <pt x="114" y="534" on="1"/>
        <pt x="104" y="532" on="0"/>
        <pt x="100" y="532" on="1"/>
        <pt x="86" y="532" on="0"/>
        <pt x="72" y="541" on="1"/>
        <pt x="43" y="561" on="0"/>
        <pt x="43" y="631" on="1"/>
        <pt x="43" y="666" on="0"/>
        <pt x="54" y="680" on="1"/>
        <pt x="118" y="710" on="0"/>
        <pt x="273" y="710" on="1"/>
        <pt x="371" y="710" on="0"/>
        <pt x="591" y="688" on="0"/>
        <pt x="631" y="674" on="1"/>
        <pt x="641" y="644" on="0"/>
        <pt x="641" y="588" on="1"/>
        <pt x="641" y="546" on="0"/>
        <pt x="618" y="470" on="1"/>
        <pt x="594" y="464" on="0"/>
        <pt x="571" y="464" on="1"/>
        <pt x="513" y="464" on="0"/>
        <pt x="463" y="497" on="1"/>
        <pt x="466" y="530" on="1"/>
        <pt x="446" y="543" on="0"/>
        <pt x="392" y="543" on="1"/>
        <pt x="331" y="543" on="0"/>
        <pt x="327" y="534" on="1"/>
        <pt x="313" y="485" on="0"/>
        <pt x="301" y="381" on="1"/>
        <pt x="347" y="381" on="0"/>
        <pt x="348" y="384" on="1"/>
        <pt x="347" y="388" on="0"/>
        <pt x="347" y="416" on="1"/>
        <pt x="347" y="429" on="0"/>
        <pt x="358" y="449" on="1"/>
        <pt x="362" y="452" on="0"/>
        <pt x="375" y="452" on="1"/>
        <pt x="396" y="452" on="0"/>
        <pt x="477" y="435" on="0"/>
        <pt x="487" y="429" on="1"/>
        <pt x="495" y="423" on="0"/>
        <pt x="495" y="370" on="1"/>
        <pt x="495" y="258" on="0"/>
        <pt x="469" y="233" on="1"/>
        <pt x="462" y="227" on="0"/>
        <pt x="410" y="227" on="1"/>
        <pt x="362" y="227" on="0"/>
        <pt x="356" y="233" on="1"/>
        <pt x="344" y="249" on="0"/>
        <pt x="344" y="281" on="1"/>
        <pt x="294" y="279" on="1"/>
        <pt x="294" y="232" on="0"/>
        <pt x="299" y="132" on="1"/>
        <pt x="308" y="135" on="0"/>
        <pt x="328" y="135" on="1"/>
        <pt x="354" y="135" on="0"/>
        <pt x="357" y="131" on="1"/>
        <pt x="367" y="118" on="0"/>
        <pt x="367" y="59" on="1"/>
        <pt x="367" y="11" on="0"/>
        <pt x="365" y="11" on="1"/>
        <pt x="351" y="0" on="0"/>
        <pt x="250" y="-14" on="0"/>
        <pt x="191" y="-14" on="1"/>
        <pt x="89" y="-14" on="0"/>
        <pt x="50" y="6" on="1"/>
        <pt x="37" y="23" on="0"/>
      </contour>
    </TTGlyph>
    <TTGlyph name="G" xMin="32" yMin="-8" xMax="617" yMax="718">
      <contour>
        <pt x="32" y="346" on="1"/>
        <pt x="32" y="506" on="0"/>
        <pt x="186" y="710" on="0"/>
        <pt x="305" y="710" on="1"/>
        <pt x="375" y="710" on="0"/>
        <pt x="449" y="673" on="1"/>
        <pt x="452" y="673" on="0"/>
        <pt x="460" y="707" on="0"/>
        <pt x="470" y="710" on="1"/>
        <pt x="514" y="718" on="0"/>
        <pt x="542" y="718" on="1"/>
        <pt x="583" y="718" on="0"/>
        <pt x="604" y="701" on="1"/>
        <pt x="611" y="673" on="0"/>
        <pt x="611" y="638" on="1"/>
        <pt x="611" y="566" on="0"/>
        <pt x="590" y="507" on="1"/>
        <pt x="585" y="497" on="0"/>
        <pt x="524" y="497" on="1"/>
        <pt x="471" y="497" on="0"/>
        <pt x="453" y="506" on="1"/>
        <pt x="444" y="513" on="0"/>
        <pt x="444" y="525" on="1"/>
        <pt x="444" y="531" on="0"/>
        <pt x="449" y="546" on="1"/>
        <pt x="409" y="559" on="0"/>
        <pt x="373" y="559" on="1"/>
        <pt x="296" y="559" on="0"/>
        <pt x="218" y="440" on="0"/>
        <pt x="218" y="350" on="1"/>
        <pt x="218" y="261" on="0"/>
        <pt x="291" y="179" on="0"/>
        <pt x="346" y="179" on="1"/>
        <pt x="377" y="179" on="0"/>
        <pt x="407" y="193" on="1"/>
        <pt x="422" y="219" on="0"/>
        <pt x="422" y="238" on="1"/>
        <pt x="422" y="259" on="0"/>
        <pt x="407" y="281" on="1"/>
        <pt x="319" y="281" on="0"/>
        <pt x="317" y="293" on="1"/>
        <pt x="308" y="300" on="0"/>
        <pt x="308" y="332" on="1"/>
        <pt x="308" y="381" on="0"/>
        <pt x="320" y="388" on="1"/>
        <pt x="340" y="419" on="0"/>
        <pt x="435" y="419" on="1"/>
        <pt x="488" y="419" on="0"/>
        <pt x="586" y="400" on="0"/>
        <pt x="592" y="385" on="1"/>
        <pt x="601" y="364" on="0"/>
        <pt x="617" y="232" on="0"/>
        <pt x="617" y="158" on="1"/>
        <pt x="617" y="70" on="0"/>
        <pt x="605" y="9" on="1"/>
        <pt x="584" y="-8" on="0"/>
        <pt x="543" y="-8" on="1"/>
        <pt x="516" y="-8" on="0"/>
        <pt x="470" y="0" on="1"/>
        <pt x="449" y="8" on="0"/>
        <pt x="449" y="39" on="1"/>
        <pt x="383" y="-6" on="0"/>
        <pt x="315" y="-6" on="1"/>
        <pt x="263" y="-6" on="0"/>
        <pt x="164" y="37" on="0"/>
        <pt x="82" y="120" on="0"/>
        <pt x="32" y="259" on="0"/>
      </contour>
    </TTGlyph>
    <TTGlyph name="H" xMin="43" yMin="0" xMax="725" yMax="698">
      <contour>
        <pt x="43" y="86" on="1"/>
        <pt x="43" y="134" on="0"/>
        <pt x="49" y="140" on="1"/>
        <pt x="58" y="145" on="0"/>
        <pt x="84" y="149" on="1"/>
        <pt x="102" y="152" on="0"/>
        <pt x="107" y="152" on="1"/>
        <pt x="95" y="252" on="0"/>
        <pt x="95" y="353" on="1"/>
        <pt x="95" y="450" on="0"/>
        <pt x="107" y="546" on="1"/>
        <pt x="102" y="546" on="0"/>
        <pt x="84" y="549" on="1"/>
        <pt x="58" y="553" on="0"/>
        <pt x="49" y="558" on="1"/>
        <pt x="43" y="564" on="0"/>
        <pt x="43" y="612" on="1"/>
        <pt x="43" y="664" on="0"/>
        <pt x="49" y="671" on="1"/>
        <pt x="72" y="698" on="0"/>
        <pt x="209" y="698" on="1"/>
        <pt x="305" y="698" on="0"/>
        <pt x="322" y="689" on="1"/>
        <pt x="328" y="679" on="0"/>
        <pt x="345" y="598" on="0"/>
        <pt x="345" y="577" on="1"/>
        <pt x="345" y="564" on="0"/>
        <pt x="342" y="560" on="1"/>
        <pt x="320" y="549" on="0"/>
        <pt x="294" y="549" on="1"/>
        <pt x="283" y="549" on="0"/>
        <pt x="277" y="550" on="1"/>
        <pt x="288" y="480" on="0"/>
        <pt x="289" y="415" on="1"/>
        <pt x="305" y="428" on="0"/>
        <pt x="385" y="428" on="1"/>
        <pt x="464" y="428" on="0"/>
        <pt x="476" y="413" on="1"/>
        <pt x="479" y="490" on="0"/>
        <pt x="487" y="546" on="1"/>
        <pt x="482" y="546" on="0"/>
        <pt x="464" y="549" on="1"/>
        <pt x="438" y="553" on="0"/>
        <pt x="429" y="558" on="1"/>
        <pt x="423" y="564" on="0"/>
        <pt x="423" y="612" on="1"/>
        <pt x="423" y="664" on="0"/>
        <pt x="429" y="671" on="1"/>
        <pt x="452" y="698" on="0"/>
        <pt x="589" y="698" on="1"/>
        <pt x="685" y="698" on="0"/>
        <pt x="702" y="689" on="1"/>
        <pt x="708" y="679" on="0"/>
        <pt x="725" y="598" on="0"/>
        <pt x="725" y="577" on="1"/>
        <pt x="725" y="564" on="0"/>
        <pt x="722" y="560" on="1"/>
        <pt x="700" y="549" on="0"/>
        <pt x="674" y="549" on="1"/>
        <pt x="663" y="549" on="0"/>
        <pt x="657" y="550" on="1"/>
        <pt x="669" y="469" on="0"/>
        <pt x="669" y="374" on="1"/>
        <pt x="669" y="296" on="0"/>
        <pt x="657" y="148" on="1"/>
        <pt x="663" y="149" on="0"/>
        <pt x="674" y="149" on="1"/>
        <pt x="700" y="149" on="0"/>
        <pt x="722" y="138" on="1"/>
        <pt x="725" y="134" on="0"/>
        <pt x="725" y="121" on="1"/>
        <pt x="725" y="100" on="0"/>
        <pt x="708" y="19" on="0"/>
        <pt x="702" y="9" on="1"/>
        <pt x="684" y="0" on="0"/>
        <pt x="591" y="0" on="1"/>
        <pt x="452" y="0" on="0"/>
        <pt x="429" y="27" on="1"/>
        <pt x="423" y="34" on="0"/>
        <pt x="423" y="86" on="1"/>
        <pt x="423" y="134" on="0"/>
        <pt x="429" y="140" on="1"/>
        <pt x="438" y="145" on="0"/>
        <pt x="464" y="149" on="1"/>
        <pt x="482" y="152" on="0"/>
        <pt x="487" y="152" on="1"/>
        <pt x="477" y="227" on="0"/>
        <pt x="476" y="293" on="1"/>
        <pt x="460" y="285" on="0"/>
        <pt x="388" y="285" on="1"/>
        <pt x="302" y="285" on="0"/>
        <pt x="286" y="293" on="1"/>
        <pt x="285" y="262" on="0"/>
        <pt x="277" y="148" on="1"/>
        <pt x="283" y="149" on="0"/>
        <pt x="294" y="149" on="1"/>
        <pt x="320" y="149" on="0"/>
        <pt x="342" y="138" on="1"/>
        <pt x="345" y="134" on="0"/>
        <pt x="345" y="121" on="1"/>
        <pt x="345" y="100" on="0"/>
        <pt x="328" y="19" on="0"/>
        <pt x="322" y="9" on="1"/>
        <pt x="304" y="0" on="0"/>
        <pt x="211" y="0" on="1"/>
        <pt x="72" y="0" on="0"/>
        <pt x="49" y="27" on="1"/>
        <pt x="43" y="34" on="0"/>
      </contour>
    </TTGlyph>
    <TTGlyph name="I" xMin="43" yMin="0" xMax="345" yMax="698">
      <contour>
        <pt x="43" y="86" on="1"/>
        <pt x="43" y="134" on="0"/>
        <pt x="49" y="140" on="1"/>
        <pt x="58" y="145" on="0"/>
        <pt x="84" y="149" on="1"/>
        <pt x="102" y="152" on="0"/>
        <pt x="107" y="152" on="1"/>
        <pt x="95" y="252" on="0"/>
        <pt x="95" y="353" on="1"/>
        <pt x="95" y="450" on="0"/>
        <pt x="107" y="546" on="1"/>
        <pt x="102" y="546" on="0"/>
        <pt x="84" y="549" on="1"/>
        <pt x="58" y="553" on="0"/>
        <pt x="49" y="558" on="1"/>
        <pt x="43" y="564" on="0"/>
        <pt x="43" y="612" on="1"/>
        <pt x="43" y="664" on="0"/>
        <pt x="49" y="671" on="1"/>
        <pt x="72" y="698" on="0"/>
        <pt x="209" y="698" on="1"/>
        <pt x="305" y="698" on="0"/>
        <pt x="322" y="689" on="1"/>
        <pt x="328" y="679" on="0"/>
        <pt x="345" y="598" on="0"/>
        <pt x="345" y="577" on="1"/>
        <pt x="345" y="564" on="0"/>
        <pt x="342" y="560" on="1"/>
        <pt x="320" y="549" on="0"/>
        <pt x="294" y="549" on="1"/>
        <pt x="283" y="549" on="0"/>
        <pt x="277" y="550" on="1"/>
        <pt x="289" y="469" on="0"/>
        <pt x="289" y="374" on="1"/>
        <pt x="289" y="296" on="0"/>
        <pt x="277" y="148" on="1"/>
        <pt x="283" y="149" on="0"/>
        <pt x="294" y="149" on="1"/>
        <pt x="320" y="149" on="0"/>
        <pt x="342" y="138" on="1"/>
        <pt x="345" y="134" on="0"/>
        <pt x="345" y="121" on="1"/>
        <pt x="345" y="100" on="0"/>
        <pt x="328" y="19" on="0"/>
        <pt x="322" y="9" on="1"/>
        <pt x="304" y="0" on="0"/>
        <pt x="211" y="0" on="1"/>
        <pt x="72" y="0" on="0"/>
        <pt x="49" y="27" on="1"/>
        <pt x="43" y="34" on="0"/>
      </contour>
    </TTGlyph>
    <TTGlyph name="Iacute" xMin="43" yMin="0" xMax="345" yMax="948">
      <contour>
        <pt x="43" y="86" on="1"/>
        <pt x="43" y="134" on="0"/>
        <pt x="49" y="140" on="1"/>
        <pt x="58" y="145" on="0"/>
        <pt x="84" y="149" on="1"/>
        <pt x="102" y="152" on="0"/>
        <pt x="107" y="152" on="1"/>
        <pt x="95" y="252" on="0"/>
        <pt x="95" y="353" on="1"/>
        <pt x="95" y="450" on="0"/>
        <pt x="107" y="546" on="1"/>
        <pt x="102" y="546" on="0"/>
        <pt x="84" y="549" on="1"/>
        <pt x="58" y="553" on="0"/>
        <pt x="49" y="558" on="1"/>
        <pt x="43" y="564" on="0"/>
        <pt x="43" y="612" on="1"/>
        <pt x="43" y="664" on="0"/>
        <pt x="49" y="671" on="1"/>
        <pt x="72" y="698" on="0"/>
        <pt x="209" y="698" on="1"/>
        <pt x="305" y="698" on="0"/>
        <pt x="322" y="689" on="1"/>
        <pt x="328" y="679" on="0"/>
        <pt x="345" y="598" on="0"/>
        <pt x="345" y="577" on="1"/>
        <pt x="345" y="564" on="0"/>
        <pt x="342" y="560" on="1"/>
        <pt x="320" y="549" on="0"/>
        <pt x="294" y="549" on="1"/>
        <pt x="283" y="549" on="0"/>
        <pt x="277" y="550" on="1"/>
        <pt x="289" y="469" on="0"/>
        <pt x="289" y="374" on="1"/>
        <pt x="289" y="296" on="0"/>
        <pt x="277" y="148" on="1"/>
        <pt x="283" y="149" on="0"/>
        <pt x="294" y="149" on="1"/>
        <pt x="320" y="149" on="0"/>
        <pt x="342" y="138" on="1"/>
        <pt x="345" y="134" on="0"/>
        <pt x="345" y="121" on="1"/>
        <pt x="345" y="100" on="0"/>
        <pt x="328" y="19" on="0"/>
        <pt x="322" y="9" on="1"/>
        <pt x="304" y="0" on="0"/>
        <pt x="211" y="0" on="1"/>
        <pt x="72" y="0" on="0"/>
        <pt x="49" y="27" on="1"/>
        <pt x="43" y="34" on="0"/>
      </contour>
      <contour>
        <pt x="147" y="795" on="1"/>
        <pt x="188" y="899" on="0"/>
        <pt x="232" y="946" on="1"/>
        <pt x="250" y="948" on="0"/>
        <pt x="260" y="948" on="1"/>
        <pt x="304" y="948" on="0"/>
        <pt x="341" y="922" on="1"/>
        <pt x="300" y="852" on="0"/>
        <pt x="207" y="795" on="1"/>
        <pt x="183" y="787" on="0"/>
        <pt x="172" y="787" on="1"/>
        <pt x="158" y="787" on="0"/>
      </contour>
    </TTGlyph>
    <TTGlyph name="Icircumflex" xMin="42" yMin="0" xMax="348" yMax="949">
      <contour>
        <pt x="42" y="83" on="1"/>
        <pt x="42" y="133" on="0"/>
        <pt x="49" y="140" on="1"/>
        <pt x="74" y="152" on="0"/>
        <pt x="107" y="152" on="1"/>
        <pt x="95" y="252" on="0"/>
        <pt x="95" y="353" on="1"/>
        <pt x="95" y="450" on="0"/>
        <pt x="107" y="546" on="1"/>
        <pt x="60" y="551" on="0"/>
        <pt x="49" y="558" on="1"/>
        <pt x="42" y="566" on="0"/>
        <pt x="42" y="614" on="1"/>
        <pt x="42" y="661" on="0"/>
        <pt x="49" y="671" on="1"/>
        <pt x="61" y="698" on="0"/>
        <pt x="211" y="698" on="1"/>
        <pt x="296" y="698" on="0"/>
        <pt x="322" y="689" on="1"/>
        <pt x="333" y="683" on="0"/>
        <pt x="348" y="625" on="0"/>
        <pt x="348" y="596" on="1"/>
        <pt x="348" y="570" on="0"/>
        <pt x="342" y="560" on="1"/>
        <pt x="316" y="548" on="0"/>
        <pt x="294" y="548" on="1"/>
        <pt x="287" y="548" on="0"/>
        <pt x="277" y="550" on="1"/>
        <pt x="289" y="469" on="0"/>
        <pt x="289" y="374" on="1"/>
        <pt x="289" y="296" on="0"/>
        <pt x="277" y="148" on="1"/>
        <pt x="282" y="149" on="0"/>
        <pt x="293" y="149" on="1"/>
        <pt x="323" y="149" on="0"/>
        <pt x="342" y="138" on="1"/>
        <pt x="346" y="130" on="0"/>
        <pt x="346" y="114" on="1"/>
        <pt x="346" y="90" on="0"/>
        <pt x="330" y="23" on="0"/>
        <pt x="322" y="9" on="1"/>
        <pt x="296" y="0" on="0"/>
        <pt x="205" y="0" on="1"/>
        <pt x="72" y="0" on="0"/>
        <pt x="51" y="28" on="1"/>
        <pt x="42" y="39" on="0"/>
      </contour>
      <contour>
        <pt x="47" y="793" on="1"/>
        <pt x="50" y="798" on="0"/>
        <pt x="70" y="834" on="0"/>
        <pt x="78" y="848" on="0"/>
        <pt x="98" y="878" on="0"/>
        <pt x="112" y="897" on="0"/>
        <pt x="134" y="923" on="0"/>
        <pt x="146" y="934" on="1"/>
        <pt x="166" y="949" on="0"/>
        <pt x="185" y="949" on="1"/>
        <pt x="205" y="949" on="0"/>
        <pt x="230" y="934" on="1"/>
        <pt x="285" y="882" on="0"/>
        <pt x="329" y="793" on="1"/>
        <pt x="315" y="785" on="0"/>
        <pt x="289" y="785" on="0"/>
        <pt x="273" y="793" on="1"/>
        <pt x="215" y="823" on="0"/>
        <pt x="188" y="864" on="1"/>
        <pt x="147" y="813" on="0"/>
        <pt x="103" y="793" on="1"/>
        <pt x="88" y="787" on="0"/>
        <pt x="75" y="787" on="1"/>
        <pt x="60" y="787" on="0"/>
      </contour>
    </TTGlyph>
    <TTGlyph name="Idieresis" xMin="34" yMin="0" xMax="358" yMax="942">
      <contour>
        <pt x="34" y="870" on="1"/>
        <pt x="34" y="899" on="0"/>
        <pt x="52" y="925" on="1"/>
        <pt x="75" y="942" on="0"/>
        <pt x="125" y="942" on="0"/>
        <pt x="151" y="925" on="1"/>
        <pt x="168" y="898" on="0"/>
        <pt x="168" y="838" on="0"/>
        <pt x="151" y="806" on="1"/>
        <pt x="122" y="787" on="0"/>
        <pt x="74" y="787" on="0"/>
        <pt x="52" y="806" on="1"/>
        <pt x="34" y="840" on="0"/>
      </contour>
      <contour>
        <pt x="42" y="83" on="1"/>
        <pt x="42" y="133" on="0"/>
        <pt x="49" y="140" on="1"/>
        <pt x="74" y="152" on="0"/>
        <pt x="107" y="152" on="1"/>
        <pt x="95" y="252" on="0"/>
        <pt x="95" y="353" on="1"/>
        <pt x="95" y="450" on="0"/>
        <pt x="107" y="546" on="1"/>
        <pt x="60" y="551" on="0"/>
        <pt x="49" y="558" on="1"/>
        <pt x="42" y="566" on="0"/>
        <pt x="42" y="614" on="1"/>
        <pt x="42" y="661" on="0"/>
        <pt x="49" y="671" on="1"/>
        <pt x="61" y="698" on="0"/>
        <pt x="211" y="698" on="1"/>
        <pt x="296" y="698" on="0"/>
        <pt x="322" y="689" on="1"/>
        <pt x="333" y="683" on="0"/>
        <pt x="348" y="625" on="0"/>
        <pt x="348" y="596" on="1"/>
        <pt x="348" y="570" on="0"/>
        <pt x="342" y="560" on="1"/>
        <pt x="316" y="548" on="0"/>
        <pt x="294" y="548" on="1"/>
        <pt x="287" y="548" on="0"/>
        <pt x="277" y="550" on="1"/>
        <pt x="289" y="469" on="0"/>
        <pt x="289" y="374" on="1"/>
        <pt x="289" y="296" on="0"/>
        <pt x="277" y="148" on="1"/>
        <pt x="282" y="149" on="0"/>
        <pt x="293" y="149" on="1"/>
        <pt x="323" y="149" on="0"/>
        <pt x="342" y="138" on="1"/>
        <pt x="346" y="130" on="0"/>
        <pt x="346" y="114" on="1"/>
        <pt x="346" y="90" on="0"/>
        <pt x="330" y="23" on="0"/>
        <pt x="322" y="9" on="1"/>
        <pt x="296" y="0" on="0"/>
        <pt x="205" y="0" on="1"/>
        <pt x="72" y="0" on="0"/>
        <pt x="51" y="28" on="1"/>
        <pt x="42" y="39" on="0"/>
      </contour>
      <contour>
        <pt x="224" y="870" on="1"/>
        <pt x="224" y="899" on="0"/>
        <pt x="242" y="925" on="1"/>
        <pt x="265" y="942" on="0"/>
        <pt x="315" y="942" on="0"/>
        <pt x="341" y="925" on="1"/>
        <pt x="358" y="898" on="0"/>
        <pt x="358" y="838" on="0"/>
        <pt x="341" y="806" on="1"/>
        <pt x="312" y="787" on="0"/>
        <pt x="264" y="787" on="0"/>
        <pt x="242" y="806" on="1"/>
        <pt x="224" y="840" on="0"/>
      </contour>
    </TTGlyph>
    <TTGlyph name="Igrave" xMin="26" yMin="0" xMax="348" yMax="947">
      <contour>
        <pt x="26" y="921" on="1"/>
        <pt x="63" y="947" on="0"/>
        <pt x="107" y="947" on="1"/>
        <pt x="117" y="947" on="0"/>
        <pt x="135" y="945" on="1"/>
        <pt x="179" y="898" on="0"/>
        <pt x="220" y="794" on="1"/>
        <pt x="209" y="786" on="0"/>
        <pt x="195" y="786" on="1"/>
        <pt x="184" y="786" on="0"/>
        <pt x="160" y="794" on="1"/>
        <pt x="67" y="851" on="0"/>
      </contour>
      <contour>
        <pt x="42" y="90" on="1"/>
        <pt x="42" y="133" on="0"/>
        <pt x="49" y="140" on="1"/>
        <pt x="74" y="152" on="0"/>
        <pt x="107" y="152" on="1"/>
        <pt x="95" y="252" on="0"/>
        <pt x="95" y="353" on="1"/>
        <pt x="95" y="450" on="0"/>
        <pt x="107" y="546" on="1"/>
        <pt x="60" y="551" on="0"/>
        <pt x="49" y="558" on="1"/>
        <pt x="42" y="566" on="0"/>
        <pt x="42" y="614" on="1"/>
        <pt x="42" y="661" on="0"/>
        <pt x="49" y="671" on="1"/>
        <pt x="61" y="698" on="0"/>
        <pt x="211" y="698" on="1"/>
        <pt x="296" y="698" on="0"/>
        <pt x="322" y="689" on="1"/>
        <pt x="333" y="683" on="0"/>
        <pt x="348" y="625" on="0"/>
        <pt x="348" y="596" on="1"/>
        <pt x="348" y="570" on="0"/>
        <pt x="342" y="560" on="1"/>
        <pt x="316" y="548" on="0"/>
        <pt x="294" y="548" on="1"/>
        <pt x="287" y="548" on="0"/>
        <pt x="277" y="550" on="1"/>
        <pt x="289" y="469" on="0"/>
        <pt x="289" y="374" on="1"/>
        <pt x="289" y="296" on="0"/>
        <pt x="277" y="148" on="1"/>
        <pt x="282" y="149" on="0"/>
        <pt x="293" y="149" on="1"/>
        <pt x="323" y="149" on="0"/>
        <pt x="342" y="138" on="1"/>
        <pt x="346" y="130" on="0"/>
        <pt x="346" y="114" on="1"/>
        <pt x="346" y="90" on="0"/>
        <pt x="330" y="23" on="0"/>
        <pt x="322" y="9" on="1"/>
        <pt x="296" y="0" on="0"/>
        <pt x="211" y="0" on="1"/>
        <pt x="61" y="0" on="0"/>
        <pt x="49" y="27" on="1"/>
        <pt x="42" y="39" on="0"/>
      </contour>
    </TTGlyph>
    <TTGlyph name="J" xMin="10" yMin="-10" xMax="600" yMax="699">
      <contour>
        <pt x="10" y="32" on="1"/>
        <pt x="10" y="76" on="0"/>
        <pt x="58" y="285" on="0"/>
        <pt x="70" y="292" on="1"/>
        <pt x="78" y="295" on="0"/>
        <pt x="89" y="295" on="1"/>
        <pt x="111" y="295" on="0"/>
        <pt x="184" y="281" on="0"/>
        <pt x="193" y="274" on="1"/>
        <pt x="195" y="274" on="0"/>
        <pt x="195" y="266" on="1"/>
        <pt x="195" y="244" on="0"/>
        <pt x="188" y="195" on="1"/>
        <pt x="223" y="172" on="0"/>
        <pt x="248" y="172" on="1"/>
        <pt x="295" y="172" on="0"/>
        <pt x="339" y="310" on="0"/>
        <pt x="339" y="412" on="1"/>
        <pt x="339" y="511" on="0"/>
        <pt x="324" y="579" on="1"/>
        <pt x="311" y="569" on="0"/>
        <pt x="286" y="569" on="1"/>
        <pt x="259" y="569" on="0"/>
        <pt x="249" y="583" on="1"/>
        <pt x="249" y="587" on="0"/>
        <pt x="248" y="604" on="0"/>
        <pt x="248" y="611" on="1"/>
        <pt x="248" y="657" on="0"/>
        <pt x="268" y="691" on="1"/>
        <pt x="308" y="699" on="0"/>
        <pt x="392" y="699" on="1"/>
        <pt x="568" y="699" on="0"/>
        <pt x="597" y="674" on="1"/>
        <pt x="600" y="662" on="0"/>
        <pt x="600" y="629" on="1"/>
        <pt x="600" y="579" on="0"/>
        <pt x="588" y="565" on="1"/>
        <pt x="584" y="560" on="0"/>
        <pt x="565" y="560" on="1"/>
        <pt x="538" y="560" on="0"/>
        <pt x="528" y="565" on="1"/>
        <pt x="541" y="491" on="0"/>
        <pt x="541" y="412" on="1"/>
        <pt x="541" y="300" on="0"/>
        <pt x="492" y="111" on="0"/>
        <pt x="392" y="-10" on="0"/>
        <pt x="325" y="-10" on="1"/>
        <pt x="292" y="-10" on="0"/>
        <pt x="195" y="17" on="0"/>
        <pt x="156" y="38" on="1"/>
        <pt x="148" y="10" on="0"/>
        <pt x="143" y="10" on="1"/>
        <pt x="138" y="5" on="0"/>
        <pt x="76" y="5" on="1"/>
        <pt x="17" y="5" on="0"/>
        <pt x="14" y="13" on="1"/>
        <pt x="10" y="14" on="0"/>
      </contour>
    </TTGlyph>
    <TTGlyph name="K" xMin="44" yMin="-7" xMax="747" yMax="700">
      <contour>
        <pt x="44" y="86" on="1"/>
        <pt x="44" y="134" on="0"/>
        <pt x="50" y="140" on="1"/>
        <pt x="59" y="145" on="0"/>
        <pt x="85" y="150" on="1"/>
        <pt x="103" y="153" on="0"/>
        <pt x="108" y="152" on="1"/>
        <pt x="96" y="252" on="0"/>
        <pt x="96" y="353" on="1"/>
        <pt x="96" y="450" on="0"/>
        <pt x="108" y="546" on="1"/>
        <pt x="103" y="546" on="0"/>
        <pt x="85" y="549" on="1"/>
        <pt x="59" y="553" on="0"/>
        <pt x="50" y="558" on="1"/>
        <pt x="44" y="564" on="0"/>
        <pt x="44" y="612" on="1"/>
        <pt x="44" y="664" on="0"/>
        <pt x="50" y="671" on="1"/>
        <pt x="73" y="698" on="0"/>
        <pt x="214" y="698" on="1"/>
        <pt x="304" y="698" on="0"/>
        <pt x="323" y="689" on="1"/>
        <pt x="329" y="679" on="0"/>
        <pt x="346" y="598" on="0"/>
        <pt x="346" y="577" on="1"/>
        <pt x="346" y="564" on="0"/>
        <pt x="343" y="560" on="1"/>
        <pt x="321" y="549" on="0"/>
        <pt x="295" y="549" on="1"/>
        <pt x="284" y="549" on="0"/>
        <pt x="278" y="550" on="1"/>
        <pt x="289" y="471" on="0"/>
        <pt x="290" y="436" on="1"/>
        <pt x="445" y="473" on="0"/>
        <pt x="494" y="551" on="1"/>
        <pt x="490" y="550" on="0"/>
        <pt x="481" y="550" on="1"/>
        <pt x="460" y="550" on="0"/>
        <pt x="443" y="564" on="1"/>
        <pt x="434" y="573" on="0"/>
        <pt x="434" y="607" on="1"/>
        <pt x="434" y="664" on="0"/>
        <pt x="445" y="690" on="1"/>
        <pt x="455" y="700" on="0"/>
        <pt x="530" y="700" on="1"/>
        <pt x="594" y="700" on="0"/>
        <pt x="707" y="684" on="0"/>
        <pt x="708" y="671" on="1"/>
        <pt x="720" y="658" on="0"/>
        <pt x="720" y="607" on="1"/>
        <pt x="720" y="573" on="0"/>
        <pt x="714" y="558" on="1"/>
        <pt x="684" y="545" on="0"/>
        <pt x="661" y="545" on="1"/>
        <pt x="652" y="545" on="0"/>
        <pt x="648" y="546" on="1"/>
        <pt x="629" y="454" on="0"/>
        <pt x="505" y="370" on="1"/>
        <pt x="557" y="327" on="0"/>
        <pt x="661" y="188" on="0"/>
        <pt x="682" y="148" on="1"/>
        <pt x="717" y="148" on="0"/>
        <pt x="725" y="140" on="1"/>
        <pt x="747" y="128" on="0"/>
        <pt x="747" y="68" on="1"/>
        <pt x="747" y="26" on="0"/>
        <pt x="741" y="13" on="1"/>
        <pt x="717" y="-4" on="0"/>
        <pt x="589" y="-4" on="1"/>
        <pt x="462" y="-4" on="0"/>
        <pt x="444" y="9" on="1"/>
        <pt x="422" y="15" on="0"/>
        <pt x="422" y="77" on="1"/>
        <pt x="422" y="114" on="0"/>
        <pt x="430" y="127" on="1"/>
        <pt x="437" y="140" on="0"/>
        <pt x="473" y="140" on="1"/>
        <pt x="464" y="159" on="0"/>
        <pt x="386" y="248" on="0"/>
        <pt x="336" y="284" on="1"/>
        <pt x="306" y="273" on="0"/>
        <pt x="287" y="271" on="1"/>
        <pt x="278" y="148" on="1"/>
        <pt x="284" y="149" on="0"/>
        <pt x="295" y="150" on="1"/>
        <pt x="321" y="150" on="0"/>
        <pt x="343" y="138" on="1"/>
        <pt x="346" y="134" on="0"/>
        <pt x="346" y="121" on="1"/>
        <pt x="346" y="100" on="0"/>
        <pt x="329" y="19" on="0"/>
        <pt x="323" y="9" on="1"/>
        <pt x="319" y="3" on="0"/>
        <pt x="225" y="-7" on="0"/>
        <pt x="188" y="-7" on="1"/>
        <pt x="139" y="-7" on="0"/>
        <pt x="59" y="14" on="0"/>
        <pt x="50" y="27" on="1"/>
        <pt x="44" y="34" on="0"/>
      </contour>
    </TTGlyph>
    <TTGlyph name="L" xMin="35" yMin="-2" xMax="640" yMax="707">
      <contour>
        <pt x="35" y="612" on="1"/>
        <pt x="35" y="676" on="0"/>
        <pt x="49" y="698" on="1"/>
        <pt x="82" y="707" on="0"/>
        <pt x="214" y="707" on="1"/>
        <pt x="360" y="707" on="0"/>
        <pt x="373" y="698" on="1"/>
        <pt x="388" y="672" on="0"/>
        <pt x="388" y="611" on="1"/>
        <pt x="388" y="586" on="0"/>
        <pt x="382" y="580" on="1"/>
        <pt x="360" y="572" on="0"/>
        <pt x="330" y="572" on="1"/>
        <pt x="311" y="572" on="0"/>
        <pt x="296" y="576" on="1"/>
        <pt x="293" y="519" on="0"/>
        <pt x="293" y="445" on="1"/>
        <pt x="293" y="295" on="0"/>
        <pt x="326" y="174" on="1"/>
        <pt x="330" y="165" on="0"/>
        <pt x="391" y="165" on="1"/>
        <pt x="446" y="165" on="0"/>
        <pt x="465" y="178" on="1"/>
        <pt x="462" y="241" on="1"/>
        <pt x="517" y="273" on="0"/>
        <pt x="571" y="273" on="1"/>
        <pt x="590" y="273" on="0"/>
        <pt x="617" y="268" on="1"/>
        <pt x="640" y="192" on="0"/>
        <pt x="640" y="120" on="1"/>
        <pt x="640" y="64" on="0"/>
        <pt x="630" y="34" on="1"/>
        <pt x="590" y="20" on="0"/>
        <pt x="370" y="-2" on="0"/>
        <pt x="272" y="-2" on="1"/>
        <pt x="117" y="-2" on="0"/>
        <pt x="53" y="28" on="1"/>
        <pt x="44" y="40" on="0"/>
        <pt x="44" y="61" on="1"/>
        <pt x="44" y="153" on="0"/>
        <pt x="71" y="167" on="1"/>
        <pt x="84" y="176" on="0"/>
        <pt x="99" y="176" on="1"/>
        <pt x="103" y="176" on="0"/>
        <pt x="113" y="174" on="1"/>
        <pt x="99" y="359" on="0"/>
        <pt x="99" y="428" on="1"/>
        <pt x="99" y="459" on="0"/>
        <pt x="109" y="577" on="1"/>
        <pt x="94" y="574" on="0"/>
        <pt x="78" y="574" on="1"/>
        <pt x="56" y="574" on="0"/>
        <pt x="40" y="580" on="1"/>
        <pt x="35" y="586" on="0"/>
      </contour>
    </TTGlyph>
    <TTGlyph name="M" xMin="39" yMin="0" xMax="776" yMax="698">
      <contour>
        <pt x="39" y="84" on="1"/>
        <pt x="39" y="124" on="0"/>
        <pt x="52" y="140" on="1"/>
        <pt x="78" y="152" on="0"/>
        <pt x="110" y="152" on="1"/>
        <pt x="98" y="252" on="0"/>
        <pt x="98" y="353" on="1"/>
        <pt x="98" y="450" on="0"/>
        <pt x="110" y="546" on="1"/>
        <pt x="105" y="546" on="0"/>
        <pt x="87" y="549" on="1"/>
        <pt x="61" y="553" on="0"/>
        <pt x="52" y="558" on="1"/>
        <pt x="45" y="566" on="0"/>
        <pt x="45" y="614" on="1"/>
        <pt x="45" y="661" on="0"/>
        <pt x="52" y="671" on="1"/>
        <pt x="59" y="683" on="0"/>
        <pt x="143" y="698" on="0"/>
        <pt x="183" y="698" on="1"/>
        <pt x="226" y="698" on="0"/>
        <pt x="327" y="680" on="0"/>
        <pt x="334" y="673" on="1"/>
        <pt x="350" y="637" on="0"/>
        <pt x="350" y="586" on="1"/>
        <pt x="350" y="568" on="0"/>
        <pt x="345" y="560" on="1"/>
        <pt x="324" y="550" on="0"/>
        <pt x="310" y="549" on="1"/>
        <pt x="350" y="504" on="0"/>
        <pt x="404" y="438" on="1"/>
        <pt x="457" y="502" on="0"/>
        <pt x="499" y="550" on="1"/>
        <pt x="479" y="554" on="0"/>
        <pt x="472" y="558" on="1"/>
        <pt x="465" y="566" on="0"/>
        <pt x="465" y="614" on="1"/>
        <pt x="465" y="661" on="0"/>
        <pt x="472" y="671" on="1"/>
        <pt x="480" y="683" on="0"/>
        <pt x="559" y="698" on="0"/>
        <pt x="611" y="698" on="1"/>
        <pt x="728" y="698" on="0"/>
        <pt x="765" y="671" on="1"/>
        <pt x="776" y="660" on="0"/>
        <pt x="776" y="622" on="1"/>
        <pt x="776" y="576" on="0"/>
        <pt x="765" y="560" on="1"/>
        <pt x="743" y="549" on="0"/>
        <pt x="717" y="549" on="1"/>
        <pt x="706" y="549" on="0"/>
        <pt x="700" y="550" on="1"/>
        <pt x="712" y="469" on="0"/>
        <pt x="712" y="374" on="1"/>
        <pt x="712" y="296" on="0"/>
        <pt x="700" y="148" on="1"/>
        <pt x="706" y="149" on="0"/>
        <pt x="717" y="149" on="1"/>
        <pt x="743" y="149" on="0"/>
        <pt x="765" y="138" on="1"/>
        <pt x="770" y="127" on="0"/>
        <pt x="770" y="102" on="1"/>
        <pt x="770" y="70" on="0"/>
        <pt x="755" y="12" on="0"/>
        <pt x="745" y="9" on="1"/>
        <pt x="725" y="0" on="0"/>
        <pt x="638" y="0" on="1"/>
        <pt x="510" y="0" on="0"/>
        <pt x="472" y="27" on="1"/>
        <pt x="458" y="41" on="0"/>
        <pt x="458" y="84" on="1"/>
        <pt x="458" y="125" on="0"/>
        <pt x="472" y="140" on="1"/>
        <pt x="481" y="145" on="0"/>
        <pt x="507" y="149" on="1"/>
        <pt x="525" y="152" on="0"/>
        <pt x="530" y="152" on="1"/>
        <pt x="518" y="252" on="0"/>
        <pt x="518" y="361" on="1"/>
        <pt x="457" y="279" on="0"/>
        <pt x="404" y="279" on="1"/>
        <pt x="352" y="279" on="0"/>
        <pt x="292" y="360" on="1"/>
        <pt x="289" y="268" on="0"/>
        <pt x="280" y="148" on="1"/>
        <pt x="286" y="149" on="0"/>
        <pt x="297" y="149" on="1"/>
        <pt x="323" y="149" on="0"/>
        <pt x="345" y="138" on="1"/>
        <pt x="361" y="118" on="0"/>
        <pt x="361" y="75" on="1"/>
        <pt x="361" y="41" on="0"/>
        <pt x="347" y="26" on="1"/>
        <pt x="309" y="0" on="0"/>
        <pt x="197" y="0" on="1"/>
        <pt x="71" y="0" on="0"/>
        <pt x="52" y="27" on="1"/>
        <pt x="39" y="37" on="0"/>
      </contour>
    </TTGlyph>
    <TTGlyph name="N" xMin="39" yMin="0" xMax="740" yMax="698">
      <contour>
        <pt x="39" y="38" on="0"/>
        <pt x="39" y="134" on="0"/>
        <pt x="54" y="140" on="1"/>
        <pt x="75" y="154" on="0"/>
        <pt x="96" y="154" on="1"/>
        <pt x="102" y="154" on="0"/>
        <pt x="112" y="152" on="1"/>
        <pt x="100" y="252" on="0"/>
        <pt x="100" y="353" on="1"/>
        <pt x="100" y="450" on="0"/>
        <pt x="112" y="546" on="1"/>
        <pt x="100" y="544" on="0"/>
        <pt x="93" y="544" on="1"/>
        <pt x="68" y="544" on="0"/>
        <pt x="54" y="558" on="1"/>
        <pt x="47" y="566" on="0"/>
        <pt x="47" y="614" on="1"/>
        <pt x="47" y="661" on="0"/>
        <pt x="54" y="671" on="1"/>
        <pt x="77" y="698" on="0"/>
        <pt x="216" y="698" on="1"/>
        <pt x="309" y="698" on="0"/>
        <pt x="327" y="689" on="1"/>
        <pt x="340" y="684" on="0"/>
        <pt x="357" y="640" on="0"/>
        <pt x="357" y="613" on="1"/>
        <pt x="357" y="584" on="0"/>
        <pt x="347" y="560" on="1"/>
        <pt x="329" y="547" on="0"/>
        <pt x="303" y="547" on="1"/>
        <pt x="292" y="547" on="0"/>
        <pt x="282" y="550" on="1"/>
        <pt x="373" y="481" on="0"/>
        <pt x="480" y="370" on="1"/>
        <pt x="480" y="458" on="0"/>
        <pt x="492" y="546" on="1"/>
        <pt x="486" y="545" on="0"/>
        <pt x="473" y="545" on="1"/>
        <pt x="448" y="545" on="0"/>
        <pt x="434" y="558" on="1"/>
        <pt x="420" y="578" on="0"/>
        <pt x="420" y="620" on="1"/>
        <pt x="420" y="661" on="0"/>
        <pt x="434" y="671" on="1"/>
        <pt x="457" y="698" on="0"/>
        <pt x="599" y="698" on="1"/>
        <pt x="687" y="698" on="0"/>
        <pt x="707" y="689" on="1"/>
        <pt x="720" y="684" on="0"/>
        <pt x="740" y="634" on="0"/>
        <pt x="740" y="607" on="1"/>
        <pt x="740" y="579" on="0"/>
        <pt x="727" y="560" on="1"/>
        <pt x="705" y="549" on="0"/>
        <pt x="679" y="549" on="1"/>
        <pt x="668" y="549" on="0"/>
        <pt x="662" y="550" on="1"/>
        <pt x="674" y="469" on="0"/>
        <pt x="674" y="374" on="1"/>
        <pt x="674" y="296" on="0"/>
        <pt x="662" y="148" on="1"/>
        <pt x="672" y="151" on="0"/>
        <pt x="685" y="151" on="1"/>
        <pt x="712" y="151" on="0"/>
        <pt x="727" y="138" on="1"/>
        <pt x="737" y="128" on="0"/>
        <pt x="737" y="74" on="0"/>
        <pt x="719" y="18" on="0"/>
        <pt x="707" y="9" on="1"/>
        <pt x="688" y="0" on="0"/>
        <pt x="598" y="0" on="1"/>
        <pt x="457" y="0" on="0"/>
        <pt x="434" y="27" on="1"/>
        <pt x="419" y="42" on="0"/>
        <pt x="419" y="89" on="1"/>
        <pt x="419" y="131" on="0"/>
        <pt x="434" y="140" on="1"/>
        <pt x="450" y="154" on="0"/>
        <pt x="474" y="154" on="1"/>
        <pt x="479" y="154" on="0"/>
        <pt x="489" y="152" on="1"/>
        <pt x="378" y="243" on="0"/>
        <pt x="293" y="344" on="1"/>
        <pt x="292" y="263" on="0"/>
        <pt x="282" y="148" on="1"/>
        <pt x="294" y="150" on="0"/>
        <pt x="303" y="150" on="1"/>
        <pt x="334" y="150" on="0"/>
        <pt x="347" y="138" on="1"/>
        <pt x="356" y="128" on="0"/>
        <pt x="356" y="72" on="0"/>
        <pt x="339" y="15" on="0"/>
        <pt x="327" y="9" on="1"/>
        <pt x="310" y="0" on="0"/>
        <pt x="214" y="0" on="1"/>
        <pt x="77" y="0" on="0"/>
        <pt x="54" y="27" on="1"/>
      </contour>
    </TTGlyph>
    <TTGlyph name="Ntilde" xMin="39" yMin="0" xMax="740" yMax="944">
      <contour>
        <pt x="39" y="38" on="0"/>
        <pt x="39" y="134" on="0"/>
        <pt x="54" y="140" on="1"/>
        <pt x="75" y="154" on="0"/>
        <pt x="96" y="154" on="1"/>
        <pt x="102" y="154" on="0"/>
        <pt x="112" y="152" on="1"/>
        <pt x="100" y="252" on="0"/>
        <pt x="100" y="353" on="1"/>
        <pt x="100" y="450" on="0"/>
        <pt x="112" y="546" on="1"/>
        <pt x="100" y="544" on="0"/>
        <pt x="93" y="544" on="1"/>
        <pt x="68" y="544" on="0"/>
        <pt x="54" y="558" on="1"/>
        <pt x="47" y="566" on="0"/>
        <pt x="47" y="614" on="1"/>
        <pt x="47" y="661" on="0"/>
        <pt x="54" y="671" on="1"/>
        <pt x="77" y="698" on="0"/>
        <pt x="216" y="698" on="1"/>
        <pt x="309" y="698" on="0"/>
        <pt x="327" y="689" on="1"/>
        <pt x="340" y="684" on="0"/>
        <pt x="357" y="640" on="0"/>
        <pt x="357" y="613" on="1"/>
        <pt x="357" y="584" on="0"/>
        <pt x="347" y="560" on="1"/>
        <pt x="329" y="547" on="0"/>
        <pt x="303" y="547" on="1"/>
        <pt x="292" y="547" on="0"/>
        <pt x="282" y="550" on="1"/>
        <pt x="373" y="481" on="0"/>
        <pt x="480" y="370" on="1"/>
        <pt x="480" y="458" on="0"/>
        <pt x="492" y="546" on="1"/>
        <pt x="486" y="545" on="0"/>
        <pt x="473" y="545" on="1"/>
        <pt x="448" y="545" on="0"/>
        <pt x="434" y="558" on="1"/>
        <pt x="420" y="578" on="0"/>
        <pt x="420" y="620" on="1"/>
        <pt x="420" y="661" on="0"/>
        <pt x="434" y="671" on="1"/>
        <pt x="457" y="698" on="0"/>
        <pt x="599" y="698" on="1"/>
        <pt x="687" y="698" on="0"/>
        <pt x="707" y="689" on="1"/>
        <pt x="720" y="684" on="0"/>
        <pt x="740" y="634" on="0"/>
        <pt x="740" y="607" on="1"/>
        <pt x="740" y="579" on="0"/>
        <pt x="727" y="560" on="1"/>
        <pt x="705" y="549" on="0"/>
        <pt x="679" y="549" on="1"/>
        <pt x="668" y="549" on="0"/>
        <pt x="662" y="550" on="1"/>
        <pt x="674" y="469" on="0"/>
        <pt x="674" y="374" on="1"/>
        <pt x="674" y="296" on="0"/>
        <pt x="662" y="148" on="1"/>
        <pt x="672" y="151" on="0"/>
        <pt x="685" y="151" on="1"/>
        <pt x="712" y="151" on="0"/>
        <pt x="727" y="138" on="1"/>
        <pt x="737" y="128" on="0"/>
        <pt x="737" y="74" on="0"/>
        <pt x="719" y="18" on="0"/>
        <pt x="707" y="9" on="1"/>
        <pt x="688" y="0" on="0"/>
        <pt x="598" y="0" on="1"/>
        <pt x="457" y="0" on="0"/>
        <pt x="434" y="27" on="1"/>
        <pt x="419" y="42" on="0"/>
        <pt x="419" y="89" on="1"/>
        <pt x="419" y="131" on="0"/>
        <pt x="434" y="140" on="1"/>
        <pt x="450" y="154" on="0"/>
        <pt x="474" y="154" on="1"/>
        <pt x="479" y="154" on="0"/>
        <pt x="489" y="152" on="1"/>
        <pt x="378" y="243" on="0"/>
        <pt x="293" y="344" on="1"/>
        <pt x="292" y="263" on="0"/>
        <pt x="282" y="148" on="1"/>
        <pt x="294" y="150" on="0"/>
        <pt x="303" y="150" on="1"/>
        <pt x="334" y="150" on="0"/>
        <pt x="347" y="138" on="1"/>
        <pt x="356" y="128" on="0"/>
        <pt x="356" y="72" on="0"/>
        <pt x="339" y="15" on="0"/>
        <pt x="327" y="9" on="1"/>
        <pt x="310" y="0" on="0"/>
        <pt x="214" y="0" on="1"/>
        <pt x="77" y="0" on="0"/>
        <pt x="54" y="27" on="1"/>
      </contour>
      <contour>
        <pt x="180" y="824" on="1"/>
        <pt x="189" y="889" on="0"/>
        <pt x="230" y="938" on="0"/>
        <pt x="273" y="938" on="1"/>
        <pt x="312" y="938" on="0"/>
        <pt x="408" y="890" on="0"/>
        <pt x="440" y="890" on="1"/>
        <pt x="459" y="890" on="0"/>
        <pt x="473" y="908" on="0"/>
        <pt x="481" y="942" on="1"/>
        <pt x="484" y="944" on="0"/>
        <pt x="492" y="944" on="1"/>
        <pt x="508" y="944" on="0"/>
        <pt x="547" y="915" on="0"/>
        <pt x="559" y="899" on="1"/>
        <pt x="550" y="834" on="0"/>
        <pt x="508" y="785" on="0"/>
        <pt x="467" y="785" on="1"/>
        <pt x="431" y="785" on="0"/>
        <pt x="332" y="833" on="0"/>
        <pt x="296" y="833" on="1"/>
        <pt x="279" y="833" on="0"/>
        <pt x="265" y="816" on="0"/>
        <pt x="258" y="782" on="1"/>
        <pt x="250" y="777" on="0"/>
        <pt x="242" y="777" on="1"/>
        <pt x="226" y="777" on="0"/>
        <pt x="188" y="805" on="0"/>
      </contour>
    </TTGlyph>
    <TTGlyph name="O" xMin="28" yMin="-10" xMax="710" yMax="702">
      <contour>
        <pt x="28" y="272" on="1"/>
        <pt x="28" y="347" on="0"/>
        <pt x="90" y="500" on="0"/>
        <pt x="195" y="624" on="0"/>
        <pt x="351" y="702" on="0"/>
        <pt x="438" y="702" on="1"/>
        <pt x="511" y="702" on="0"/>
        <pt x="619" y="647" on="0"/>
        <pt x="681" y="552" on="0"/>
        <pt x="710" y="437" on="0"/>
        <pt x="710" y="369" on="1"/>
        <pt x="710" y="183" on="0"/>
        <pt x="505" y="-10" on="0"/>
        <pt x="342" y="-10" on="1"/>
        <pt x="187" y="-10" on="0"/>
        <pt x="28" y="151" on="0"/>
      </contour>
      <contour>
        <pt x="240" y="305" on="1"/>
        <pt x="240" y="252" on="0"/>
        <pt x="304" y="177" on="0"/>
        <pt x="356" y="177" on="1"/>
        <pt x="424" y="177" on="0"/>
        <pt x="540" y="299" on="0"/>
        <pt x="540" y="376" on="1"/>
        <pt x="540" y="433" on="0"/>
        <pt x="474" y="510" on="0"/>
        <pt x="419" y="510" on="1"/>
        <pt x="346" y="510" on="0"/>
        <pt x="240" y="377" on="0"/>
      </contour>
    </TTGlyph>
    <TTGlyph name="OE" xMin="31" yMin="-15" xMax="880" yMax="712">
      <contour>
        <pt x="31" y="314" on="1"/>
        <pt x="31" y="416" on="0"/>
        <pt x="113" y="571" on="0"/>
        <pt x="261" y="665" on="0"/>
        <pt x="456" y="712" on="0"/>
        <pt x="575" y="712" on="1"/>
        <pt x="758" y="712" on="0"/>
        <pt x="870" y="674" on="1"/>
        <pt x="880" y="644" on="0"/>
        <pt x="880" y="588" on="1"/>
        <pt x="880" y="546" on="0"/>
        <pt x="857" y="470" on="1"/>
        <pt x="833" y="464" on="0"/>
        <pt x="810" y="464" on="1"/>
        <pt x="752" y="464" on="0"/>
        <pt x="702" y="497" on="1"/>
        <pt x="705" y="530" on="1"/>
        <pt x="686" y="543" on="0"/>
        <pt x="631" y="543" on="1"/>
        <pt x="570" y="543" on="0"/>
        <pt x="566" y="534" on="1"/>
        <pt x="562" y="452" on="0"/>
        <pt x="557" y="409" on="1"/>
        <pt x="595" y="409" on="0"/>
        <pt x="596" y="412" on="1"/>
        <pt x="595" y="415" on="0"/>
        <pt x="595" y="421" on="1"/>
        <pt x="595" y="432" on="0"/>
        <pt x="604" y="448" on="1"/>
        <pt x="611" y="453" on="0"/>
        <pt x="631" y="453" on="1"/>
        <pt x="655" y="453" on="0"/>
        <pt x="709" y="440" on="0"/>
        <pt x="709" y="432" on="1"/>
        <pt x="717" y="418" on="0"/>
        <pt x="717" y="382" on="1"/>
        <pt x="717" y="349" on="0"/>
        <pt x="704" y="284" on="0"/>
        <pt x="694" y="274" on="1"/>
        <pt x="686" y="267" on="0"/>
        <pt x="608" y="267" on="0"/>
        <pt x="602" y="274" on="1"/>
        <pt x="593" y="286" on="0"/>
        <pt x="593" y="304" on="1"/>
        <pt x="552" y="299" on="1"/>
        <pt x="552" y="290" on="0"/>
        <pt x="541" y="185" on="1"/>
        <pt x="576" y="156" on="0"/>
        <pt x="627" y="156" on="1"/>
        <pt x="671" y="156" on="0"/>
        <pt x="705" y="174" on="1"/>
        <pt x="702" y="207" on="1"/>
        <pt x="752" y="240" on="0"/>
        <pt x="810" y="240" on="1"/>
        <pt x="833" y="240" on="0"/>
        <pt x="857" y="234" on="1"/>
        <pt x="880" y="158" on="0"/>
        <pt x="880" y="116" on="1"/>
        <pt x="880" y="60" on="0"/>
        <pt x="870" y="30" on="1"/>
        <pt x="688" y="-15" on="0"/>
        <pt x="495" y="-15" on="1"/>
        <pt x="414" y="-15" on="0"/>
        <pt x="282" y="2" on="0"/>
        <pt x="161" y="48" on="0"/>
        <pt x="79" y="120" on="0"/>
        <pt x="31" y="237" on="0"/>
      </contour>
      <contour>
        <pt x="228" y="313" on="1"/>
        <pt x="228" y="259" on="0"/>
        <pt x="307" y="183" on="0"/>
        <pt x="377" y="176" on="1"/>
        <pt x="375" y="204" on="0"/>
        <pt x="375" y="266" on="1"/>
        <pt x="375" y="447" on="0"/>
        <pt x="384" y="535" on="1"/>
        <pt x="315" y="503" on="0"/>
        <pt x="228" y="372" on="0"/>
      </contour>
    </TTGlyph>
    <TTGlyph name="Oacute" xMin="28" yMin="-10" xMax="710" yMax="948">
      <contour>
        <pt x="28" y="272" on="1"/>
        <pt x="28" y="347" on="0"/>
        <pt x="90" y="500" on="0"/>
        <pt x="195" y="624" on="0"/>
        <pt x="351" y="702" on="0"/>
        <pt x="438" y="702" on="1"/>
        <pt x="511" y="702" on="0"/>
        <pt x="619" y="647" on="0"/>
        <pt x="681" y="552" on="0"/>
        <pt x="710" y="437" on="0"/>
        <pt x="710" y="369" on="1"/>
        <pt x="710" y="183" on="0"/>
        <pt x="505" y="-10" on="0"/>
        <pt x="342" y="-10" on="1"/>
        <pt x="187" y="-10" on="0"/>
        <pt x="28" y="151" on="0"/>
      </contour>
      <contour>
        <pt x="240" y="305" on="1"/>
        <pt x="240" y="252" on="0"/>
        <pt x="304" y="177" on="0"/>
        <pt x="356" y="177" on="1"/>
        <pt x="424" y="177" on="0"/>
        <pt x="540" y="299" on="0"/>
        <pt x="540" y="376" on="1"/>
        <pt x="540" y="433" on="0"/>
        <pt x="474" y="510" on="0"/>
        <pt x="419" y="510" on="1"/>
        <pt x="346" y="510" on="0"/>
        <pt x="240" y="377" on="0"/>
      </contour>
      <contour>
        <pt x="399" y="795" on="1"/>
        <pt x="440" y="899" on="0"/>
        <pt x="484" y="946" on="1"/>
        <pt x="502" y="948" on="0"/>
        <pt x="512" y="948" on="1"/>
        <pt x="556" y="948" on="0"/>
        <pt x="593" y="922" on="1"/>
        <pt x="552" y="852" on="0"/>
        <pt x="459" y="795" on="1"/>
        <pt x="435" y="787" on="0"/>
        <pt x="424" y="787" on="1"/>
        <pt x="410" y="787" on="0"/>
      </contour>
    </TTGlyph>
    <TTGlyph name="Ocircumflex" xMin="28" yMin="-10" xMax="710" yMax="949">
      <contour>
        <pt x="28" y="272" on="1"/>
        <pt x="28" y="347" on="0"/>
        <pt x="90" y="500" on="0"/>
        <pt x="195" y="624" on="0"/>
        <pt x="351" y="702" on="0"/>
        <pt x="438" y="702" on="1"/>
        <pt x="511" y="702" on="0"/>
        <pt x="619" y="647" on="0"/>
        <pt x="681" y="552" on="0"/>
        <pt x="710" y="437" on="0"/>
        <pt x="710" y="369" on="1"/>
        <pt x="710" y="183" on="0"/>
        <pt x="505" y="-10" on="0"/>
        <pt x="342" y="-10" on="1"/>
        <pt x="187" y="-10" on="0"/>
        <pt x="28" y="151" on="0"/>
      </contour>
      <contour>
        <pt x="240" y="305" on="1"/>
        <pt x="240" y="252" on="0"/>
        <pt x="304" y="177" on="0"/>
        <pt x="356" y="177" on="1"/>
        <pt x="424" y="177" on="0"/>
        <pt x="540" y="299" on="0"/>
        <pt x="540" y="376" on="1"/>
        <pt x="540" y="433" on="0"/>
        <pt x="474" y="510" on="0"/>
        <pt x="419" y="510" on="1"/>
        <pt x="346" y="510" on="0"/>
        <pt x="240" y="377" on="0"/>
      </contour>
      <contour>
        <pt x="264" y="793" on="1"/>
        <pt x="267" y="798" on="0"/>
        <pt x="287" y="834" on="0"/>
        <pt x="295" y="848" on="0"/>
        <pt x="315" y="878" on="0"/>
        <pt x="329" y="897" on="0"/>
        <pt x="351" y="923" on="0"/>
        <pt x="363" y="934" on="1"/>
        <pt x="382" y="949" on="0"/>
        <pt x="402" y="949" on="1"/>
        <pt x="422" y="949" on="0"/>
        <pt x="447" y="934" on="1"/>
        <pt x="502" y="882" on="0"/>
        <pt x="546" y="793" on="1"/>
        <pt x="532" y="785" on="0"/>
        <pt x="506" y="785" on="0"/>
        <pt x="490" y="793" on="1"/>
        <pt x="432" y="823" on="0"/>
        <pt x="405" y="864" on="1"/>
        <pt x="364" y="813" on="0"/>
        <pt x="320" y="793" on="1"/>
        <pt x="305" y="787" on="0"/>
        <pt x="292" y="787" on="1"/>
        <pt x="278" y="787" on="0"/>
      </contour>
    </TTGlyph>
    <TTGlyph name="Odieresis" xMin="28" yMin="-10" xMax="710" yMax="942">
      <contour>
        <pt x="28" y="272" on="1"/>
        <pt x="28" y="347" on="0"/>
        <pt x="90" y="500" on="0"/>
        <pt x="195" y="624" on="0"/>
        <pt x="351" y="702" on="0"/>
        <pt x="438" y="702" on="1"/>
        <pt x="511" y="702" on="0"/>
        <pt x="619" y="647" on="0"/>
        <pt x="681" y="552" on="0"/>
        <pt x="710" y="437" on="0"/>
        <pt x="710" y="369" on="1"/>
        <pt x="710" y="183" on="0"/>
        <pt x="505" y="-10" on="0"/>
        <pt x="342" y="-10" on="1"/>
        <pt x="187" y="-10" on="0"/>
        <pt x="28" y="151" on="0"/>
      </contour>
      <contour>
        <pt x="240" y="305" on="1"/>
        <pt x="240" y="252" on="0"/>
        <pt x="304" y="177" on="0"/>
        <pt x="356" y="177" on="1"/>
        <pt x="424" y="177" on="0"/>
        <pt x="540" y="299" on="0"/>
        <pt x="540" y="376" on="1"/>
        <pt x="540" y="433" on="0"/>
        <pt x="474" y="510" on="0"/>
        <pt x="419" y="510" on="1"/>
        <pt x="346" y="510" on="0"/>
        <pt x="240" y="377" on="0"/>
      </contour>
      <contour>
        <pt x="247" y="870" on="1"/>
        <pt x="247" y="899" on="0"/>
        <pt x="265" y="925" on="1"/>
        <pt x="288" y="942" on="0"/>
        <pt x="338" y="942" on="0"/>
        <pt x="364" y="925" on="1"/>
        <pt x="381" y="898" on="0"/>
        <pt x="381" y="838" on="0"/>
        <pt x="364" y="806" on="1"/>
        <pt x="335" y="787" on="0"/>
        <pt x="287" y="787" on="0"/>
        <pt x="265" y="806" on="1"/>
        <pt x="247" y="840" on="0"/>
      </contour>
      <contour>
        <pt x="437" y="870" on="1"/>
        <pt x="437" y="899" on="0"/>
        <pt x="455" y="925" on="1"/>
        <pt x="478" y="942" on="0"/>
        <pt x="528" y="942" on="0"/>
        <pt x="554" y="925" on="1"/>
        <pt x="571" y="898" on="0"/>
        <pt x="571" y="838" on="0"/>
        <pt x="554" y="806" on="1"/>
        <pt x="525" y="787" on="0"/>
        <pt x="477" y="787" on="0"/>
        <pt x="455" y="806" on="1"/>
        <pt x="437" y="840" on="0"/>
      </contour>
    </TTGlyph>
    <TTGlyph name="Ograve" xMin="28" yMin="-10" xMax="710" yMax="947">
      <contour>
        <pt x="28" y="272" on="1"/>
        <pt x="28" y="347" on="0"/>
        <pt x="90" y="500" on="0"/>
        <pt x="195" y="624" on="0"/>
        <pt x="351" y="702" on="0"/>
        <pt x="438" y="702" on="1"/>
        <pt x="511" y="702" on="0"/>
        <pt x="619" y="647" on="0"/>
        <pt x="681" y="552" on="0"/>
        <pt x="710" y="437" on="0"/>
        <pt x="710" y="369" on="1"/>
        <pt x="710" y="183" on="0"/>
        <pt x="505" y="-10" on="0"/>
        <pt x="342" y="-10" on="1"/>
        <pt x="187" y="-10" on="0"/>
        <pt x="28" y="151" on="0"/>
      </contour>
      <contour>
        <pt x="240" y="305" on="1"/>
        <pt x="240" y="252" on="0"/>
        <pt x="304" y="177" on="0"/>
        <pt x="356" y="177" on="1"/>
        <pt x="424" y="177" on="0"/>
        <pt x="540" y="299" on="0"/>
        <pt x="540" y="376" on="1"/>
        <pt x="540" y="433" on="0"/>
        <pt x="474" y="510" on="0"/>
        <pt x="419" y="510" on="1"/>
        <pt x="346" y="510" on="0"/>
        <pt x="240" y="377" on="0"/>
      </contour>
      <contour>
        <pt x="258" y="921" on="1"/>
        <pt x="295" y="947" on="0"/>
        <pt x="339" y="947" on="1"/>
        <pt x="358" y="947" on="0"/>
        <pt x="366" y="945" on="1"/>
        <pt x="411" y="896" on="0"/>
        <pt x="452" y="794" on="1"/>
        <pt x="441" y="786" on="0"/>
        <pt x="427" y="786" on="1"/>
        <pt x="416" y="786" on="0"/>
        <pt x="392" y="794" on="1"/>
        <pt x="299" y="851" on="0"/>
      </contour>
    </TTGlyph>
    <TTGlyph name="Oslash" xMin="28" yMin="-96" xMax="710" yMax="765">
      <contour>
        <pt x="28" y="273" on="1"/>
        <pt x="28" y="348" on="0"/>
        <pt x="89" y="500" on="0"/>
        <pt x="195" y="624" on="0"/>
        <pt x="355" y="702" on="0"/>
        <pt x="446" y="702" on="1"/>
        <pt x="492" y="702" on="0"/>
        <pt x="528" y="690" on="1"/>
        <pt x="566" y="732" on="0"/>
        <pt x="586" y="752" on="1"/>
        <pt x="611" y="765" on="0"/>
        <pt x="629" y="765" on="1"/>
        <pt x="656" y="765" on="0"/>
        <pt x="666" y="735" on="1"/>
        <pt x="637" y="646" on="0"/>
        <pt x="629" y="625" on="1"/>
        <pt x="710" y="534" on="0"/>
        <pt x="710" y="365" on="1"/>
        <pt x="710" y="184" on="0"/>
        <pt x="505" y="-10" on="0"/>
        <pt x="345" y="-10" on="1"/>
        <pt x="301" y="-10" on="0"/>
        <pt x="259" y="-2" on="1"/>
        <pt x="248" y="-15" on="0"/>
        <pt x="194" y="-74" on="1"/>
        <pt x="168" y="-96" on="0"/>
        <pt x="148" y="-96" on="1"/>
        <pt x="123" y="-96" on="0"/>
        <pt x="114" y="-57" on="1"/>
        <pt x="125" y="-24" on="0"/>
        <pt x="149" y="38" on="1"/>
        <pt x="88" y="76" on="0"/>
        <pt x="28" y="199" on="0"/>
      </contour>
      <contour>
        <pt x="240" y="305" on="1"/>
        <pt x="240" y="256" on="0"/>
        <pt x="266" y="221" on="1"/>
        <pt x="344" y="385" on="0"/>
        <pt x="428" y="509" on="1"/>
        <pt x="427" y="509" on="0"/>
        <pt x="422" y="510" on="0"/>
        <pt x="417" y="510" on="1"/>
        <pt x="346" y="510" on="0"/>
        <pt x="240" y="376" on="0"/>
      </contour>
      <contour>
        <pt x="360" y="177" on="1"/>
        <pt x="424" y="177" on="0"/>
        <pt x="540" y="299" on="0"/>
        <pt x="540" y="377" on="1"/>
        <pt x="540" y="421" on="0"/>
        <pt x="518" y="456" on="1"/>
        <pt x="452" y="317" on="0"/>
      </contour>
    </TTGlyph>
    <TTGlyph name="Otilde" xMin="28" yMin="-10" xMax="710" yMax="944">
      <contour>
        <pt x="28" y="272" on="1"/>
        <pt x="28" y="347" on="0"/>
        <pt x="90" y="500" on="0"/>
        <pt x="195" y="624" on="0"/>
        <pt x="351" y="702" on="0"/>
        <pt x="438" y="702" on="1"/>
        <pt x="511" y="702" on="0"/>
        <pt x="619" y="647" on="0"/>
        <pt x="681" y="552" on="0"/>
        <pt x="710" y="437" on="0"/>
        <pt x="710" y="369" on="1"/>
        <pt x="710" y="183" on="0"/>
        <pt x="505" y="-10" on="0"/>
        <pt x="342" y="-10" on="1"/>
        <pt x="187" y="-10" on="0"/>
        <pt x="28" y="151" on="0"/>
      </contour>
      <contour>
        <pt x="196" y="824" on="1"/>
        <pt x="205" y="889" on="0"/>
        <pt x="246" y="938" on="0"/>
        <pt x="289" y="938" on="1"/>
        <pt x="328" y="938" on="0"/>
        <pt x="424" y="890" on="0"/>
        <pt x="456" y="890" on="1"/>
        <pt x="475" y="890" on="0"/>
        <pt x="489" y="908" on="0"/>
        <pt x="497" y="942" on="1"/>
        <pt x="500" y="944" on="0"/>
        <pt x="508" y="944" on="1"/>
        <pt x="524" y="944" on="0"/>
        <pt x="563" y="915" on="0"/>
        <pt x="575" y="899" on="1"/>
        <pt x="566" y="834" on="0"/>
        <pt x="524" y="785" on="0"/>
        <pt x="483" y="785" on="1"/>
        <pt x="447" y="785" on="0"/>
        <pt x="348" y="833" on="0"/>
        <pt x="312" y="833" on="1"/>
        <pt x="295" y="833" on="0"/>
        <pt x="281" y="816" on="0"/>
        <pt x="274" y="782" on="1"/>
        <pt x="266" y="777" on="0"/>
        <pt x="258" y="777" on="1"/>
        <pt x="242" y="777" on="0"/>
        <pt x="204" y="805" on="0"/>
      </contour>
      <contour>
        <pt x="240" y="305" on="1"/>
        <pt x="240" y="252" on="0"/>
        <pt x="304" y="177" on="0"/>
        <pt x="356" y="177" on="1"/>
        <pt x="424" y="177" on="0"/>
        <pt x="540" y="299" on="0"/>
        <pt x="540" y="376" on="1"/>
        <pt x="540" y="433" on="0"/>
        <pt x="474" y="510" on="0"/>
        <pt x="419" y="510" on="1"/>
        <pt x="346" y="510" on="0"/>
        <pt x="240" y="377" on="0"/>
      </contour>
    </TTGlyph>
    <TTGlyph name="P" xMin="32" yMin="-1" xMax="639" yMax="706">
      <contour>
        <pt x="32" y="608" on="1"/>
        <pt x="32" y="656" on="0"/>
        <pt x="50" y="667" on="1"/>
        <pt x="59" y="684" on="0"/>
        <pt x="160" y="704" on="0"/>
        <pt x="218" y="704" on="1"/>
        <pt x="277" y="704" on="0"/>
        <pt x="303" y="694" on="1"/>
        <pt x="308" y="675" on="0"/>
        <pt x="308" y="659" on="1"/>
        <pt x="308" y="651" on="0"/>
        <pt x="307" y="650" on="1"/>
        <pt x="318" y="654" on="0"/>
        <pt x="429" y="706" on="0"/>
        <pt x="463" y="706" on="1"/>
        <pt x="516" y="706" on="0"/>
        <pt x="600" y="620" on="0"/>
        <pt x="639" y="502" on="0"/>
        <pt x="639" y="444" on="1"/>
        <pt x="639" y="347" on="0"/>
        <pt x="522" y="216" on="0"/>
        <pt x="421" y="216" on="1"/>
        <pt x="373" y="216" on="0"/>
        <pt x="331" y="228" on="1"/>
        <pt x="333" y="220" on="0"/>
        <pt x="333" y="205" on="1"/>
        <pt x="333" y="165" on="0"/>
        <pt x="327" y="129" on="1"/>
        <pt x="331" y="130" on="0"/>
        <pt x="353" y="130" on="1"/>
        <pt x="369" y="130" on="0"/>
        <pt x="404" y="120" on="0"/>
        <pt x="409" y="112" on="1"/>
        <pt x="424" y="102" on="0"/>
        <pt x="424" y="66" on="1"/>
        <pt x="424" y="35" on="0"/>
        <pt x="409" y="19" on="1"/>
        <pt x="403" y="-1" on="0"/>
        <pt x="233" y="-1" on="1"/>
        <pt x="163" y="-1" on="0"/>
        <pt x="49" y="10" on="0"/>
        <pt x="46" y="19" on="1"/>
        <pt x="33" y="33" on="0"/>
        <pt x="33" y="63" on="1"/>
        <pt x="33" y="94" on="0"/>
        <pt x="46" y="112" on="1"/>
        <pt x="51" y="120" on="0"/>
        <pt x="86" y="130" on="0"/>
        <pt x="102" y="130" on="1"/>
        <pt x="114" y="130" on="0"/>
        <pt x="118" y="129" on="1"/>
        <pt x="118" y="146" on="0"/>
        <pt x="116" y="238" on="0"/>
        <pt x="116" y="287" on="1"/>
        <pt x="116" y="464" on="0"/>
        <pt x="126" y="520" on="1"/>
        <pt x="123" y="519" on="0"/>
        <pt x="109" y="519" on="1"/>
        <pt x="86" y="519" on="0"/>
        <pt x="55" y="526" on="1"/>
        <pt x="32" y="553" on="0"/>
      </contour>
      <contour>
        <pt x="326" y="428" on="1"/>
        <pt x="326" y="396" on="0"/>
        <pt x="358" y="363" on="0"/>
        <pt x="383" y="363" on="1"/>
        <pt x="420" y="363" on="0"/>
        <pt x="487" y="426" on="0"/>
        <pt x="487" y="469" on="1"/>
        <pt x="487" y="499" on="0"/>
        <pt x="453" y="539" on="0"/>
        <pt x="425" y="539" on="1"/>
        <pt x="387" y="539" on="0"/>
        <pt x="326" y="473" on="0"/>
      </contour>
    </TTGlyph>
    <TTGlyph name="Q" xMin="28" yMin="-197" xMax="738" yMax="702">
      <contour>
        <pt x="28" y="272" on="1"/>
        <pt x="28" y="347" on="0"/>
        <pt x="90" y="500" on="0"/>
        <pt x="195" y="624" on="0"/>
        <pt x="351" y="702" on="0"/>
        <pt x="438" y="702" on="1"/>
        <pt x="511" y="702" on="0"/>
        <pt x="619" y="648" on="0"/>
        <pt x="681" y="552" on="0"/>
        <pt x="710" y="436" on="0"/>
        <pt x="710" y="368" on="1"/>
        <pt x="710" y="195" on="0"/>
        <pt x="614" y="93" on="1"/>
        <pt x="632" y="31" on="0"/>
        <pt x="640" y="0" on="1"/>
        <pt x="660" y="16" on="0"/>
        <pt x="684" y="16" on="1"/>
        <pt x="696" y="16" on="0"/>
        <pt x="704" y="12" on="1"/>
        <pt x="718" y="5" on="0"/>
        <pt x="738" y="-48" on="0"/>
        <pt x="738" y="-76" on="1"/>
        <pt x="738" y="-102" on="0"/>
        <pt x="730" y="-115" on="1"/>
        <pt x="705" y="-143" on="0"/>
        <pt x="554" y="-197" on="0"/>
        <pt x="499" y="-197" on="1"/>
        <pt x="478" y="-197" on="0"/>
        <pt x="467" y="-192" on="1"/>
        <pt x="452" y="-186" on="0"/>
        <pt x="422" y="-125" on="0"/>
        <pt x="422" y="-99" on="1"/>
        <pt x="422" y="-91" on="0"/>
        <pt x="423" y="-87" on="1"/>
        <pt x="427" y="-73" on="0"/>
        <pt x="463" y="-55" on="0"/>
        <pt x="479" y="-55" on="1"/>
        <pt x="473" y="-44" on="0"/>
        <pt x="454" y="-4" on="0"/>
        <pt x="451" y="2" on="1"/>
        <pt x="402" y="-10" on="0"/>
        <pt x="344" y="-10" on="1"/>
        <pt x="187" y="-10" on="0"/>
        <pt x="28" y="151" on="0"/>
      </contour>
      <contour>
        <pt x="240" y="305" on="1"/>
        <pt x="240" y="252" on="0"/>
        <pt x="304" y="177" on="0"/>
        <pt x="356" y="177" on="1"/>
        <pt x="424" y="177" on="0"/>
        <pt x="540" y="299" on="0"/>
        <pt x="540" y="376" on="1"/>
        <pt x="540" y="433" on="0"/>
        <pt x="474" y="510" on="0"/>
        <pt x="419" y="510" on="1"/>
        <pt x="346" y="510" on="0"/>
        <pt x="240" y="377" on="0"/>
      </contour>
    </TTGlyph>
    <TTGlyph name="R" xMin="32" yMin="-1" xMax="738" yMax="706">
      <contour>
        <pt x="32" y="601" on="1"/>
        <pt x="32" y="650" on="0"/>
        <pt x="48" y="667" on="1"/>
        <pt x="61" y="685" on="0"/>
        <pt x="150" y="704" on="0"/>
        <pt x="201" y="704" on="1"/>
        <pt x="256" y="704" on="0"/>
        <pt x="281" y="694" on="1"/>
        <pt x="286" y="675" on="0"/>
        <pt x="286" y="659" on="1"/>
        <pt x="286" y="651" on="0"/>
        <pt x="285" y="650" on="1"/>
        <pt x="299" y="654" on="0"/>
        <pt x="408" y="706" on="0"/>
        <pt x="441" y="706" on="1"/>
        <pt x="514" y="706" on="0"/>
        <pt x="626" y="554" on="0"/>
        <pt x="626" y="466" on="1"/>
        <pt x="626" y="407" on="0"/>
        <pt x="571" y="301" on="0"/>
        <pt x="525" y="278" on="1"/>
        <pt x="582" y="238" on="0"/>
        <pt x="675" y="133" on="0"/>
        <pt x="679" y="114" on="1"/>
        <pt x="687" y="118" on="0"/>
        <pt x="697" y="118" on="1"/>
        <pt x="708" y="118" on="0"/>
        <pt x="723" y="112" on="1"/>
        <pt x="738" y="98" on="0"/>
        <pt x="738" y="30" on="0"/>
        <pt x="725" y="17" on="1"/>
        <pt x="692" y="0" on="0"/>
        <pt x="586" y="0" on="1"/>
        <pt x="515" y="0" on="0"/>
        <pt x="466" y="17" on="1"/>
        <pt x="456" y="21" on="0"/>
        <pt x="442" y="54" on="0"/>
        <pt x="442" y="74" on="1"/>
        <pt x="442" y="99" on="0"/>
        <pt x="453" y="110" on="1"/>
        <pt x="460" y="116" on="0"/>
        <pt x="470" y="116" on="1"/>
        <pt x="477" y="116" on="0"/>
        <pt x="489" y="112" on="1"/>
        <pt x="480" y="134" on="0"/>
        <pt x="451" y="171" on="0"/>
        <pt x="421" y="194" on="0"/>
        <pt x="388" y="212" on="0"/>
        <pt x="358" y="221" on="0"/>
        <pt x="336" y="226" on="0"/>
        <pt x="328" y="227" on="1"/>
        <pt x="319" y="228" on="1"/>
        <pt x="324" y="203" on="0"/>
        <pt x="324" y="176" on="1"/>
        <pt x="324" y="150" on="0"/>
        <pt x="319" y="127" on="1"/>
        <pt x="326" y="130" on="0"/>
        <pt x="338" y="130" on="1"/>
        <pt x="370" y="130" on="0"/>
        <pt x="387" y="112" on="1"/>
        <pt x="391" y="103" on="0"/>
        <pt x="391" y="65" on="1"/>
        <pt x="391" y="28" on="0"/>
        <pt x="387" y="19" on="1"/>
        <pt x="381" y="-1" on="0"/>
        <pt x="211" y="-1" on="1"/>
        <pt x="50" y="-1" on="0"/>
        <pt x="44" y="19" on="1"/>
        <pt x="40" y="28" on="0"/>
        <pt x="40" y="65" on="1"/>
        <pt x="40" y="103" on="0"/>
        <pt x="44" y="112" on="1"/>
        <pt x="49" y="120" on="0"/>
        <pt x="84" y="130" on="0"/>
        <pt x="100" y="130" on="1"/>
        <pt x="112" y="130" on="0"/>
        <pt x="116" y="129" on="1"/>
        <pt x="116" y="146" on="0"/>
        <pt x="114" y="238" on="0"/>
        <pt x="114" y="287" on="1"/>
        <pt x="114" y="464" on="0"/>
        <pt x="124" y="520" on="1"/>
        <pt x="112" y="515" on="0"/>
        <pt x="93" y="515" on="1"/>
        <pt x="64" y="515" on="0"/>
        <pt x="53" y="526" on="1"/>
        <pt x="32" y="541" on="0"/>
      </contour>
      <contour>
        <pt x="304" y="428" on="1"/>
        <pt x="304" y="396" on="0"/>
        <pt x="336" y="363" on="0"/>
        <pt x="361" y="363" on="1"/>
        <pt x="398" y="363" on="0"/>
        <pt x="465" y="426" on="0"/>
        <pt x="465" y="469" on="1"/>
        <pt x="465" y="499" on="0"/>
        <pt x="431" y="539" on="0"/>
        <pt x="403" y="539" on="1"/>
        <pt x="365" y="539" on="0"/>
        <pt x="304" y="473" on="0"/>
      </contour>
    </TTGlyph>
    <TTGlyph name="S" xMin="38" yMin="-20" xMax="576" yMax="726">
      <contour>
        <pt x="38" y="461" on="1"/>
        <pt x="38" y="570" on="0"/>
        <pt x="187" y="710" on="0"/>
        <pt x="287" y="710" on="1"/>
        <pt x="358" y="710" on="0"/>
        <pt x="422" y="674" on="1"/>
        <pt x="428" y="704" on="0"/>
        <pt x="443" y="716" on="1"/>
        <pt x="462" y="726" on="0"/>
        <pt x="491" y="726" on="1"/>
        <pt x="537" y="726" on="0"/>
        <pt x="555" y="708" on="1"/>
        <pt x="561" y="690" on="0"/>
        <pt x="561" y="638" on="1"/>
        <pt x="561" y="504" on="0"/>
        <pt x="520" y="495" on="1"/>
        <pt x="503" y="490" on="0"/>
        <pt x="487" y="490" on="1"/>
        <pt x="450" y="490" on="0"/>
        <pt x="428" y="505" on="1"/>
        <pt x="422" y="520" on="0"/>
        <pt x="422" y="538" on="1"/>
        <pt x="388" y="566" on="0"/>
        <pt x="346" y="566" on="1"/>
        <pt x="303" y="566" on="0"/>
        <pt x="237" y="506" on="0"/>
        <pt x="237" y="470" on="1"/>
        <pt x="237" y="411" on="0"/>
        <pt x="324" y="411" on="1"/>
        <pt x="333" y="411" on="0"/>
        <pt x="414" y="413" on="0"/>
        <pt x="423" y="413" on="1"/>
        <pt x="488" y="413" on="0"/>
        <pt x="576" y="339" on="0"/>
        <pt x="576" y="252" on="1"/>
        <pt x="576" y="137" on="0"/>
        <pt x="420" y="-10" on="0"/>
        <pt x="299" y="-10" on="1"/>
        <pt x="229" y="-10" on="0"/>
        <pt x="178" y="27" on="1"/>
        <pt x="178" y="2" on="0"/>
        <pt x="168" y="-10" on="1"/>
        <pt x="150" y="-20" on="0"/>
        <pt x="109" y="-20" on="1"/>
        <pt x="65" y="-20" on="0"/>
        <pt x="49" y="-5" on="1"/>
        <pt x="43" y="32" on="0"/>
        <pt x="43" y="67" on="1"/>
        <pt x="43" y="160" on="0"/>
        <pt x="86" y="235" on="1"/>
        <pt x="104" y="242" on="0"/>
        <pt x="123" y="242" on="1"/>
        <pt x="160" y="242" on="0"/>
        <pt x="177" y="225" on="1"/>
        <pt x="182" y="212" on="0"/>
        <pt x="184" y="187" on="1"/>
        <pt x="213" y="153" on="0"/>
        <pt x="265" y="153" on="1"/>
        <pt x="318" y="153" on="0"/>
        <pt x="380" y="193" on="0"/>
        <pt x="380" y="225" on="1"/>
        <pt x="380" y="243" on="0"/>
        <pt x="361" y="266" on="0"/>
        <pt x="321" y="277" on="0"/>
        <pt x="294" y="280" on="0"/>
        <pt x="270" y="281" on="1"/>
        <pt x="245" y="282" on="0"/>
        <pt x="215" y="285" on="0"/>
        <pt x="160" y="295" on="0"/>
        <pt x="125" y="309" on="0"/>
        <pt x="81" y="336" on="0"/>
        <pt x="56" y="371" on="0"/>
        <pt x="38" y="427" on="0"/>
      </contour>
    </TTGlyph>
    <TTGlyph name="Scaron" xMin="38" yMin="-20" xMax="576" yMax="939">
      <contour>
        <pt x="38" y="461" on="1"/>
        <pt x="38" y="570" on="0"/>
        <pt x="187" y="710" on="0"/>
        <pt x="287" y="710" on="1"/>
        <pt x="358" y="710" on="0"/>
        <pt x="422" y="674" on="1"/>
        <pt x="428" y="704" on="0"/>
        <pt x="443" y="716" on="1"/>
        <pt x="462" y="726" on="0"/>
        <pt x="491" y="726" on="1"/>
        <pt x="537" y="726" on="0"/>
        <pt x="555" y="708" on="1"/>
        <pt x="561" y="690" on="0"/>
        <pt x="561" y="638" on="1"/>
        <pt x="561" y="504" on="0"/>
        <pt x="520" y="495" on="1"/>
        <pt x="503" y="490" on="0"/>
        <pt x="487" y="490" on="1"/>
        <pt x="450" y="490" on="0"/>
        <pt x="428" y="505" on="1"/>
        <pt x="422" y="520" on="0"/>
        <pt x="422" y="538" on="1"/>
        <pt x="388" y="566" on="0"/>
        <pt x="346" y="566" on="1"/>
        <pt x="303" y="566" on="0"/>
        <pt x="237" y="506" on="0"/>
        <pt x="237" y="470" on="1"/>
        <pt x="237" y="411" on="0"/>
        <pt x="324" y="411" on="1"/>
        <pt x="333" y="411" on="0"/>
        <pt x="414" y="413" on="0"/>
        <pt x="423" y="413" on="1"/>
        <pt x="488" y="413" on="0"/>
        <pt x="576" y="339" on="0"/>
        <pt x="576" y="252" on="1"/>
        <pt x="576" y="137" on="0"/>
        <pt x="420" y="-10" on="0"/>
        <pt x="299" y="-10" on="1"/>
        <pt x="229" y="-10" on="0"/>
        <pt x="178" y="27" on="1"/>
        <pt x="178" y="2" on="0"/>
        <pt x="168" y="-10" on="1"/>
        <pt x="150" y="-20" on="0"/>
        <pt x="109" y="-20" on="1"/>
        <pt x="65" y="-20" on="0"/>
        <pt x="49" y="-5" on="1"/>
        <pt x="43" y="32" on="0"/>
        <pt x="43" y="67" on="1"/>
        <pt x="43" y="160" on="0"/>
        <pt x="86" y="235" on="1"/>
        <pt x="104" y="242" on="0"/>
        <pt x="123" y="242" on="1"/>
        <pt x="160" y="242" on="0"/>
        <pt x="177" y="225" on="1"/>
        <pt x="182" y="212" on="0"/>
        <pt x="184" y="187" on="1"/>
        <pt x="213" y="153" on="0"/>
        <pt x="265" y="153" on="1"/>
        <pt x="318" y="153" on="0"/>
        <pt x="380" y="193" on="0"/>
        <pt x="380" y="225" on="1"/>
        <pt x="380" y="243" on="0"/>
        <pt x="361" y="266" on="0"/>
        <pt x="321" y="277" on="0"/>
        <pt x="294" y="280" on="0"/>
        <pt x="270" y="281" on="1"/>
        <pt x="245" y="282" on="0"/>
        <pt x="215" y="285" on="0"/>
        <pt x="160" y="295" on="0"/>
        <pt x="125" y="309" on="0"/>
        <pt x="81" y="336" on="0"/>
        <pt x="56" y="371" on="0"/>
        <pt x="38" y="427" on="0"/>
      </contour>
      <contour>
        <pt x="165" y="931" on="1"/>
        <pt x="178" y="937" on="0"/>
        <pt x="193" y="937" on="1"/>
        <pt x="206" y="937" on="0"/>
        <pt x="221" y="931" on="1"/>
        <pt x="265" y="911" on="0"/>
        <pt x="306" y="860" on="1"/>
        <pt x="333" y="901" on="0"/>
        <pt x="391" y="931" on="1"/>
        <pt x="407" y="939" on="0"/>
        <pt x="433" y="939" on="0"/>
        <pt x="447" y="931" on="1"/>
        <pt x="403" y="842" on="0"/>
        <pt x="348" y="790" on="1"/>
        <pt x="323" y="775" on="0"/>
        <pt x="303" y="775" on="1"/>
        <pt x="284" y="775" on="0"/>
        <pt x="264" y="790" on="1"/>
        <pt x="252" y="801" on="0"/>
        <pt x="230" y="827" on="0"/>
        <pt x="216" y="846" on="0"/>
        <pt x="196" y="876" on="0"/>
        <pt x="188" y="890" on="0"/>
        <pt x="168" y="926" on="0"/>
      </contour>
    </TTGlyph>
    <TTGlyph name="T" xMin="9" yMin="0" xMax="732" yMax="700">
      <contour>
        <pt x="9" y="542" on="1"/>
        <pt x="9" y="646" on="0"/>
        <pt x="23" y="688" on="1"/>
        <pt x="40" y="689" on="0"/>
        <pt x="172" y="696" on="0"/>
        <pt x="301" y="700" on="0"/>
        <pt x="431" y="700" on="0"/>
        <pt x="562" y="696" on="0"/>
        <pt x="703" y="690" on="0"/>
        <pt x="718" y="688" on="1"/>
        <pt x="732" y="646" on="0"/>
        <pt x="732" y="542" on="1"/>
        <pt x="732" y="496" on="0"/>
        <pt x="725" y="469" on="1"/>
        <pt x="675" y="459" on="0"/>
        <pt x="644" y="459" on="1"/>
        <pt x="600" y="459" on="0"/>
        <pt x="570" y="476" on="1"/>
        <pt x="553" y="538" on="1"/>
        <pt x="539" y="547" on="0"/>
        <pt x="465" y="549" on="1"/>
        <pt x="471" y="421" on="0"/>
        <pt x="471" y="318" on="1"/>
        <pt x="471" y="210" on="0"/>
        <pt x="460" y="152" on="1"/>
        <pt x="465" y="152" on="0"/>
        <pt x="483" y="149" on="1"/>
        <pt x="509" y="145" on="0"/>
        <pt x="518" y="140" on="1"/>
        <pt x="524" y="134" on="0"/>
        <pt x="524" y="86" on="1"/>
        <pt x="524" y="34" on="0"/>
        <pt x="518" y="27" on="1"/>
        <pt x="499" y="0" on="0"/>
        <pt x="372" y="0" on="1"/>
        <pt x="242" y="0" on="0"/>
        <pt x="223" y="27" on="1"/>
        <pt x="217" y="34" on="0"/>
        <pt x="217" y="86" on="1"/>
        <pt x="217" y="134" on="0"/>
        <pt x="223" y="140" on="1"/>
        <pt x="232" y="145" on="0"/>
        <pt x="258" y="149" on="1"/>
        <pt x="276" y="152" on="0"/>
        <pt x="281" y="152" on="1"/>
        <pt x="270" y="210" on="0"/>
        <pt x="270" y="318" on="1"/>
        <pt x="270" y="421" on="0"/>
        <pt x="276" y="549" on="1"/>
        <pt x="202" y="547" on="0"/>
        <pt x="188" y="538" on="1"/>
        <pt x="171" y="476" on="1"/>
        <pt x="141" y="459" on="0"/>
        <pt x="97" y="459" on="1"/>
        <pt x="66" y="459" on="0"/>
        <pt x="16" y="469" on="1"/>
        <pt x="9" y="496" on="0"/>
      </contour>
    </TTGlyph>
    <TTGlyph name="Thorn" xMin="32" yMin="-1" xMax="639" yMax="704">
      <contour>
        <pt x="32" y="608" on="1"/>
        <pt x="32" y="656" on="0"/>
        <pt x="50" y="667" on="1"/>
        <pt x="59" y="684" on="0"/>
        <pt x="160" y="704" on="0"/>
        <pt x="218" y="704" on="1"/>
        <pt x="277" y="704" on="0"/>
        <pt x="303" y="694" on="1"/>
        <pt x="308" y="675" on="0"/>
        <pt x="308" y="609" on="1"/>
        <pt x="308" y="601" on="0"/>
        <pt x="307" y="600" on="1"/>
        <pt x="318" y="604" on="0"/>
        <pt x="429" y="656" on="0"/>
        <pt x="463" y="656" on="1"/>
        <pt x="516" y="656" on="0"/>
        <pt x="600" y="570" on="0"/>
        <pt x="639" y="452" on="0"/>
        <pt x="639" y="394" on="1"/>
        <pt x="639" y="297" on="0"/>
        <pt x="522" y="166" on="0"/>
        <pt x="421" y="166" on="1"/>
        <pt x="373" y="166" on="0"/>
        <pt x="331" y="178" on="1"/>
        <pt x="333" y="168" on="0"/>
        <pt x="333" y="161" on="1"/>
        <pt x="333" y="146" on="0"/>
        <pt x="327" y="129" on="1"/>
        <pt x="331" y="130" on="0"/>
        <pt x="353" y="130" on="1"/>
        <pt x="369" y="130" on="0"/>
        <pt x="404" y="120" on="0"/>
        <pt x="409" y="112" on="1"/>
        <pt x="424" y="102" on="0"/>
        <pt x="424" y="66" on="1"/>
        <pt x="424" y="35" on="0"/>
        <pt x="409" y="19" on="1"/>
        <pt x="403" y="-1" on="0"/>
        <pt x="233" y="-1" on="1"/>
        <pt x="163" y="-1" on="0"/>
        <pt x="49" y="10" on="0"/>
        <pt x="46" y="19" on="1"/>
        <pt x="33" y="33" on="0"/>
        <pt x="33" y="62" on="1"/>
        <pt x="33" y="97" on="0"/>
        <pt x="46" y="112" on="1"/>
        <pt x="61" y="130" on="0"/>
        <pt x="102" y="130" on="1"/>
        <pt x="114" y="130" on="0"/>
        <pt x="118" y="129" on="1"/>
        <pt x="118" y="146" on="0"/>
        <pt x="116" y="238" on="0"/>
        <pt x="116" y="287" on="1"/>
        <pt x="116" y="464" on="0"/>
        <pt x="126" y="520" on="1"/>
        <pt x="123" y="519" on="0"/>
        <pt x="109" y="519" on="1"/>
        <pt x="86" y="519" on="0"/>
        <pt x="55" y="526" on="1"/>
        <pt x="32" y="553" on="0"/>
      </contour>
      <contour>
        <pt x="326" y="378" on="1"/>
        <pt x="326" y="346" on="0"/>
        <pt x="358" y="313" on="0"/>
        <pt x="383" y="313" on="1"/>
        <pt x="420" y="313" on="0"/>
        <pt x="487" y="376" on="0"/>
        <pt x="487" y="419" on="1"/>
        <pt x="487" y="449" on="0"/>
        <pt x="453" y="489" on="0"/>
        <pt x="425" y="489" on="1"/>
        <pt x="387" y="489" on="0"/>
        <pt x="326" y="423" on="0"/>
      </contour>
    </TTGlyph>
    <TTGlyph name="U" xMin="5" yMin="-10" xMax="761" yMax="702">
      <contour>
        <pt x="5" y="588" on="1"/>
        <pt x="5" y="643" on="0"/>
        <pt x="26" y="679" on="1"/>
        <pt x="89" y="702" on="0"/>
        <pt x="179" y="702" on="1"/>
        <pt x="262" y="702" on="0"/>
        <pt x="323" y="681" on="1"/>
        <pt x="346" y="655" on="0"/>
        <pt x="346" y="593" on="1"/>
        <pt x="346" y="540" on="0"/>
        <pt x="328" y="516" on="1"/>
        <pt x="318" y="510" on="0"/>
        <pt x="307" y="510" on="1"/>
        <pt x="298" y="510" on="0"/>
        <pt x="283" y="515" on="1"/>
        <pt x="283" y="509" on="0"/>
        <pt x="278" y="433" on="0"/>
        <pt x="278" y="404" on="1"/>
        <pt x="278" y="185" on="0"/>
        <pt x="387" y="185" on="1"/>
        <pt x="420" y="185" on="0"/>
        <pt x="463" y="223" on="0"/>
        <pt x="484" y="293" on="0"/>
        <pt x="492" y="365" on="0"/>
        <pt x="492" y="413" on="1"/>
        <pt x="492" y="442" on="0"/>
        <pt x="489" y="513" on="0"/>
        <pt x="489" y="525" on="1"/>
        <pt x="485" y="514" on="0"/>
        <pt x="457" y="514" on="1"/>
        <pt x="440" y="514" on="0"/>
        <pt x="436" y="523" on="1"/>
        <pt x="419" y="549" on="0"/>
        <pt x="419" y="653" on="0"/>
        <pt x="436" y="678" on="1"/>
        <pt x="485" y="701" on="0"/>
        <pt x="593" y="701" on="1"/>
        <pt x="705" y="701" on="0"/>
        <pt x="742" y="671" on="1"/>
        <pt x="761" y="638" on="0"/>
        <pt x="761" y="598" on="1"/>
        <pt x="761" y="563" on="0"/>
        <pt x="744" y="536" on="1"/>
        <pt x="732" y="523" on="0"/>
        <pt x="702" y="523" on="1"/>
        <pt x="688" y="523" on="0"/>
        <pt x="682" y="525" on="1"/>
        <pt x="693" y="470" on="0"/>
        <pt x="693" y="405" on="1"/>
        <pt x="693" y="290" on="0"/>
        <pt x="625" y="106" on="0"/>
        <pt x="478" y="-10" on="0"/>
        <pt x="375" y="-10" on="1"/>
        <pt x="80" y="-10" on="0"/>
        <pt x="80" y="470" on="1"/>
        <pt x="80" y="488" on="0"/>
        <pt x="81" y="498" on="0"/>
        <pt x="81" y="506" on="1"/>
        <pt x="77" y="502" on="0"/>
        <pt x="62" y="502" on="1"/>
        <pt x="32" y="502" on="0"/>
        <pt x="25" y="509" on="1"/>
        <pt x="5" y="536" on="0"/>
      </contour>
    </TTGlyph>
    <TTGlyph name="Uacute" xMin="5" yMin="-10" xMax="761" yMax="948">
      <contour>
        <pt x="5" y="588" on="1"/>
        <pt x="5" y="643" on="0"/>
        <pt x="26" y="679" on="1"/>
        <pt x="89" y="702" on="0"/>
        <pt x="179" y="702" on="1"/>
        <pt x="262" y="702" on="0"/>
        <pt x="323" y="681" on="1"/>
        <pt x="346" y="655" on="0"/>
        <pt x="346" y="593" on="1"/>
        <pt x="346" y="540" on="0"/>
        <pt x="328" y="516" on="1"/>
        <pt x="318" y="510" on="0"/>
        <pt x="307" y="510" on="1"/>
        <pt x="298" y="510" on="0"/>
        <pt x="283" y="515" on="1"/>
        <pt x="283" y="509" on="0"/>
        <pt x="278" y="433" on="0"/>
        <pt x="278" y="404" on="1"/>
        <pt x="278" y="185" on="0"/>
        <pt x="387" y="185" on="1"/>
        <pt x="420" y="185" on="0"/>
        <pt x="463" y="223" on="0"/>
        <pt x="484" y="293" on="0"/>
        <pt x="492" y="365" on="0"/>
        <pt x="492" y="413" on="1"/>
        <pt x="492" y="442" on="0"/>
        <pt x="489" y="513" on="0"/>
        <pt x="489" y="525" on="1"/>
        <pt x="485" y="514" on="0"/>
        <pt x="457" y="514" on="1"/>
        <pt x="440" y="514" on="0"/>
        <pt x="436" y="523" on="1"/>
        <pt x="419" y="549" on="0"/>
        <pt x="419" y="653" on="0"/>
        <pt x="436" y="678" on="1"/>
        <pt x="485" y="701" on="0"/>
        <pt x="593" y="701" on="1"/>
        <pt x="705" y="701" on="0"/>
        <pt x="742" y="671" on="1"/>
        <pt x="761" y="638" on="0"/>
        <pt x="761" y="598" on="1"/>
        <pt x="761" y="563" on="0"/>
        <pt x="744" y="536" on="1"/>
        <pt x="732" y="523" on="0"/>
        <pt x="702" y="523" on="1"/>
        <pt x="688" y="523" on="0"/>
        <pt x="682" y="525" on="1"/>
        <pt x="693" y="470" on="0"/>
        <pt x="693" y="405" on="1"/>
        <pt x="693" y="290" on="0"/>
        <pt x="625" y="106" on="0"/>
        <pt x="478" y="-10" on="0"/>
        <pt x="375" y="-10" on="1"/>
        <pt x="80" y="-10" on="0"/>
        <pt x="80" y="470" on="1"/>
        <pt x="80" y="488" on="0"/>
        <pt x="81" y="498" on="0"/>
        <pt x="81" y="506" on="1"/>
        <pt x="77" y="502" on="0"/>
        <pt x="62" y="502" on="1"/>
        <pt x="32" y="502" on="0"/>
        <pt x="25" y="509" on="1"/>
        <pt x="5" y="536" on="0"/>
      </contour>
      <contour>
        <pt x="367" y="795" on="1"/>
        <pt x="408" y="899" on="0"/>
        <pt x="452" y="946" on="1"/>
        <pt x="470" y="948" on="0"/>
        <pt x="480" y="948" on="1"/>
        <pt x="524" y="948" on="0"/>
        <pt x="561" y="922" on="1"/>
        <pt x="520" y="852" on="0"/>
        <pt x="427" y="795" on="1"/>
        <pt x="403" y="787" on="0"/>
        <pt x="392" y="787" on="1"/>
        <pt x="378" y="787" on="0"/>
      </contour>
    </TTGlyph>
    <TTGlyph name="Ucircumflex" xMin="5" yMin="-10" xMax="761" yMax="949">
      <contour>
        <pt x="5" y="588" on="1"/>
        <pt x="5" y="643" on="0"/>
        <pt x="26" y="679" on="1"/>
        <pt x="89" y="702" on="0"/>
        <pt x="179" y="702" on="1"/>
        <pt x="262" y="702" on="0"/>
        <pt x="323" y="681" on="1"/>
        <pt x="346" y="655" on="0"/>
        <pt x="346" y="593" on="1"/>
        <pt x="346" y="540" on="0"/>
        <pt x="328" y="516" on="1"/>
        <pt x="318" y="510" on="0"/>
        <pt x="307" y="510" on="1"/>
        <pt x="298" y="510" on="0"/>
        <pt x="283" y="515" on="1"/>
        <pt x="283" y="509" on="0"/>
        <pt x="278" y="433" on="0"/>
        <pt x="278" y="404" on="1"/>
        <pt x="278" y="185" on="0"/>
        <pt x="387" y="185" on="1"/>
        <pt x="420" y="185" on="0"/>
        <pt x="463" y="223" on="0"/>
        <pt x="484" y="293" on="0"/>
        <pt x="492" y="365" on="0"/>
        <pt x="492" y="413" on="1"/>
        <pt x="492" y="442" on="0"/>
        <pt x="489" y="513" on="0"/>
        <pt x="489" y="525" on="1"/>
        <pt x="485" y="514" on="0"/>
        <pt x="457" y="514" on="1"/>
        <pt x="440" y="514" on="0"/>
        <pt x="436" y="523" on="1"/>
        <pt x="419" y="549" on="0"/>
        <pt x="419" y="653" on="0"/>
        <pt x="436" y="678" on="1"/>
        <pt x="485" y="701" on="0"/>
        <pt x="593" y="701" on="1"/>
        <pt x="705" y="701" on="0"/>
        <pt x="742" y="671" on="1"/>
        <pt x="761" y="638" on="0"/>
        <pt x="761" y="598" on="1"/>
        <pt x="761" y="563" on="0"/>
        <pt x="744" y="536" on="1"/>
        <pt x="732" y="523" on="0"/>
        <pt x="702" y="523" on="1"/>
        <pt x="688" y="523" on="0"/>
        <pt x="682" y="525" on="1"/>
        <pt x="693" y="470" on="0"/>
        <pt x="693" y="405" on="1"/>
        <pt x="693" y="290" on="0"/>
        <pt x="625" y="106" on="0"/>
        <pt x="478" y="-10" on="0"/>
        <pt x="375" y="-10" on="1"/>
        <pt x="80" y="-10" on="0"/>
        <pt x="80" y="470" on="1"/>
        <pt x="80" y="488" on="0"/>
        <pt x="81" y="498" on="0"/>
        <pt x="81" y="506" on="1"/>
        <pt x="77" y="502" on="0"/>
        <pt x="62" y="502" on="1"/>
        <pt x="32" y="502" on="0"/>
        <pt x="25" y="509" on="1"/>
        <pt x="5" y="536" on="0"/>
      </contour>
      <contour>
        <pt x="242" y="793" on="1"/>
        <pt x="245" y="798" on="0"/>
        <pt x="265" y="834" on="0"/>
        <pt x="273" y="848" on="0"/>
        <pt x="293" y="878" on="0"/>
        <pt x="307" y="897" on="0"/>
        <pt x="329" y="923" on="0"/>
        <pt x="341" y="934" on="1"/>
        <pt x="360" y="949" on="0"/>
        <pt x="380" y="949" on="1"/>
        <pt x="400" y="949" on="0"/>
        <pt x="425" y="934" on="1"/>
        <pt x="480" y="882" on="0"/>
        <pt x="524" y="793" on="1"/>
        <pt x="510" y="785" on="0"/>
        <pt x="484" y="785" on="0"/>
        <pt x="468" y="793" on="1"/>
        <pt x="410" y="823" on="0"/>
        <pt x="383" y="864" on="1"/>
        <pt x="342" y="813" on="0"/>
        <pt x="298" y="793" on="1"/>
        <pt x="283" y="787" on="0"/>
        <pt x="270" y="787" on="1"/>
        <pt x="256" y="787" on="0"/>
      </contour>
    </TTGlyph>
    <TTGlyph name="Udieresis" xMin="5" yMin="-10" xMax="761" yMax="942">
      <contour>
        <pt x="5" y="588" on="1"/>
        <pt x="5" y="643" on="0"/>
        <pt x="26" y="679" on="1"/>
        <pt x="89" y="702" on="0"/>
        <pt x="179" y="702" on="1"/>
        <pt x="262" y="702" on="0"/>
        <pt x="323" y="681" on="1"/>
        <pt x="346" y="655" on="0"/>
        <pt x="346" y="593" on="1"/>
        <pt x="346" y="540" on="0"/>
        <pt x="328" y="516" on="1"/>
        <pt x="318" y="510" on="0"/>
        <pt x="307" y="510" on="1"/>
        <pt x="298" y="510" on="0"/>
        <pt x="283" y="515" on="1"/>
        <pt x="283" y="509" on="0"/>
        <pt x="278" y="433" on="0"/>
        <pt x="278" y="404" on="1"/>
        <pt x="278" y="185" on="0"/>
        <pt x="387" y="185" on="1"/>
        <pt x="420" y="185" on="0"/>
        <pt x="463" y="223" on="0"/>
        <pt x="484" y="293" on="0"/>
        <pt x="492" y="365" on="0"/>
        <pt x="492" y="413" on="1"/>
        <pt x="492" y="442" on="0"/>
        <pt x="489" y="513" on="0"/>
        <pt x="489" y="525" on="1"/>
        <pt x="485" y="514" on="0"/>
        <pt x="457" y="514" on="1"/>
        <pt x="440" y="514" on="0"/>
        <pt x="436" y="523" on="1"/>
        <pt x="419" y="549" on="0"/>
        <pt x="419" y="653" on="0"/>
        <pt x="436" y="678" on="1"/>
        <pt x="485" y="701" on="0"/>
        <pt x="593" y="701" on="1"/>
        <pt x="705" y="701" on="0"/>
        <pt x="742" y="671" on="1"/>
        <pt x="761" y="638" on="0"/>
        <pt x="761" y="598" on="1"/>
        <pt x="761" y="563" on="0"/>
        <pt x="744" y="536" on="1"/>
        <pt x="732" y="523" on="0"/>
        <pt x="702" y="523" on="1"/>
        <pt x="688" y="523" on="0"/>
        <pt x="682" y="525" on="1"/>
        <pt x="693" y="470" on="0"/>
        <pt x="693" y="405" on="1"/>
        <pt x="693" y="290" on="0"/>
        <pt x="625" y="106" on="0"/>
        <pt x="478" y="-10" on="0"/>
        <pt x="375" y="-10" on="1"/>
        <pt x="80" y="-10" on="0"/>
        <pt x="80" y="470" on="1"/>
        <pt x="80" y="488" on="0"/>
        <pt x="81" y="498" on="0"/>
        <pt x="81" y="506" on="1"/>
        <pt x="77" y="502" on="0"/>
        <pt x="62" y="502" on="1"/>
        <pt x="32" y="502" on="0"/>
        <pt x="25" y="509" on="1"/>
        <pt x="5" y="536" on="0"/>
      </contour>
      <contour>
        <pt x="225" y="870" on="1"/>
        <pt x="225" y="899" on="0"/>
        <pt x="243" y="925" on="1"/>
        <pt x="266" y="942" on="0"/>
        <pt x="316" y="942" on="0"/>
        <pt x="342" y="925" on="1"/>
        <pt x="359" y="898" on="0"/>
        <pt x="359" y="838" on="0"/>
        <pt x="342" y="806" on="1"/>
        <pt x="313" y="787" on="0"/>
        <pt x="265" y="787" on="0"/>
        <pt x="243" y="806" on="1"/>
        <pt x="225" y="840" on="0"/>
      </contour>
      <contour>
        <pt x="415" y="870" on="1"/>
        <pt x="415" y="899" on="0"/>
        <pt x="433" y="925" on="1"/>
        <pt x="456" y="942" on="0"/>
        <pt x="506" y="942" on="0"/>
        <pt x="532" y="925" on="1"/>
        <pt x="549" y="898" on="0"/>
        <pt x="549" y="838" on="0"/>
        <pt x="532" y="806" on="1"/>
        <pt x="503" y="787" on="0"/>
        <pt x="455" y="787" on="0"/>
        <pt x="433" y="806" on="1"/>
        <pt x="415" y="840" on="0"/>
      </contour>
    </TTGlyph>
    <TTGlyph name="Ugrave" xMin="5" yMin="-10" xMax="761" yMax="947">
      <contour>
        <pt x="5" y="588" on="1"/>
        <pt x="5" y="643" on="0"/>
        <pt x="26" y="679" on="1"/>
        <pt x="89" y="702" on="0"/>
        <pt x="179" y="702" on="1"/>
        <pt x="262" y="702" on="0"/>
        <pt x="323" y="681" on="1"/>
        <pt x="346" y="655" on="0"/>
        <pt x="346" y="593" on="1"/>
        <pt x="346" y="540" on="0"/>
        <pt x="328" y="516" on="1"/>
        <pt x="318" y="510" on="0"/>
        <pt x="307" y="510" on="1"/>
        <pt x="298" y="510" on="0"/>
        <pt x="283" y="515" on="1"/>
        <pt x="283" y="509" on="0"/>
        <pt x="278" y="433" on="0"/>
        <pt x="278" y="404" on="1"/>
        <pt x="278" y="185" on="0"/>
        <pt x="387" y="185" on="1"/>
        <pt x="420" y="185" on="0"/>
        <pt x="463" y="223" on="0"/>
        <pt x="484" y="293" on="0"/>
        <pt x="492" y="365" on="0"/>
        <pt x="492" y="413" on="1"/>
        <pt x="492" y="442" on="0"/>
        <pt x="489" y="513" on="0"/>
        <pt x="489" y="525" on="1"/>
        <pt x="485" y="514" on="0"/>
        <pt x="457" y="514" on="1"/>
        <pt x="440" y="514" on="0"/>
        <pt x="436" y="523" on="1"/>
        <pt x="419" y="549" on="0"/>
        <pt x="419" y="653" on="0"/>
        <pt x="436" y="678" on="1"/>
        <pt x="485" y="701" on="0"/>
        <pt x="593" y="701" on="1"/>
        <pt x="705" y="701" on="0"/>
        <pt x="742" y="671" on="1"/>
        <pt x="761" y="638" on="0"/>
        <pt x="761" y="598" on="1"/>
        <pt x="761" y="563" on="0"/>
        <pt x="744" y="536" on="1"/>
        <pt x="732" y="523" on="0"/>
        <pt x="702" y="523" on="1"/>
        <pt x="688" y="523" on="0"/>
        <pt x="682" y="525" on="1"/>
        <pt x="693" y="470" on="0"/>
        <pt x="693" y="405" on="1"/>
        <pt x="693" y="290" on="0"/>
        <pt x="625" y="106" on="0"/>
        <pt x="478" y="-10" on="0"/>
        <pt x="375" y="-10" on="1"/>
        <pt x="80" y="-10" on="0"/>
        <pt x="80" y="470" on="1"/>
        <pt x="80" y="488" on="0"/>
        <pt x="81" y="498" on="0"/>
        <pt x="81" y="506" on="1"/>
        <pt x="77" y="502" on="0"/>
        <pt x="62" y="502" on="1"/>
        <pt x="32" y="502" on="0"/>
        <pt x="25" y="509" on="1"/>
        <pt x="5" y="536" on="0"/>
      </contour>
      <contour>
        <pt x="211" y="921" on="1"/>
        <pt x="248" y="947" on="0"/>
        <pt x="292" y="947" on="1"/>
        <pt x="311" y="947" on="0"/>
        <pt x="319" y="945" on="1"/>
        <pt x="364" y="896" on="0"/>
        <pt x="405" y="794" on="1"/>
        <pt x="394" y="786" on="0"/>
        <pt x="380" y="786" on="1"/>
        <pt x="369" y="786" on="0"/>
        <pt x="345" y="794" on="1"/>
        <pt x="252" y="851" on="0"/>
      </contour>
    </TTGlyph>
    <TTGlyph name="V" xMin="2" yMin="-13" xMax="804" yMax="700">
      <contour>
        <pt x="2" y="627" on="1"/>
        <pt x="2" y="664" on="0"/>
        <pt x="17" y="688" on="1"/>
        <pt x="30" y="700" on="0"/>
        <pt x="173" y="700" on="1"/>
        <pt x="234" y="700" on="0"/>
        <pt x="346" y="693" on="0"/>
        <pt x="346" y="689" on="1"/>
        <pt x="368" y="675" on="0"/>
        <pt x="368" y="609" on="1"/>
        <pt x="368" y="590" on="0"/>
        <pt x="365" y="581" on="1"/>
        <pt x="365" y="575" on="0"/>
        <pt x="350" y="565" on="0"/>
        <pt x="339" y="565" on="1"/>
        <pt x="310" y="565" on="0"/>
        <pt x="310" y="569" on="1"/>
        <pt x="306" y="569" on="0"/>
        <pt x="306" y="561" on="1"/>
        <pt x="306" y="526" on="0"/>
        <pt x="310" y="462" on="0"/>
        <pt x="324" y="396" on="0"/>
        <pt x="332" y="355" on="0"/>
        <pt x="358" y="283" on="0"/>
        <pt x="367" y="258" on="0"/>
        <pt x="400" y="174" on="0"/>
        <pt x="404" y="164" on="1"/>
        <pt x="436" y="234" on="0"/>
        <pt x="471" y="325" on="0"/>
        <pt x="503" y="478" on="0"/>
        <pt x="503" y="561" on="1"/>
        <pt x="503" y="569" on="0"/>
        <pt x="499" y="569" on="1"/>
        <pt x="499" y="565" on="0"/>
        <pt x="470" y="565" on="1"/>
        <pt x="459" y="565" on="0"/>
        <pt x="444" y="575" on="0"/>
        <pt x="444" y="581" on="1"/>
        <pt x="441" y="590" on="0"/>
        <pt x="441" y="609" on="1"/>
        <pt x="441" y="675" on="0"/>
        <pt x="463" y="689" on="1"/>
        <pt x="463" y="693" on="0"/>
        <pt x="575" y="700" on="0"/>
        <pt x="636" y="700" on="1"/>
        <pt x="779" y="700" on="0"/>
        <pt x="792" y="688" on="1"/>
        <pt x="804" y="672" on="0"/>
        <pt x="804" y="632" on="1"/>
        <pt x="804" y="581" on="0"/>
        <pt x="787" y="564" on="1"/>
        <pt x="778" y="560" on="0"/>
        <pt x="764" y="560" on="1"/>
        <pt x="736" y="560" on="0"/>
        <pt x="731" y="568" on="1"/>
        <pt x="731" y="517" on="0"/>
        <pt x="550" y="15" on="0"/>
        <pt x="528" y="5" on="1"/>
        <pt x="481" y="-13" on="0"/>
        <pt x="404" y="-13" on="1"/>
        <pt x="305" y="-13" on="0"/>
        <pt x="281" y="5" on="1"/>
        <pt x="260" y="14" on="0"/>
        <pt x="82" y="519" on="0"/>
        <pt x="82" y="563" on="1"/>
        <pt x="82" y="567" on="0"/>
        <pt x="83" y="568" on="1"/>
        <pt x="60" y="559" on="0"/>
        <pt x="46" y="559" on="1"/>
        <pt x="35" y="559" on="0"/>
        <pt x="22" y="564" on="1"/>
        <pt x="2" y="578" on="0"/>
      </contour>
    </TTGlyph>
    <TTGlyph name="W" xMin="14" yMin="0" xMax="896" yMax="699">
      <contour>
        <pt x="14" y="612" on="1"/>
        <pt x="14" y="664" on="0"/>
        <pt x="20" y="671" on="1"/>
        <pt x="43" y="698" on="0"/>
        <pt x="184" y="698" on="1"/>
        <pt x="274" y="698" on="0"/>
        <pt x="293" y="689" on="1"/>
        <pt x="299" y="679" on="0"/>
        <pt x="316" y="598" on="0"/>
        <pt x="316" y="577" on="1"/>
        <pt x="316" y="564" on="0"/>
        <pt x="313" y="560" on="1"/>
        <pt x="291" y="549" on="0"/>
        <pt x="265" y="549" on="1"/>
        <pt x="254" y="549" on="0"/>
        <pt x="248" y="550" on="1"/>
        <pt x="271" y="508" on="0"/>
        <pt x="319" y="384" on="0"/>
        <pt x="320" y="338" on="1"/>
        <pt x="329" y="347" on="0"/>
        <pt x="388" y="412" on="0"/>
        <pt x="432" y="446" on="0"/>
        <pt x="453" y="446" on="1"/>
        <pt x="469" y="446" on="0"/>
        <pt x="508" y="420" on="0"/>
        <pt x="535" y="393" on="0"/>
        <pt x="579" y="344" on="0"/>
        <pt x="586" y="337" on="1"/>
        <pt x="590" y="370" on="0"/>
        <pt x="615" y="445" on="0"/>
        <pt x="652" y="530" on="0"/>
        <pt x="658" y="546" on="1"/>
        <pt x="632" y="555" on="0"/>
        <pt x="607" y="570" on="1"/>
        <pt x="594" y="579" on="0"/>
        <pt x="594" y="628" on="1"/>
        <pt x="594" y="680" on="0"/>
        <pt x="600" y="687" on="1"/>
        <pt x="609" y="699" on="0"/>
        <pt x="709" y="699" on="1"/>
        <pt x="831" y="699" on="0"/>
        <pt x="873" y="689" on="1"/>
        <pt x="896" y="650" on="0"/>
        <pt x="896" y="590" on="1"/>
        <pt x="896" y="564" on="0"/>
        <pt x="893" y="560" on="1"/>
        <pt x="871" y="549" on="0"/>
        <pt x="845" y="549" on="1"/>
        <pt x="834" y="549" on="0"/>
        <pt x="828" y="550" on="1"/>
        <pt x="816" y="345" on="0"/>
        <pt x="718" y="148" on="1"/>
        <pt x="724" y="146" on="0"/>
        <pt x="755" y="143" on="0"/>
        <pt x="763" y="138" on="1"/>
        <pt x="766" y="134" on="0"/>
        <pt x="766" y="121" on="1"/>
        <pt x="766" y="100" on="0"/>
        <pt x="749" y="19" on="0"/>
        <pt x="743" y="9" on="1"/>
        <pt x="738" y="0" on="0"/>
        <pt x="662" y="0" on="1"/>
        <pt x="530" y="0" on="0"/>
        <pt x="510" y="27" on="1"/>
        <pt x="504" y="34" on="0"/>
        <pt x="504" y="86" on="1"/>
        <pt x="504" y="134" on="0"/>
        <pt x="510" y="140" on="1"/>
        <pt x="517" y="144" on="0"/>
        <pt x="537" y="148" on="1"/>
        <pt x="521" y="166" on="0"/>
        <pt x="467" y="251" on="0"/>
        <pt x="452" y="270" on="1"/>
        <pt x="437" y="251" on="0"/>
        <pt x="384" y="167" on="0"/>
        <pt x="368" y="149" on="1"/>
        <pt x="382" y="148" on="0"/>
        <pt x="403" y="138" on="1"/>
        <pt x="406" y="134" on="0"/>
        <pt x="406" y="121" on="1"/>
        <pt x="406" y="100" on="0"/>
        <pt x="389" y="19" on="0"/>
        <pt x="383" y="9" on="1"/>
        <pt x="366" y="0" on="0"/>
        <pt x="271" y="0" on="1"/>
        <pt x="205" y="0" on="0"/>
        <pt x="162" y="11" on="0"/>
        <pt x="150" y="27" on="1"/>
        <pt x="143" y="39" on="0"/>
        <pt x="143" y="90" on="1"/>
        <pt x="143" y="133" on="0"/>
        <pt x="150" y="140" on="1"/>
        <pt x="162" y="152" on="0"/>
        <pt x="188" y="152" on="1"/>
        <pt x="88" y="366" on="0"/>
        <pt x="78" y="546" on="1"/>
        <pt x="73" y="546" on="0"/>
        <pt x="55" y="549" on="1"/>
        <pt x="29" y="553" on="0"/>
        <pt x="20" y="558" on="1"/>
        <pt x="14" y="564" on="0"/>
      </contour>
    </TTGlyph>
    <TTGlyph name="X" xMin="17" yMin="-4" xMax="717" yMax="703">
      <contour>
        <pt x="17" y="49" on="1"/>
        <pt x="17" y="93" on="0"/>
        <pt x="46" y="134" on="1"/>
        <pt x="50" y="134" on="0"/>
        <pt x="72" y="132" on="1"/>
        <pt x="72" y="168" on="0"/>
        <pt x="190" y="326" on="0"/>
        <pt x="232" y="353" on="1"/>
        <pt x="188" y="382" on="0"/>
        <pt x="73" y="530" on="0"/>
        <pt x="72" y="568" on="1"/>
        <pt x="59" y="564" on="0"/>
        <pt x="45" y="564" on="1"/>
        <pt x="19" y="590" on="0"/>
        <pt x="19" y="646" on="1"/>
        <pt x="19" y="667" on="0"/>
        <pt x="23" y="683" on="1"/>
        <pt x="74" y="703" on="0"/>
        <pt x="167" y="703" on="1"/>
        <pt x="213" y="703" on="0"/>
        <pt x="258" y="694" on="1"/>
        <pt x="277" y="688" on="0"/>
        <pt x="300" y="643" on="0"/>
        <pt x="300" y="619" on="1"/>
        <pt x="300" y="599" on="0"/>
        <pt x="291" y="587" on="1"/>
        <pt x="282" y="582" on="0"/>
        <pt x="273" y="582" on="1"/>
        <pt x="267" y="582" on="0"/>
        <pt x="255" y="584" on="1"/>
        <pt x="260" y="582" on="0"/>
        <pt x="271" y="573" on="0"/>
        <pt x="285" y="556" on="0"/>
        <pt x="297" y="541" on="0"/>
        <pt x="317" y="513" on="0"/>
        <pt x="331" y="493" on="0"/>
        <pt x="356" y="456" on="0"/>
        <pt x="364" y="445" on="1"/>
        <pt x="373" y="456" on="0"/>
        <pt x="423" y="522" on="0"/>
        <pt x="466" y="571" on="0"/>
        <pt x="485" y="584" on="1"/>
        <pt x="479" y="582" on="0"/>
        <pt x="467" y="582" on="1"/>
        <pt x="450" y="582" on="0"/>
        <pt x="447" y="588" on="1"/>
        <pt x="439" y="610" on="0"/>
        <pt x="439" y="628" on="1"/>
        <pt x="439" y="667" on="0"/>
        <pt x="471" y="693" on="1"/>
        <pt x="518" y="703" on="0"/>
        <pt x="577" y="703" on="1"/>
        <pt x="663" y="703" on="0"/>
        <pt x="709" y="682" on="1"/>
        <pt x="716" y="663" on="0"/>
        <pt x="716" y="641" on="1"/>
        <pt x="716" y="600" on="0"/>
        <pt x="695" y="577" on="1"/>
        <pt x="679" y="577" on="0"/>
        <pt x="669" y="580" on="1"/>
        <pt x="668" y="542" on="0"/>
        <pt x="545" y="382" on="0"/>
        <pt x="502" y="353" on="1"/>
        <pt x="547" y="316" on="0"/>
        <pt x="610" y="241" on="0"/>
        <pt x="633" y="200" on="0"/>
        <pt x="657" y="137" on="0"/>
        <pt x="660" y="132" on="1"/>
        <pt x="666" y="134" on="0"/>
        <pt x="682" y="134" on="1"/>
        <pt x="695" y="125" on="0"/>
        <pt x="717" y="69" on="0"/>
        <pt x="717" y="45" on="1"/>
        <pt x="717" y="25" on="0"/>
        <pt x="708" y="19" on="1"/>
        <pt x="648" y="-4" on="0"/>
        <pt x="575" y="-4" on="1"/>
        <pt x="540" y="-4" on="0"/>
        <pt x="442" y="12" on="1"/>
        <pt x="426" y="21" on="0"/>
        <pt x="426" y="58" on="1"/>
        <pt x="426" y="99" on="0"/>
        <pt x="438" y="123" on="1"/>
        <pt x="445" y="130" on="0"/>
        <pt x="459" y="130" on="1"/>
        <pt x="469" y="130" on="0"/>
        <pt x="478" y="127" on="1"/>
        <pt x="454" y="142" on="0"/>
        <pt x="416" y="186" on="0"/>
        <pt x="375" y="249" on="0"/>
        <pt x="364" y="263" on="1"/>
        <pt x="355" y="252" on="0"/>
        <pt x="307" y="184" on="0"/>
        <pt x="268" y="137" on="0"/>
        <pt x="252" y="128" on="1"/>
        <pt x="257" y="129" on="0"/>
        <pt x="268" y="129" on="1"/>
        <pt x="284" y="129" on="0"/>
        <pt x="291" y="123" on="1"/>
        <pt x="293" y="116" on="0"/>
        <pt x="293" y="96" on="1"/>
        <pt x="293" y="65" on="0"/>
        <pt x="275" y="10" on="0"/>
        <pt x="258" y="7" on="1"/>
        <pt x="200" y="-4" on="0"/>
        <pt x="156" y="-4" on="1"/>
        <pt x="72" y="-4" on="0"/>
        <pt x="23" y="18" on="1"/>
        <pt x="17" y="32" on="0"/>
      </contour>
    </TTGlyph>
    <TTGlyph name="Y" xMin="4" yMin="-1" xMax="678" yMax="702">
      <contour>
        <pt x="4" y="605" on="1"/>
        <pt x="91" y="674" on="0"/>
        <pt x="265" y="702" on="1"/>
        <pt x="266" y="702" on="0"/>
        <pt x="285" y="663" on="1"/>
        <pt x="304" y="620" on="0"/>
        <pt x="304" y="600" on="1"/>
        <pt x="304" y="595" on="0"/>
        <pt x="279" y="583" on="1"/>
        <pt x="261" y="574" on="0"/>
        <pt x="248" y="574" on="1"/>
        <pt x="262" y="531" on="0"/>
        <pt x="346" y="442" on="1"/>
        <pt x="370" y="456" on="0"/>
        <pt x="426" y="548" on="0"/>
        <pt x="434" y="574" on="1"/>
        <pt x="422" y="574" on="0"/>
        <pt x="403" y="583" on="1"/>
        <pt x="379" y="594" on="0"/>
        <pt x="378" y="599" on="1"/>
        <pt x="378" y="621" on="0"/>
        <pt x="397" y="663" on="1"/>
        <pt x="416" y="702" on="0"/>
        <pt x="417" y="702" on="1"/>
        <pt x="482" y="702" on="0"/>
        <pt x="641" y="643" on="0"/>
        <pt x="678" y="605" on="1"/>
        <pt x="671" y="566" on="0"/>
        <pt x="667" y="552" on="1"/>
        <pt x="658" y="520" on="0"/>
        <pt x="650" y="499" on="1"/>
        <pt x="631" y="503" on="0"/>
        <pt x="608" y="514" on="1"/>
        <pt x="603" y="506" on="0"/>
        <pt x="566" y="446" on="0"/>
        <pt x="540" y="412" on="0"/>
        <pt x="481" y="355" on="0"/>
        <pt x="444" y="331" on="1"/>
        <pt x="439" y="308" on="0"/>
        <pt x="434" y="166" on="0"/>
        <pt x="432" y="151" on="1"/>
        <pt x="461" y="151" on="0"/>
        <pt x="487" y="137" on="1"/>
        <pt x="491" y="130" on="0"/>
        <pt x="491" y="105" on="1"/>
        <pt x="491" y="34" on="0"/>
        <pt x="478" y="8" on="1"/>
        <pt x="466" y="-1" on="0"/>
        <pt x="336" y="-1" on="1"/>
        <pt x="188" y="-1" on="0"/>
        <pt x="177" y="15" on="1"/>
        <pt x="173" y="25" on="0"/>
        <pt x="173" y="65" on="1"/>
        <pt x="173" y="131" on="0"/>
        <pt x="181" y="139" on="1"/>
        <pt x="206" y="151" on="0"/>
        <pt x="239" y="151" on="1"/>
        <pt x="232" y="315" on="0"/>
        <pt x="229" y="331" on="1"/>
        <pt x="170" y="369" on="0"/>
        <pt x="81" y="490" on="0"/>
        <pt x="74" y="514" on="1"/>
        <pt x="51" y="503" on="0"/>
        <pt x="32" y="499" on="1"/>
        <pt x="23" y="521" on="0"/>
        <pt x="14" y="553" on="1"/>
        <pt x="8" y="572" on="0"/>
      </contour>
    </TTGlyph>
    <TTGlyph name="Yacute" xMin="4" yMin="-1" xMax="678" yMax="950">
      <contour>
        <pt x="4" y="605" on="1"/>
        <pt x="91" y="674" on="0"/>
        <pt x="265" y="702" on="1"/>
        <pt x="283" y="686" on="0"/>
        <pt x="304" y="626" on="0"/>
        <pt x="304" y="600" on="1"/>
        <pt x="304" y="595" on="0"/>
        <pt x="279" y="583" on="1"/>
        <pt x="261" y="574" on="0"/>
        <pt x="248" y="574" on="1"/>
        <pt x="262" y="531" on="0"/>
        <pt x="346" y="442" on="1"/>
        <pt x="370" y="456" on="0"/>
        <pt x="426" y="548" on="0"/>
        <pt x="434" y="574" on="1"/>
        <pt x="422" y="574" on="0"/>
        <pt x="403" y="583" on="1"/>
        <pt x="379" y="594" on="0"/>
        <pt x="378" y="599" on="1"/>
        <pt x="379" y="615" on="0"/>
        <pt x="407" y="695" on="0"/>
        <pt x="417" y="702" on="1"/>
        <pt x="482" y="702" on="0"/>
        <pt x="641" y="643" on="0"/>
        <pt x="678" y="605" on="1"/>
        <pt x="673" y="571" on="0"/>
        <pt x="668" y="553" on="1"/>
        <pt x="661" y="525" on="0"/>
        <pt x="650" y="499" on="1"/>
        <pt x="631" y="503" on="0"/>
        <pt x="608" y="514" on="1"/>
        <pt x="603" y="506" on="0"/>
        <pt x="566" y="446" on="0"/>
        <pt x="540" y="412" on="0"/>
        <pt x="481" y="355" on="0"/>
        <pt x="444" y="331" on="1"/>
        <pt x="439" y="308" on="0"/>
        <pt x="434" y="166" on="0"/>
        <pt x="432" y="151" on="1"/>
        <pt x="461" y="151" on="0"/>
        <pt x="487" y="137" on="1"/>
        <pt x="491" y="130" on="0"/>
        <pt x="491" y="105" on="1"/>
        <pt x="491" y="34" on="0"/>
        <pt x="478" y="8" on="1"/>
        <pt x="466" y="-1" on="0"/>
        <pt x="336" y="-1" on="1"/>
        <pt x="188" y="-1" on="0"/>
        <pt x="177" y="15" on="1"/>
        <pt x="173" y="25" on="0"/>
        <pt x="173" y="65" on="1"/>
        <pt x="173" y="131" on="0"/>
        <pt x="181" y="139" on="1"/>
        <pt x="206" y="151" on="0"/>
        <pt x="239" y="151" on="1"/>
        <pt x="232" y="315" on="0"/>
        <pt x="229" y="331" on="1"/>
        <pt x="170" y="369" on="0"/>
        <pt x="81" y="490" on="0"/>
        <pt x="74" y="514" on="1"/>
        <pt x="51" y="503" on="0"/>
        <pt x="32" y="499" on="1"/>
        <pt x="14" y="546" on="0"/>
      </contour>
      <contour>
        <pt x="314" y="797" on="1"/>
        <pt x="355" y="899" on="0"/>
        <pt x="400" y="948" on="1"/>
        <pt x="409" y="950" on="0"/>
        <pt x="427" y="950" on="1"/>
        <pt x="471" y="950" on="0"/>
        <pt x="508" y="924" on="1"/>
        <pt x="467" y="854" on="0"/>
        <pt x="374" y="797" on="1"/>
        <pt x="350" y="789" on="0"/>
        <pt x="339" y="789" on="1"/>
        <pt x="325" y="789" on="0"/>
      </contour>
    </TTGlyph>
    <TTGlyph name="Ydieresis" xMin="4" yMin="-1" xMax="678" yMax="942">
      <contour>
        <pt x="4" y="605" on="1"/>
        <pt x="91" y="674" on="0"/>
        <pt x="265" y="702" on="1"/>
        <pt x="266" y="702" on="0"/>
        <pt x="285" y="663" on="1"/>
        <pt x="304" y="620" on="0"/>
        <pt x="304" y="600" on="1"/>
        <pt x="304" y="595" on="0"/>
        <pt x="279" y="583" on="1"/>
        <pt x="261" y="574" on="0"/>
        <pt x="248" y="574" on="1"/>
        <pt x="262" y="531" on="0"/>
        <pt x="346" y="442" on="1"/>
        <pt x="370" y="456" on="0"/>
        <pt x="426" y="548" on="0"/>
        <pt x="434" y="574" on="1"/>
        <pt x="422" y="574" on="0"/>
        <pt x="403" y="583" on="1"/>
        <pt x="379" y="594" on="0"/>
        <pt x="378" y="599" on="1"/>
        <pt x="378" y="621" on="0"/>
        <pt x="397" y="663" on="1"/>
        <pt x="416" y="702" on="0"/>
        <pt x="417" y="702" on="1"/>
        <pt x="482" y="702" on="0"/>
        <pt x="641" y="643" on="0"/>
        <pt x="678" y="605" on="1"/>
        <pt x="671" y="566" on="0"/>
        <pt x="667" y="552" on="1"/>
        <pt x="658" y="520" on="0"/>
        <pt x="650" y="499" on="1"/>
        <pt x="631" y="503" on="0"/>
        <pt x="608" y="514" on="1"/>
        <pt x="603" y="506" on="0"/>
        <pt x="566" y="446" on="0"/>
        <pt x="540" y="412" on="0"/>
        <pt x="481" y="355" on="0"/>
        <pt x="444" y="331" on="1"/>
        <pt x="439" y="308" on="0"/>
        <pt x="434" y="166" on="0"/>
        <pt x="432" y="151" on="1"/>
        <pt x="461" y="151" on="0"/>
        <pt x="487" y="137" on="1"/>
        <pt x="491" y="130" on="0"/>
        <pt x="491" y="105" on="1"/>
        <pt x="491" y="34" on="0"/>
        <pt x="478" y="8" on="1"/>
        <pt x="466" y="-1" on="0"/>
        <pt x="336" y="-1" on="1"/>
        <pt x="188" y="-1" on="0"/>
        <pt x="177" y="15" on="1"/>
        <pt x="173" y="25" on="0"/>
        <pt x="173" y="65" on="1"/>
        <pt x="173" y="131" on="0"/>
        <pt x="181" y="139" on="1"/>
        <pt x="206" y="151" on="0"/>
        <pt x="239" y="151" on="1"/>
        <pt x="232" y="315" on="0"/>
        <pt x="229" y="331" on="1"/>
        <pt x="170" y="369" on="0"/>
        <pt x="81" y="490" on="0"/>
        <pt x="74" y="514" on="1"/>
        <pt x="51" y="503" on="0"/>
        <pt x="32" y="499" on="1"/>
        <pt x="23" y="521" on="0"/>
        <pt x="14" y="553" on="1"/>
        <pt x="8" y="572" on="0"/>
      </contour>
      <contour>
        <pt x="194" y="870" on="1"/>
        <pt x="194" y="899" on="0"/>
        <pt x="212" y="925" on="1"/>
        <pt x="235" y="942" on="0"/>
        <pt x="285" y="942" on="0"/>
        <pt x="311" y="925" on="1"/>
        <pt x="328" y="898" on="0"/>
        <pt x="328" y="838" on="0"/>
        <pt x="311" y="806" on="1"/>
        <pt x="282" y="787" on="0"/>
        <pt x="234" y="787" on="0"/>
        <pt x="212" y="806" on="1"/>
        <pt x="194" y="840" on="0"/>
      </contour>
      <contour>
        <pt x="364" y="870" on="1"/>
        <pt x="364" y="899" on="0"/>
        <pt x="382" y="925" on="1"/>
        <pt x="405" y="942" on="0"/>
        <pt x="455" y="942" on="0"/>
        <pt x="481" y="925" on="1"/>
        <pt x="498" y="898" on="0"/>
        <pt x="498" y="838" on="0"/>
        <pt x="481" y="806" on="1"/>
        <pt x="452" y="787" on="0"/>
        <pt x="404" y="787" on="0"/>
        <pt x="382" y="806" on="1"/>
        <pt x="364" y="840" on="0"/>
      </contour>
    </TTGlyph>
    <TTGlyph name="Z" xMin="19" yMin="-24" xMax="726" yMax="704">
      <contour>
        <pt x="19" y="-20" on="1"/>
        <pt x="19" y="77" on="0"/>
        <pt x="79" y="219" on="0"/>
        <pt x="178" y="306" on="0"/>
        <pt x="280" y="370" on="0"/>
        <pt x="391" y="449" on="0"/>
        <pt x="421" y="491" on="1"/>
        <pt x="420" y="491" on="0"/>
        <pt x="397" y="502" on="0"/>
        <pt x="351" y="514" on="0"/>
        <pt x="325" y="514" on="1"/>
        <pt x="236" y="514" on="0"/>
        <pt x="226" y="509" on="1"/>
        <pt x="227" y="505" on="0"/>
        <pt x="227" y="500" on="1"/>
        <pt x="227" y="490" on="0"/>
        <pt x="213" y="468" on="1"/>
        <pt x="171" y="452" on="0"/>
        <pt x="101" y="452" on="0"/>
        <pt x="74" y="469" on="1"/>
        <pt x="52" y="497" on="0"/>
        <pt x="52" y="573" on="1"/>
        <pt x="52" y="622" on="0"/>
        <pt x="59" y="677" on="0"/>
        <pt x="67" y="691" on="0"/>
        <pt x="74" y="697" on="1"/>
        <pt x="82" y="701" on="0"/>
        <pt x="145" y="701" on="1"/>
        <pt x="234" y="701" on="0"/>
        <pt x="238" y="690" on="1"/>
        <pt x="244" y="689" on="0"/>
        <pt x="245" y="685" on="1"/>
        <pt x="247" y="681" on="0"/>
        <pt x="247" y="672" on="1"/>
        <pt x="349" y="676" on="0"/>
        <pt x="423" y="676" on="1"/>
        <pt x="503" y="676" on="0"/>
        <pt x="542" y="673" on="1"/>
        <pt x="545" y="691" on="0"/>
        <pt x="551" y="694" on="1"/>
        <pt x="555" y="704" on="0"/>
        <pt x="646" y="704" on="1"/>
        <pt x="710" y="704" on="0"/>
        <pt x="715" y="700" on="1"/>
        <pt x="708" y="610" on="0"/>
        <pt x="621" y="436" on="0"/>
        <pt x="498" y="306" on="0"/>
        <pt x="379" y="214" on="0"/>
        <pt x="325" y="186" on="1"/>
        <pt x="352" y="183" on="0"/>
        <pt x="388" y="183" on="1"/>
        <pt x="489" y="183" on="0"/>
        <pt x="545" y="204" on="1"/>
        <pt x="544" y="209" on="0"/>
        <pt x="544" y="220" on="1"/>
        <pt x="544" y="237" on="0"/>
        <pt x="558" y="263" on="1"/>
        <pt x="573" y="270" on="0"/>
        <pt x="632" y="270" on="1"/>
        <pt x="687" y="270" on="0"/>
        <pt x="713" y="256" on="0"/>
        <pt x="726" y="159" on="0"/>
        <pt x="726" y="117" on="1"/>
        <pt x="726" y="80" on="0"/>
        <pt x="712" y="12" on="0"/>
        <pt x="700" y="-18" on="0"/>
        <pt x="697" y="-20" on="1"/>
        <pt x="691" y="-23" on="0"/>
        <pt x="628" y="-23" on="1"/>
        <pt x="537" y="-23" on="0"/>
        <pt x="533" y="-13" on="1"/>
        <pt x="528" y="-12" on="0"/>
        <pt x="524" y="29" on="1"/>
        <pt x="470" y="11" on="0"/>
        <pt x="404" y="-1" on="0"/>
        <pt x="335" y="-1" on="1"/>
        <pt x="260" y="-1" on="0"/>
        <pt x="191" y="5" on="1"/>
        <pt x="190" y="-11" on="0"/>
        <pt x="183" y="-13" on="1"/>
        <pt x="179" y="-24" on="0"/>
        <pt x="90" y="-24" on="1"/>
        <pt x="27" y="-24" on="0"/>
      </contour>
    </TTGlyph>
    <TTGlyph name="Zcaron" xMin="19" yMin="-24" xMax="726" yMax="954">
      <contour>
        <pt x="19" y="-20" on="1"/>
        <pt x="19" y="77" on="0"/>
        <pt x="79" y="219" on="0"/>
        <pt x="178" y="306" on="0"/>
        <pt x="280" y="370" on="0"/>
        <pt x="391" y="449" on="0"/>
        <pt x="421" y="491" on="1"/>
        <pt x="420" y="491" on="0"/>
        <pt x="397" y="502" on="0"/>
        <pt x="351" y="514" on="0"/>
        <pt x="325" y="514" on="1"/>
        <pt x="236" y="514" on="0"/>
        <pt x="226" y="509" on="1"/>
        <pt x="227" y="505" on="0"/>
        <pt x="227" y="500" on="1"/>
        <pt x="227" y="490" on="0"/>
        <pt x="213" y="468" on="1"/>
        <pt x="171" y="452" on="0"/>
        <pt x="101" y="452" on="0"/>
        <pt x="74" y="469" on="1"/>
        <pt x="52" y="497" on="0"/>
        <pt x="52" y="573" on="1"/>
        <pt x="52" y="622" on="0"/>
        <pt x="59" y="677" on="0"/>
        <pt x="67" y="691" on="0"/>
        <pt x="74" y="697" on="1"/>
        <pt x="82" y="701" on="0"/>
        <pt x="145" y="701" on="1"/>
        <pt x="234" y="701" on="0"/>
        <pt x="238" y="690" on="1"/>
        <pt x="244" y="689" on="0"/>
        <pt x="245" y="685" on="1"/>
        <pt x="247" y="681" on="0"/>
        <pt x="247" y="672" on="1"/>
        <pt x="349" y="676" on="0"/>
        <pt x="423" y="676" on="1"/>
        <pt x="503" y="676" on="0"/>
        <pt x="542" y="673" on="1"/>
        <pt x="545" y="691" on="0"/>
        <pt x="551" y="694" on="1"/>
        <pt x="555" y="704" on="0"/>
        <pt x="646" y="704" on="1"/>
        <pt x="710" y="704" on="0"/>
        <pt x="715" y="700" on="1"/>
        <pt x="708" y="610" on="0"/>
        <pt x="621" y="436" on="0"/>
        <pt x="498" y="306" on="0"/>
        <pt x="379" y="214" on="0"/>
        <pt x="325" y="186" on="1"/>
        <pt x="352" y="183" on="0"/>
        <pt x="388" y="183" on="1"/>
        <pt x="489" y="183" on="0"/>
        <pt x="545" y="204" on="1"/>
        <pt x="544" y="209" on="0"/>
        <pt x="544" y="220" on="1"/>
        <pt x="544" y="237" on="0"/>
        <pt x="558" y="263" on="1"/>
        <pt x="573" y="270" on="0"/>
        <pt x="632" y="270" on="1"/>
        <pt x="687" y="270" on="0"/>
        <pt x="713" y="256" on="0"/>
        <pt x="726" y="159" on="0"/>
        <pt x="726" y="117" on="1"/>
        <pt x="726" y="80" on="0"/>
        <pt x="712" y="12" on="0"/>
        <pt x="700" y="-18" on="0"/>
        <pt x="697" y="-20" on="1"/>
        <pt x="691" y="-23" on="0"/>
        <pt x="628" y="-23" on="1"/>
        <pt x="537" y="-23" on="0"/>
        <pt x="533" y="-13" on="1"/>
        <pt x="528" y="-12" on="0"/>
        <pt x="524" y="29" on="1"/>
        <pt x="470" y="11" on="0"/>
        <pt x="404" y="-1" on="0"/>
        <pt x="335" y="-1" on="1"/>
        <pt x="260" y="-1" on="0"/>
        <pt x="191" y="5" on="1"/>
        <pt x="190" y="-11" on="0"/>
        <pt x="183" y="-13" on="1"/>
        <pt x="179" y="-24" on="0"/>
        <pt x="90" y="-24" on="1"/>
        <pt x="27" y="-24" on="0"/>
      </contour>
      <contour>
        <pt x="258" y="946" on="1"/>
        <pt x="272" y="952" on="0"/>
        <pt x="286" y="952" on="1"/>
        <pt x="299" y="952" on="0"/>
        <pt x="314" y="946" on="1"/>
        <pt x="358" y="926" on="0"/>
        <pt x="399" y="875" on="1"/>
        <pt x="426" y="916" on="0"/>
        <pt x="484" y="946" on="1"/>
        <pt x="500" y="954" on="0"/>
        <pt x="526" y="954" on="0"/>
        <pt x="540" y="946" on="1"/>
        <pt x="496" y="857" on="0"/>
        <pt x="441" y="805" on="1"/>
        <pt x="416" y="790" on="0"/>
        <pt x="396" y="790" on="1"/>
        <pt x="376" y="790" on="0"/>
        <pt x="357" y="805" on="1"/>
        <pt x="345" y="816" on="0"/>
        <pt x="323" y="842" on="0"/>
        <pt x="309" y="861" on="0"/>
        <pt x="289" y="891" on="0"/>
        <pt x="281" y="905" on="0"/>
        <pt x="261" y="941" on="0"/>
      </contour>
    </TTGlyph>
    <TTGlyph name="a" xMin="26" yMin="-16" xMax="591" yMax="513">
      <contour>
        <pt x="26" y="208" on="1"/>
        <pt x="26" y="281" on="0"/>
        <pt x="69" y="416" on="0"/>
        <pt x="166" y="512" on="0"/>
        <pt x="232" y="512" on="1"/>
        <pt x="259" y="512" on="0"/>
        <pt x="302" y="496" on="0"/>
        <pt x="327" y="473" on="0"/>
        <pt x="343" y="450" on="0"/>
        <pt x="346" y="442" on="1"/>
        <pt x="350" y="434" on="1"/>
        <pt x="350" y="468" on="0"/>
        <pt x="349" y="485" on="1"/>
        <pt x="382" y="513" on="0"/>
        <pt x="467" y="513" on="1"/>
        <pt x="497" y="513" on="0"/>
        <pt x="544" y="509" on="0"/>
        <pt x="568" y="503" on="0"/>
        <pt x="583" y="497" on="0"/>
        <pt x="585" y="496" on="1"/>
        <pt x="587" y="495" on="1"/>
        <pt x="591" y="486" on="0"/>
        <pt x="591" y="439" on="1"/>
        <pt x="591" y="391" on="0"/>
        <pt x="587" y="382" on="1"/>
        <pt x="573" y="364" on="0"/>
        <pt x="537" y="364" on="1"/>
        <pt x="527" y="364" on="0"/>
        <pt x="515" y="366" on="1"/>
        <pt x="518" y="360" on="0"/>
        <pt x="518" y="315" on="1"/>
        <pt x="518" y="184" on="0"/>
        <pt x="509" y="170" on="1"/>
        <pt x="516" y="173" on="0"/>
        <pt x="526" y="173" on="1"/>
        <pt x="538" y="173" on="0"/>
        <pt x="580" y="164" on="1"/>
        <pt x="588" y="158" on="0"/>
        <pt x="588" y="79" on="1"/>
        <pt x="588" y="35" on="0"/>
        <pt x="585" y="23" on="1"/>
        <pt x="579" y="12" on="0"/>
        <pt x="502" y="-8" on="0"/>
        <pt x="459" y="-8" on="1"/>
        <pt x="339" y="-8" on="0"/>
        <pt x="325" y="-4" on="1"/>
        <pt x="318" y="15" on="0"/>
        <pt x="318" y="28" on="1"/>
        <pt x="318" y="36" on="0"/>
        <pt x="321" y="40" on="1"/>
        <pt x="306" y="35" on="0"/>
        <pt x="207" y="-16" on="0"/>
        <pt x="182" y="-16" on="1"/>
        <pt x="105" y="-16" on="0"/>
        <pt x="26" y="114" on="0"/>
      </contour>
      <contour>
        <pt x="159" y="227" on="1"/>
        <pt x="159" y="195" on="0"/>
        <pt x="197" y="149" on="0"/>
        <pt x="228" y="149" on="1"/>
        <pt x="269" y="149" on="0"/>
        <pt x="338" y="221" on="0"/>
        <pt x="338" y="267" on="1"/>
        <pt x="338" y="301" on="0"/>
        <pt x="299" y="347" on="0"/>
        <pt x="267" y="347" on="1"/>
        <pt x="237" y="347" on="0"/>
        <pt x="185" y="307" on="0"/>
        <pt x="171" y="274" on="1"/>
        <pt x="159" y="251" on="0"/>
      </contour>
    </TTGlyph>
    <TTGlyph name="aacute" xMin="26" yMin="-16" xMax="591" yMax="748">
      <contour>
        <pt x="26" y="209" on="1"/>
        <pt x="26" y="281" on="0"/>
        <pt x="69" y="415" on="0"/>
        <pt x="166" y="512" on="0"/>
        <pt x="232" y="512" on="1"/>
        <pt x="259" y="512" on="0"/>
        <pt x="302" y="496" on="0"/>
        <pt x="327" y="473" on="0"/>
        <pt x="343" y="450" on="0"/>
        <pt x="346" y="442" on="1"/>
        <pt x="350" y="434" on="1"/>
        <pt x="350" y="468" on="0"/>
        <pt x="349" y="485" on="1"/>
        <pt x="382" y="513" on="0"/>
        <pt x="467" y="513" on="1"/>
        <pt x="497" y="513" on="0"/>
        <pt x="544" y="509" on="0"/>
        <pt x="568" y="503" on="0"/>
        <pt x="583" y="497" on="0"/>
        <pt x="585" y="496" on="1"/>
        <pt x="587" y="495" on="1"/>
        <pt x="591" y="486" on="0"/>
        <pt x="591" y="439" on="1"/>
        <pt x="591" y="391" on="0"/>
        <pt x="587" y="382" on="1"/>
        <pt x="573" y="364" on="0"/>
        <pt x="537" y="364" on="1"/>
        <pt x="527" y="364" on="0"/>
        <pt x="515" y="366" on="1"/>
        <pt x="518" y="360" on="0"/>
        <pt x="518" y="315" on="1"/>
        <pt x="518" y="184" on="0"/>
        <pt x="509" y="170" on="1"/>
        <pt x="516" y="173" on="0"/>
        <pt x="526" y="173" on="1"/>
        <pt x="538" y="173" on="0"/>
        <pt x="580" y="164" on="1"/>
        <pt x="588" y="158" on="0"/>
        <pt x="588" y="79" on="1"/>
        <pt x="588" y="35" on="0"/>
        <pt x="585" y="23" on="1"/>
        <pt x="579" y="12" on="0"/>
        <pt x="502" y="-8" on="0"/>
        <pt x="459" y="-8" on="1"/>
        <pt x="339" y="-8" on="0"/>
        <pt x="325" y="-4" on="1"/>
        <pt x="318" y="15" on="0"/>
        <pt x="318" y="28" on="1"/>
        <pt x="318" y="36" on="0"/>
        <pt x="321" y="40" on="1"/>
        <pt x="306" y="35" on="0"/>
        <pt x="209" y="-16" on="0"/>
        <pt x="175" y="-16" on="1"/>
        <pt x="105" y="-16" on="0"/>
        <pt x="26" y="115" on="0"/>
      </contour>
      <contour>
        <pt x="159" y="227" on="1"/>
        <pt x="159" y="195" on="0"/>
        <pt x="197" y="149" on="0"/>
        <pt x="228" y="149" on="1"/>
        <pt x="269" y="149" on="0"/>
        <pt x="338" y="221" on="0"/>
        <pt x="338" y="267" on="1"/>
        <pt x="338" y="301" on="0"/>
        <pt x="299" y="347" on="0"/>
        <pt x="267" y="347" on="1"/>
        <pt x="225" y="347" on="0"/>
        <pt x="159" y="270" on="0"/>
      </contour>
      <contour>
        <pt x="305" y="595" on="1"/>
        <pt x="346" y="699" on="0"/>
        <pt x="390" y="746" on="1"/>
        <pt x="408" y="748" on="0"/>
        <pt x="418" y="748" on="1"/>
        <pt x="462" y="748" on="0"/>
        <pt x="499" y="722" on="1"/>
        <pt x="458" y="652" on="0"/>
        <pt x="365" y="595" on="1"/>
        <pt x="341" y="587" on="0"/>
        <pt x="330" y="587" on="1"/>
        <pt x="316" y="587" on="0"/>
      </contour>
    </TTGlyph>
    <TTGlyph name="acircumflex" xMin="26" yMin="-16" xMax="591" yMax="749">
      <contour>
        <pt x="26" y="209" on="1"/>
        <pt x="26" y="281" on="0"/>
        <pt x="69" y="415" on="0"/>
        <pt x="166" y="512" on="0"/>
        <pt x="232" y="512" on="1"/>
        <pt x="259" y="512" on="0"/>
        <pt x="302" y="496" on="0"/>
        <pt x="327" y="473" on="0"/>
        <pt x="343" y="450" on="0"/>
        <pt x="346" y="442" on="1"/>
        <pt x="350" y="434" on="1"/>
        <pt x="350" y="468" on="0"/>
        <pt x="349" y="485" on="1"/>
        <pt x="382" y="513" on="0"/>
        <pt x="467" y="513" on="1"/>
        <pt x="497" y="513" on="0"/>
        <pt x="544" y="509" on="0"/>
        <pt x="568" y="503" on="0"/>
        <pt x="583" y="497" on="0"/>
        <pt x="585" y="496" on="1"/>
        <pt x="587" y="495" on="1"/>
        <pt x="591" y="486" on="0"/>
        <pt x="591" y="439" on="1"/>
        <pt x="591" y="391" on="0"/>
        <pt x="587" y="382" on="1"/>
        <pt x="573" y="364" on="0"/>
        <pt x="537" y="364" on="1"/>
        <pt x="527" y="364" on="0"/>
        <pt x="515" y="366" on="1"/>
        <pt x="518" y="360" on="0"/>
        <pt x="518" y="315" on="1"/>
        <pt x="518" y="184" on="0"/>
        <pt x="509" y="170" on="1"/>
        <pt x="516" y="173" on="0"/>
        <pt x="526" y="173" on="1"/>
        <pt x="538" y="173" on="0"/>
        <pt x="580" y="164" on="1"/>
        <pt x="588" y="158" on="0"/>
        <pt x="588" y="79" on="1"/>
        <pt x="588" y="35" on="0"/>
        <pt x="585" y="23" on="1"/>
        <pt x="579" y="12" on="0"/>
        <pt x="502" y="-8" on="0"/>
        <pt x="459" y="-8" on="1"/>
        <pt x="339" y="-8" on="0"/>
        <pt x="325" y="-4" on="1"/>
        <pt x="318" y="15" on="0"/>
        <pt x="318" y="28" on="1"/>
        <pt x="318" y="36" on="0"/>
        <pt x="321" y="40" on="1"/>
        <pt x="306" y="35" on="0"/>
        <pt x="209" y="-16" on="0"/>
        <pt x="175" y="-16" on="1"/>
        <pt x="105" y="-16" on="0"/>
        <pt x="26" y="115" on="0"/>
      </contour>
      <contour>
        <pt x="159" y="227" on="1"/>
        <pt x="159" y="195" on="0"/>
        <pt x="197" y="149" on="0"/>
        <pt x="228" y="149" on="1"/>
        <pt x="269" y="149" on="0"/>
        <pt x="338" y="221" on="0"/>
        <pt x="338" y="267" on="1"/>
        <pt x="338" y="301" on="0"/>
        <pt x="299" y="347" on="0"/>
        <pt x="267" y="347" on="1"/>
        <pt x="225" y="347" on="0"/>
        <pt x="159" y="270" on="0"/>
      </contour>
      <contour>
        <pt x="191" y="593" on="1"/>
        <pt x="194" y="598" on="0"/>
        <pt x="214" y="634" on="0"/>
        <pt x="222" y="648" on="0"/>
        <pt x="242" y="678" on="0"/>
        <pt x="256" y="697" on="0"/>
        <pt x="278" y="723" on="0"/>
        <pt x="290" y="734" on="1"/>
        <pt x="310" y="749" on="0"/>
        <pt x="329" y="749" on="1"/>
        <pt x="349" y="749" on="0"/>
        <pt x="374" y="734" on="1"/>
        <pt x="429" y="682" on="0"/>
        <pt x="473" y="593" on="1"/>
        <pt x="459" y="585" on="0"/>
        <pt x="433" y="585" on="0"/>
        <pt x="417" y="593" on="1"/>
        <pt x="359" y="623" on="0"/>
        <pt x="332" y="664" on="1"/>
        <pt x="291" y="613" on="0"/>
        <pt x="247" y="593" on="1"/>
        <pt x="232" y="587" on="0"/>
        <pt x="219" y="587" on="1"/>
        <pt x="204" y="587" on="0"/>
      </contour>
    </TTGlyph>
    <TTGlyph name="acute" xMin="378" yMin="587" xMax="572" yMax="748">
      <contour>
        <pt x="378" y="595" on="1"/>
        <pt x="419" y="699" on="0"/>
        <pt x="463" y="746" on="1"/>
        <pt x="481" y="748" on="0"/>
        <pt x="491" y="748" on="1"/>
        <pt x="535" y="748" on="0"/>
        <pt x="572" y="722" on="1"/>
        <pt x="531" y="652" on="0"/>
        <pt x="438" y="595" on="1"/>
        <pt x="414" y="587" on="0"/>
        <pt x="403" y="587" on="1"/>
        <pt x="389" y="587" on="0"/>
      </contour>
    </TTGlyph>
    <TTGlyph name="adieresis" xMin="26" yMin="-16" xMax="591" yMax="742">
      <contour>
        <pt x="26" y="209" on="1"/>
        <pt x="26" y="281" on="0"/>
        <pt x="69" y="415" on="0"/>
        <pt x="166" y="512" on="0"/>
        <pt x="232" y="512" on="1"/>
        <pt x="259" y="512" on="0"/>
        <pt x="302" y="496" on="0"/>
        <pt x="327" y="473" on="0"/>
        <pt x="343" y="450" on="0"/>
        <pt x="346" y="442" on="1"/>
        <pt x="350" y="434" on="1"/>
        <pt x="350" y="468" on="0"/>
        <pt x="349" y="485" on="1"/>
        <pt x="382" y="513" on="0"/>
        <pt x="467" y="513" on="1"/>
        <pt x="497" y="513" on="0"/>
        <pt x="544" y="509" on="0"/>
        <pt x="568" y="503" on="0"/>
        <pt x="583" y="497" on="0"/>
        <pt x="585" y="496" on="1"/>
        <pt x="587" y="495" on="1"/>
        <pt x="591" y="486" on="0"/>
        <pt x="591" y="439" on="1"/>
        <pt x="591" y="391" on="0"/>
        <pt x="587" y="382" on="1"/>
        <pt x="573" y="364" on="0"/>
        <pt x="537" y="364" on="1"/>
        <pt x="527" y="364" on="0"/>
        <pt x="515" y="366" on="1"/>
        <pt x="518" y="360" on="0"/>
        <pt x="518" y="315" on="1"/>
        <pt x="518" y="184" on="0"/>
        <pt x="509" y="170" on="1"/>
        <pt x="516" y="173" on="0"/>
        <pt x="526" y="173" on="1"/>
        <pt x="538" y="173" on="0"/>
        <pt x="580" y="164" on="1"/>
        <pt x="588" y="158" on="0"/>
        <pt x="588" y="79" on="1"/>
        <pt x="588" y="35" on="0"/>
        <pt x="585" y="23" on="1"/>
        <pt x="579" y="12" on="0"/>
        <pt x="502" y="-8" on="0"/>
        <pt x="459" y="-8" on="1"/>
        <pt x="339" y="-8" on="0"/>
        <pt x="325" y="-4" on="1"/>
        <pt x="318" y="15" on="0"/>
        <pt x="318" y="28" on="1"/>
        <pt x="318" y="36" on="0"/>
        <pt x="321" y="40" on="1"/>
        <pt x="306" y="35" on="0"/>
        <pt x="209" y="-16" on="0"/>
        <pt x="175" y="-16" on="1"/>
        <pt x="105" y="-16" on="0"/>
        <pt x="26" y="115" on="0"/>
      </contour>
      <contour>
        <pt x="159" y="227" on="1"/>
        <pt x="159" y="195" on="0"/>
        <pt x="197" y="149" on="0"/>
        <pt x="228" y="149" on="1"/>
        <pt x="269" y="149" on="0"/>
        <pt x="338" y="221" on="0"/>
        <pt x="338" y="267" on="1"/>
        <pt x="338" y="301" on="0"/>
        <pt x="299" y="347" on="0"/>
        <pt x="267" y="347" on="1"/>
        <pt x="225" y="347" on="0"/>
        <pt x="159" y="270" on="0"/>
      </contour>
      <contour>
        <pt x="164" y="670" on="1"/>
        <pt x="164" y="699" on="0"/>
        <pt x="182" y="725" on="1"/>
        <pt x="205" y="742" on="0"/>
        <pt x="255" y="742" on="0"/>
        <pt x="281" y="725" on="1"/>
        <pt x="298" y="698" on="0"/>
        <pt x="298" y="638" on="0"/>
        <pt x="281" y="606" on="1"/>
        <pt x="252" y="587" on="0"/>
        <pt x="204" y="587" on="0"/>
        <pt x="182" y="606" on="1"/>
        <pt x="164" y="640" on="0"/>
      </contour>
      <contour>
        <pt x="354" y="670" on="1"/>
        <pt x="354" y="699" on="0"/>
        <pt x="372" y="725" on="1"/>
        <pt x="395" y="742" on="0"/>
        <pt x="445" y="742" on="0"/>
        <pt x="471" y="725" on="1"/>
        <pt x="488" y="698" on="0"/>
        <pt x="488" y="638" on="0"/>
        <pt x="471" y="606" on="1"/>
        <pt x="442" y="587" on="0"/>
        <pt x="394" y="587" on="0"/>
        <pt x="372" y="606" on="1"/>
        <pt x="354" y="640" on="0"/>
      </contour>
    </TTGlyph>
</ttFont>
